%TF.GenerationSoftware,KiCad,Pcbnew,10.0.3*%
%TF.CreationDate,2026-08-16T19:10:51+05:30*%
%TF.ProjectId,laser,6c617365-722e-46b6-9963-61645f706362,rev?*%
%TF.SameCoordinates,Original*%
%TF.FileFunction,Copper,L2,Bot*%
%TF.FilePolarity,Positive*%
%FSLAX46Y46*%
G04 Gerber Fmt 4.6, Leading zero omitted, Abs format (unit mm)*
G04 Created by KiCad (PCBNEW 10.0.3) date 2026-08-16 19:10:51*
%MOMM*%
%LPD*%
G01*
G04 APERTURE LIST*
G04 Aperture macros list*
%AMRoundRect*
0 Rectangle with rounded corners*
0 $1 Rounding radius*
0 $2 $3 $4 $5 $6 $7 $8 $9 X,Y pos of 4 corners*
0 Add a 4 corners polygon primitive as box body*
4,1,4,$2,$3,$4,$5,$6,$7,$8,$9,$2,$3,0*
0 Add four circle primitives for the rounded corners*
1,1,$1+$1,$2,$3*
1,1,$1+$1,$4,$5*
1,1,$1+$1,$6,$7*
1,1,$1+$1,$8,$9*
0 Add four rect primitives between the rounded corners*
20,1,$1+$1,$2,$3,$4,$5,0*
20,1,$1+$1,$4,$5,$6,$7,0*
20,1,$1+$1,$6,$7,$8,$9,0*
20,1,$1+$1,$8,$9,$2,$3,0*%
G04 Aperture macros list end*
%TA.AperFunction,ComponentPad*%
%ADD10R,2.000000X2.000000*%
%TD*%
%TA.AperFunction,ComponentPad*%
%ADD11C,2.000000*%
%TD*%
%TA.AperFunction,ComponentPad*%
%ADD12C,1.440000*%
%TD*%
%TA.AperFunction,ComponentPad*%
%ADD13O,2.000000X1.600000*%
%TD*%
%TA.AperFunction,ComponentPad*%
%ADD14RoundRect,0.170000X0.680000X-0.680000X0.680000X0.680000X-0.680000X0.680000X-0.680000X-0.680000X0*%
%TD*%
%TA.AperFunction,ComponentPad*%
%ADD15C,1.700000*%
%TD*%
%TA.AperFunction,ComponentPad*%
%ADD16R,1.700000X1.700000*%
%TD*%
%TA.AperFunction,ComponentPad*%
%ADD17C,1.000000*%
%TD*%
%TA.AperFunction,ComponentPad*%
%ADD18RoundRect,0.250000X-0.350000X-0.625000X0.350000X-0.625000X0.350000X0.625000X-0.350000X0.625000X0*%
%TD*%
%TA.AperFunction,ComponentPad*%
%ADD19O,1.200000X1.750000*%
%TD*%
%TA.AperFunction,ComponentPad*%
%ADD20R,1.050000X1.500000*%
%TD*%
%TA.AperFunction,ComponentPad*%
%ADD21O,1.050000X1.500000*%
%TD*%
%TA.AperFunction,ViaPad*%
%ADD22C,0.600000*%
%TD*%
%TA.AperFunction,Conductor*%
%ADD23C,0.200000*%
%TD*%
G04 APERTURE END LIST*
D10*
%TO.P,BZ1,1,+_1*%
%TO.N,+3V3*%
X90893150Y-116433150D03*
D11*
%TO.P,BZ1,2,-_2*%
%TO.N,Net-(BZ1--)*%
X98493150Y-116433150D03*
%TD*%
D12*
%TO.P,R2,1,1_1*%
%TO.N,GND*%
X142233150Y-82428150D03*
%TO.P,R2,2,2_2*%
%TO.N,Net-(U3A-INA-)*%
X139693150Y-82428150D03*
%TO.P,R2,3,3_3*%
%TO.N,+3V3*%
X137153150Y-82428150D03*
%TD*%
D10*
%TO.P,U1,1,EN_1*%
%TO.N,unconnected-(U1-EN-Pad1)*%
X127993150Y-107833150D03*
D13*
%TO.P,U1,2,D3_2*%
%TO.N,Net-(U1-D3)*%
X127993150Y-105293150D03*
%TO.P,U1,3,D2_3*%
%TO.N,Net-(U1-D2)*%
X127993150Y-102753150D03*
%TO.P,U1,4,D1_4*%
%TO.N,Net-(U1-D1)*%
X127993150Y-100213150D03*
%TO.P,U1,5,D0_5*%
%TO.N,Net-(D1-A)*%
X127993150Y-97673150D03*
%TO.P,U1,6,D4_6*%
%TO.N,Net-(U1-D4)*%
X127993150Y-95133150D03*
%TO.P,U1,7,D5_7*%
%TO.N,Net-(U1-D5)*%
X127993150Y-92593150D03*
%TO.P,U1,8,3V3_8*%
%TO.N,+3V3*%
X127993150Y-90053150D03*
%TO.P,U1,9,VBus_9*%
%TO.N,Net-(J1-Pin_1)*%
X105133150Y-90053150D03*
%TO.P,U1,10,GND_10*%
%TO.N,GND*%
X105133150Y-92593150D03*
%TO.P,U1,11,D6_11*%
%TO.N,Net-(U1-D6)*%
X105133150Y-95133150D03*
%TO.P,U1,12,D7_12*%
%TO.N,/BAT_SENSE*%
X105133150Y-97673150D03*
%TO.P,U1,13,D8_13*%
%TO.N,unconnected-(U1-D8-Pad13)*%
X105133150Y-100213150D03*
%TO.P,U1,14,D10_14*%
%TO.N,Net-(U1-D10)*%
X105133150Y-102753150D03*
%TO.P,U1,15,RX_15*%
%TO.N,unconnected-(U1-RX-Pad15)*%
X105133150Y-105293150D03*
%TO.P,U1,16,TX_16*%
%TO.N,unconnected-(U1-TX-Pad16)*%
X105133150Y-107833150D03*
%TD*%
D14*
%TO.P,U2,1,GND_1*%
%TO.N,GND*%
X92693150Y-76243150D03*
D15*
%TO.P,U2,2,VCC_2*%
%TO.N,+3V3*%
X92693150Y-73703150D03*
%TO.P,U2,3,SCL_3*%
%TO.N,Net-(U1-D3)*%
X92693150Y-71163150D03*
%TO.P,U2,4,SDA_4*%
%TO.N,Net-(U1-D2)*%
X92693150Y-68623150D03*
%TD*%
D16*
%TO.P,J1,1,Pin_1_1*%
%TO.N,Net-(J1-Pin_1)*%
X95193150Y-89893150D03*
D15*
%TO.P,J1,2,Pin_2_2*%
%TO.N,GND*%
X95193150Y-92433150D03*
%TD*%
D17*
%TO.P,Y1,1,1_1*%
%TO.N,Net-(U4-X1)*%
X132948150Y-120163150D03*
%TO.P,Y1,2,2_2*%
%TO.N,Net-(U4-X2)*%
X132948150Y-122703150D03*
%TD*%
D18*
%TO.P,J2,1,Pin_1_1*%
%TO.N,Net-(J2-Pin_1)*%
X96693150Y-82433150D03*
D19*
%TO.P,J2,2,Pin_2_2*%
%TO.N,GND*%
X98693150Y-82433150D03*
%TD*%
D20*
%TO.P,Q1,1,E_1*%
%TO.N,GND*%
X107653150Y-122933150D03*
D21*
%TO.P,Q1,2,B_2*%
%TO.N,Net-(Q1-B)*%
X108923150Y-122933150D03*
%TO.P,Q1,3,C_3*%
%TO.N,Net-(BZ1--)*%
X110193150Y-122933150D03*
%TD*%
D22*
%TO.N,+3V3*%
X135677950Y-115316850D03*
X134279850Y-106846650D03*
%TO.N,GND*%
X138193150Y-99433150D03*
X142093150Y-115657850D03*
X132193150Y-89492950D03*
X135288615Y-101787685D03*
%TO.N,Net-(U1-D1)*%
X139283150Y-107575250D03*
X136605650Y-111985350D03*
%TO.N,Net-(D1-A)*%
X141823150Y-104197250D03*
%TO.N,Net-(U1-D10)*%
X91505450Y-100791350D03*
%TO.N,/BAT_SENSE*%
X92193150Y-88730950D03*
%TO.N,Net-(U1-D3)*%
X140823150Y-110226550D03*
X135116250Y-106812350D03*
%TO.N,Net-(U1-D5)*%
X136172950Y-92614650D03*
%TO.N,Net-(U1-D2)*%
X142093150Y-110217550D03*
%TO.N,Net-(U1-D6)*%
X133803950Y-103866850D03*
%TO.N,Net-(U4-X2)*%
X139563150Y-118627550D03*
%TD*%
%TO.N,+3V3*%
D23*
X92194850Y-116433150D02*
X94709250Y-113918750D01*
X134279850Y-106846650D02*
X134279850Y-113918750D01*
X94709250Y-113918750D02*
X134279850Y-113918750D01*
X90893150Y-116433150D02*
X92194850Y-116433150D01*
X134279850Y-113918750D02*
X135677950Y-115316850D01*
%TO.N,GND*%
X107653150Y-123984850D02*
X127858750Y-123984850D01*
X142233150Y-82428150D02*
X135168350Y-89492950D01*
X135168350Y-89492950D02*
X132193150Y-89492950D01*
X138298180Y-104797250D02*
X135288615Y-101787685D01*
X138193150Y-99433150D02*
X142423150Y-103663150D01*
X133881550Y-117962050D02*
X139788950Y-117962050D01*
X107653150Y-122933150D02*
X107653150Y-123984850D01*
X142071679Y-104797250D02*
X138298180Y-104797250D01*
X139788950Y-117962050D02*
X142093150Y-115657850D01*
X127858750Y-123984850D02*
X133881550Y-117962050D01*
X142423150Y-104445779D02*
X142071679Y-104797250D01*
X142423150Y-103663150D02*
X142423150Y-104445779D01*
%TO.N,Net-(U1-D1)*%
X141427050Y-110541150D02*
X139982850Y-111985350D01*
X141427050Y-109719150D02*
X141427050Y-110541150D01*
X139283150Y-107575250D02*
X141427050Y-109719150D01*
X139982850Y-111985350D02*
X136605650Y-111985350D01*
X131921050Y-100213150D02*
X139283150Y-107575250D01*
X127993150Y-100213150D02*
X131921050Y-100213150D01*
%TO.N,Net-(D1-A)*%
X135299050Y-97673150D02*
X141823150Y-104197250D01*
X127993150Y-97673150D02*
X135299050Y-97673150D01*
%TO.N,Net-(U1-D10)*%
X105133150Y-101651450D02*
X92365550Y-101651450D01*
X92365550Y-101651450D02*
X91505450Y-100791350D01*
X105133150Y-102753150D02*
X105133150Y-101651450D01*
%TO.N,/BAT_SENSE*%
X92193150Y-89037450D02*
X94318850Y-91163150D01*
X104031450Y-96571450D02*
X105133150Y-96571450D01*
X92193150Y-88730950D02*
X92193150Y-89037450D01*
X105133150Y-97673150D02*
X105133150Y-96571450D01*
X94318850Y-91163150D02*
X98623150Y-91163150D01*
X98623150Y-91163150D02*
X104031450Y-96571450D01*
%TO.N,Net-(U1-D3)*%
X135116250Y-106812350D02*
X134548850Y-106244950D01*
X100035250Y-98943150D02*
X106433450Y-98943150D01*
X140823150Y-110226550D02*
X137408950Y-106812350D01*
X134548850Y-106244950D02*
X134030750Y-106244950D01*
X106433450Y-98943150D02*
X112783450Y-105293150D01*
X91517250Y-90425150D02*
X100035250Y-98943150D01*
X92693150Y-71163150D02*
X91517250Y-72339050D01*
X127993150Y-105293150D02*
X127993150Y-106394850D01*
X137408950Y-106812350D02*
X135116250Y-106812350D01*
X134030750Y-106244950D02*
X133880850Y-106394850D01*
X112783450Y-105293150D02*
X127993150Y-105293150D01*
X133880850Y-106394850D02*
X127993150Y-106394850D01*
X91517250Y-72339050D02*
X91517250Y-90425150D01*
%TO.N,Net-(U1-D5)*%
X136172950Y-92614650D02*
X129316350Y-92614650D01*
X129316350Y-92614650D02*
X129294850Y-92593150D01*
X127993150Y-92593150D02*
X129294850Y-92593150D01*
%TO.N,Net-(BZ1--)*%
X98493150Y-116433150D02*
X104744850Y-116433150D01*
X110193150Y-122933150D02*
X110193150Y-121881450D01*
X104744850Y-116433150D02*
X110193150Y-121881450D01*
%TO.N,Net-(U1-D2)*%
X125254550Y-101184550D02*
X127328250Y-99110850D01*
X92693150Y-68623150D02*
X125254550Y-101184550D01*
X126691450Y-102621450D02*
X126691450Y-102753150D01*
X127993150Y-102753150D02*
X126691450Y-102753150D01*
X125254550Y-101184550D02*
X126691450Y-102621450D01*
X131763250Y-99110850D02*
X142093150Y-109440750D01*
X127328250Y-99110850D02*
X131763250Y-99110850D01*
X142093150Y-109440750D02*
X142093150Y-110217550D01*
%TO.N,Net-(J1-Pin_1)*%
X105133150Y-90053150D02*
X103831450Y-90053150D01*
X95193150Y-89893150D02*
X103671450Y-89893150D01*
X103671450Y-89893150D02*
X103831450Y-90053150D01*
%TO.N,Net-(U1-D6)*%
X105133150Y-95133150D02*
X113866850Y-103866850D01*
X113866850Y-103866850D02*
X133803950Y-103866850D01*
%TO.N,Net-(U4-X2)*%
X137023750Y-118627550D02*
X139563150Y-118627550D01*
X132948150Y-122703150D02*
X137023750Y-118627550D01*
%TD*%
%TA.AperFunction,Conductor*%
%TO.N,GND*%
G36*
X94248853Y-71028534D02*
G01*
X94255331Y-71034566D01*
X126081355Y-102860590D01*
X126107064Y-102898084D01*
X126110959Y-102906885D01*
X126131873Y-102984934D01*
X126190279Y-103086098D01*
X126192964Y-103092163D01*
X126196698Y-103120487D01*
X126203434Y-103148251D01*
X126201207Y-103154684D01*
X126202097Y-103161433D01*
X126189925Y-103187278D01*
X126180581Y-103214277D01*
X126175229Y-103218485D01*
X126172329Y-103224645D01*
X126148117Y-103239807D01*
X126125660Y-103257468D01*
X126117361Y-103259067D01*
X126113113Y-103261728D01*
X126104103Y-103261622D01*
X126079574Y-103266350D01*
X114166947Y-103266350D01*
X114099908Y-103246665D01*
X114079266Y-103230031D01*
X106578179Y-95728944D01*
X106544694Y-95667621D01*
X106547928Y-95602950D01*
X106601627Y-95437684D01*
X106633650Y-95235502D01*
X106633650Y-95030798D01*
X106601627Y-94828616D01*
X106538370Y-94633931D01*
X106538368Y-94633928D01*
X106538368Y-94633926D01*
X106504653Y-94567757D01*
X106445437Y-94451540D01*
X106437706Y-94440899D01*
X106325121Y-94285936D01*
X106180363Y-94141178D01*
X106014761Y-94020863D01*
X105921519Y-93973353D01*
X105870724Y-93925379D01*
X105853929Y-93857557D01*
X105876467Y-93791423D01*
X105921521Y-93752384D01*
X106014497Y-93705011D01*
X106180044Y-93584732D01*
X106180045Y-93584732D01*
X106324732Y-93440045D01*
X106324732Y-93440044D01*
X106445009Y-93274499D01*
X106537905Y-93092179D01*
X106601140Y-92897563D01*
X106609759Y-92843150D01*
X105508428Y-92843150D01*
X105552483Y-92766844D01*
X105583150Y-92652394D01*
X105583150Y-92533906D01*
X105552483Y-92419456D01*
X105508428Y-92343150D01*
X106609759Y-92343150D01*
X106601140Y-92288736D01*
X106537905Y-92094120D01*
X106445009Y-91911800D01*
X106324732Y-91746255D01*
X106324732Y-91746254D01*
X106180045Y-91601567D01*
X106014499Y-91481290D01*
X105921520Y-91433915D01*
X105870724Y-91385940D01*
X105853929Y-91318119D01*
X105876466Y-91251985D01*
X105921520Y-91212945D01*
X105922070Y-91212665D01*
X106014760Y-91165437D01*
X106035920Y-91150063D01*
X106180363Y-91045121D01*
X106180365Y-91045118D01*
X106180369Y-91045116D01*
X106325116Y-90900369D01*
X106325118Y-90900365D01*
X106325121Y-90900363D01*
X106402080Y-90794436D01*
X106445437Y-90734760D01*
X106538370Y-90552369D01*
X106601627Y-90357684D01*
X106633650Y-90155502D01*
X106633650Y-89950798D01*
X106601627Y-89748616D01*
X106538370Y-89553931D01*
X106538368Y-89553928D01*
X106538368Y-89553926D01*
X106504653Y-89487757D01*
X106445437Y-89371540D01*
X106437706Y-89360899D01*
X106325121Y-89205936D01*
X106180363Y-89061178D01*
X106014763Y-88940865D01*
X106014762Y-88940864D01*
X106014760Y-88940863D01*
X105957803Y-88911841D01*
X105832373Y-88847931D01*
X105637684Y-88784672D01*
X105463145Y-88757028D01*
X105435502Y-88752650D01*
X104830798Y-88752650D01*
X104806479Y-88756501D01*
X104628615Y-88784672D01*
X104433926Y-88847931D01*
X104251536Y-88940865D01*
X104085936Y-89061178D01*
X103941183Y-89205931D01*
X103907466Y-89252339D01*
X103852136Y-89295004D01*
X103801133Y-89303306D01*
X103787876Y-89302662D01*
X103750507Y-89292649D01*
X103592393Y-89292649D01*
X103592389Y-89292650D01*
X96667649Y-89292650D01*
X96600610Y-89272965D01*
X96554855Y-89220161D01*
X96543649Y-89168650D01*
X96543649Y-88995279D01*
X96543648Y-88995273D01*
X96543647Y-88995266D01*
X96537241Y-88935667D01*
X96504517Y-88847930D01*
X96486947Y-88800821D01*
X96486943Y-88800814D01*
X96400697Y-88685605D01*
X96400694Y-88685602D01*
X96285485Y-88599356D01*
X96285478Y-88599352D01*
X96150632Y-88549058D01*
X96150633Y-88549058D01*
X96091033Y-88542651D01*
X96091031Y-88542650D01*
X96091023Y-88542650D01*
X96091014Y-88542650D01*
X94295279Y-88542650D01*
X94295273Y-88542651D01*
X94235666Y-88549058D01*
X94100821Y-88599352D01*
X94100814Y-88599356D01*
X93985605Y-88685602D01*
X93985602Y-88685605D01*
X93899356Y-88800814D01*
X93899352Y-88800821D01*
X93849058Y-88935667D01*
X93848101Y-88944573D01*
X93842651Y-88995273D01*
X93842650Y-88995285D01*
X93842650Y-89538352D01*
X93822965Y-89605391D01*
X93770161Y-89651146D01*
X93701003Y-89661090D01*
X93637447Y-89632065D01*
X93630969Y-89626033D01*
X93010831Y-89005896D01*
X92977346Y-88944573D01*
X92976895Y-88894023D01*
X92993650Y-88809794D01*
X92993650Y-88652105D01*
X92993649Y-88652103D01*
X92983157Y-88599356D01*
X92962887Y-88497453D01*
X92962885Y-88497448D01*
X92902547Y-88351777D01*
X92902540Y-88351764D01*
X92814939Y-88220661D01*
X92814936Y-88220657D01*
X92703442Y-88109163D01*
X92703438Y-88109160D01*
X92572335Y-88021559D01*
X92572322Y-88021552D01*
X92426651Y-87961214D01*
X92426639Y-87961211D01*
X92271995Y-87930450D01*
X92271992Y-87930450D01*
X92241750Y-87930450D01*
X92174711Y-87910765D01*
X92128956Y-87857961D01*
X92117750Y-87806450D01*
X92117750Y-81758133D01*
X95592650Y-81758133D01*
X95592650Y-83108151D01*
X95592651Y-83108168D01*
X95603150Y-83210946D01*
X95603151Y-83210949D01*
X95652241Y-83359092D01*
X95658336Y-83377484D01*
X95750438Y-83526806D01*
X95874494Y-83650862D01*
X96023816Y-83742964D01*
X96190353Y-83798149D01*
X96293141Y-83808650D01*
X97093158Y-83808649D01*
X97093166Y-83808648D01*
X97093169Y-83808648D01*
X97149452Y-83802898D01*
X97195947Y-83798149D01*
X97362484Y-83742964D01*
X97511806Y-83650862D01*
X97635862Y-83526806D01*
X97675731Y-83462166D01*
X97727675Y-83415444D01*
X97796638Y-83404221D01*
X97860720Y-83432064D01*
X97868949Y-83439584D01*
X97976547Y-83547182D01*
X98116625Y-83648954D01*
X98270894Y-83727558D01*
X98435565Y-83781064D01*
X98435564Y-83781064D01*
X98443149Y-83782265D01*
X98443150Y-83782264D01*
X98443150Y-82713480D01*
X98462895Y-82733225D01*
X98548405Y-82782594D01*
X98643780Y-82808150D01*
X98742520Y-82808150D01*
X98837895Y-82782594D01*
X98923405Y-82733225D01*
X98943150Y-82713480D01*
X98943150Y-83782265D01*
X98950734Y-83781064D01*
X99115405Y-83727558D01*
X99269674Y-83648954D01*
X99409752Y-83547182D01*
X99532182Y-83424752D01*
X99633954Y-83284674D01*
X99712558Y-83130407D01*
X99766064Y-82965734D01*
X99793150Y-82794721D01*
X99793150Y-82683150D01*
X98973480Y-82683150D01*
X98993225Y-82663405D01*
X99042594Y-82577895D01*
X99068150Y-82482520D01*
X99068150Y-82383780D01*
X99042594Y-82288405D01*
X98993225Y-82202895D01*
X98973480Y-82183150D01*
X99793150Y-82183150D01*
X99793150Y-82071578D01*
X99766064Y-81900565D01*
X99712558Y-81735892D01*
X99633954Y-81581625D01*
X99532182Y-81441547D01*
X99409752Y-81319117D01*
X99269674Y-81217345D01*
X99115407Y-81138741D01*
X98950739Y-81085237D01*
X98950731Y-81085235D01*
X98943150Y-81084034D01*
X98943150Y-82152820D01*
X98923405Y-82133075D01*
X98837895Y-82083706D01*
X98742520Y-82058150D01*
X98643780Y-82058150D01*
X98548405Y-82083706D01*
X98462895Y-82133075D01*
X98443150Y-82152820D01*
X98443150Y-81084034D01*
X98443149Y-81084034D01*
X98435568Y-81085235D01*
X98435560Y-81085237D01*
X98270892Y-81138741D01*
X98116625Y-81217345D01*
X97976551Y-81319114D01*
X97868949Y-81426716D01*
X97807626Y-81460200D01*
X97737934Y-81455216D01*
X97682001Y-81413344D01*
X97675735Y-81404138D01*
X97635862Y-81339494D01*
X97511806Y-81215438D01*
X97362484Y-81123336D01*
X97195947Y-81068151D01*
X97195945Y-81068150D01*
X97093160Y-81057650D01*
X96293148Y-81057650D01*
X96293130Y-81057651D01*
X96190353Y-81068150D01*
X96190350Y-81068151D01*
X96023818Y-81123335D01*
X96023813Y-81123337D01*
X95874492Y-81215439D01*
X95750439Y-81339492D01*
X95658337Y-81488813D01*
X95658336Y-81488816D01*
X95603151Y-81655353D01*
X95603151Y-81655354D01*
X95603150Y-81655354D01*
X95592650Y-81758133D01*
X92117750Y-81758133D01*
X92117750Y-77717149D01*
X92137435Y-77650110D01*
X92190239Y-77604355D01*
X92241750Y-77593149D01*
X92443150Y-77593149D01*
X92443150Y-76676162D01*
X92500157Y-76709075D01*
X92627324Y-76743150D01*
X92758976Y-76743150D01*
X92886143Y-76709075D01*
X92943150Y-76676162D01*
X92943150Y-77593149D01*
X93427311Y-77593149D01*
X93494801Y-77587017D01*
X93494808Y-77587015D01*
X93650139Y-77538612D01*
X93650148Y-77538609D01*
X93789383Y-77454439D01*
X93789387Y-77454436D01*
X93904436Y-77339387D01*
X93904439Y-77339383D01*
X93988609Y-77200148D01*
X93988611Y-77200142D01*
X94037014Y-77044812D01*
X94037015Y-77044805D01*
X94043150Y-76977301D01*
X94043150Y-76493150D01*
X93126162Y-76493150D01*
X93159075Y-76436143D01*
X93193150Y-76308976D01*
X93193150Y-76177324D01*
X93159075Y-76050157D01*
X93126162Y-75993150D01*
X94043149Y-75993150D01*
X94043149Y-75508987D01*
X94037017Y-75441498D01*
X94037015Y-75441491D01*
X93988612Y-75286160D01*
X93988609Y-75286151D01*
X93904439Y-75146916D01*
X93904436Y-75146912D01*
X93789387Y-75031863D01*
X93789383Y-75031860D01*
X93650148Y-74947690D01*
X93650143Y-74947688D01*
X93623625Y-74939425D01*
X93565478Y-74900686D01*
X93537505Y-74836660D01*
X93548587Y-74767675D01*
X93572836Y-74733358D01*
X93572934Y-74733259D01*
X93572942Y-74733254D01*
X93723254Y-74582942D01*
X93848201Y-74410966D01*
X93944707Y-74221562D01*
X94010396Y-74019393D01*
X94043650Y-73809437D01*
X94043650Y-73596863D01*
X94010396Y-73386907D01*
X93944707Y-73184738D01*
X93848201Y-72995334D01*
X93848199Y-72995331D01*
X93848198Y-72995329D01*
X93723259Y-72823363D01*
X93572936Y-72673040D01*
X93400970Y-72548101D01*
X93400265Y-72547741D01*
X93392204Y-72543635D01*
X93341409Y-72495662D01*
X93324613Y-72427842D01*
X93347149Y-72361706D01*
X93392204Y-72322665D01*
X93400966Y-72318201D01*
X93422939Y-72302236D01*
X93572936Y-72193259D01*
X93572938Y-72193256D01*
X93572942Y-72193254D01*
X93723254Y-72042942D01*
X93723256Y-72042938D01*
X93723259Y-72042936D01*
X93848198Y-71870970D01*
X93848197Y-71870970D01*
X93848201Y-71870966D01*
X93944707Y-71681562D01*
X94010396Y-71479393D01*
X94043650Y-71269437D01*
X94043650Y-71122247D01*
X94063335Y-71055208D01*
X94116139Y-71009453D01*
X94185297Y-70999509D01*
X94248853Y-71028534D01*
G37*
%TD.AperFunction*%
%TA.AperFunction,Conductor*%
G36*
X98390092Y-91783335D02*
G01*
X98410734Y-91799969D01*
X103550928Y-96940163D01*
X103550930Y-96940166D01*
X103662734Y-97051970D01*
X103676903Y-97060150D01*
X103687651Y-97070408D01*
X103722557Y-97130934D01*
X103719969Y-97198428D01*
X103664673Y-97368611D01*
X103664673Y-97368614D01*
X103632650Y-97570798D01*
X103632650Y-97775501D01*
X103664672Y-97977684D01*
X103703998Y-98098714D01*
X103727930Y-98172369D01*
X103727931Y-98172371D01*
X103729436Y-98177002D01*
X103728114Y-98177431D01*
X103734914Y-98240664D01*
X103703641Y-98303144D01*
X103643553Y-98338798D01*
X103612884Y-98342650D01*
X100335347Y-98342650D01*
X100268308Y-98322965D01*
X100247666Y-98306331D01*
X95775219Y-93833884D01*
X95741734Y-93772561D01*
X95746718Y-93702869D01*
X95788590Y-93646936D01*
X95806606Y-93635718D01*
X95900702Y-93587774D01*
X95954866Y-93548420D01*
X95954867Y-93548420D01*
X95322559Y-92916112D01*
X95386143Y-92899075D01*
X95500157Y-92833249D01*
X95593249Y-92740157D01*
X95659075Y-92626143D01*
X95676112Y-92562559D01*
X96308420Y-93194867D01*
X96308420Y-93194866D01*
X96347772Y-93140704D01*
X96444245Y-92951367D01*
X96509907Y-92749280D01*
X96509907Y-92749277D01*
X96543150Y-92539396D01*
X96543150Y-92326903D01*
X96509907Y-92117022D01*
X96509907Y-92117019D01*
X96447831Y-91925968D01*
X96445836Y-91856127D01*
X96481916Y-91796294D01*
X96544617Y-91765466D01*
X96565762Y-91763650D01*
X98323053Y-91763650D01*
X98390092Y-91783335D01*
G37*
%TD.AperFunction*%
%TA.AperFunction,Conductor*%
G36*
X103438391Y-90513335D02*
G01*
X103459033Y-90529969D01*
X103462734Y-90533670D01*
X103549545Y-90583789D01*
X103549547Y-90583791D01*
X103583810Y-90603573D01*
X103599665Y-90612727D01*
X103730498Y-90647783D01*
X103790159Y-90684148D01*
X103808888Y-90711261D01*
X103820860Y-90734757D01*
X103820862Y-90734760D01*
X103941178Y-90900363D01*
X104085936Y-91045121D01*
X104240899Y-91157706D01*
X104251540Y-91165437D01*
X104323574Y-91202140D01*
X104344779Y-91212945D01*
X104395575Y-91260920D01*
X104412370Y-91328741D01*
X104389832Y-91394876D01*
X104344779Y-91433915D01*
X104251800Y-91481290D01*
X104086255Y-91601567D01*
X104086254Y-91601567D01*
X103941567Y-91746254D01*
X103941567Y-91746255D01*
X103821290Y-91911800D01*
X103728394Y-92094120D01*
X103665159Y-92288736D01*
X103656541Y-92343150D01*
X104757872Y-92343150D01*
X104713817Y-92419456D01*
X104683150Y-92533906D01*
X104683150Y-92652394D01*
X104713817Y-92766844D01*
X104757872Y-92843150D01*
X103656541Y-92843150D01*
X103665159Y-92897563D01*
X103728394Y-93092179D01*
X103821290Y-93274499D01*
X103941567Y-93440044D01*
X103941567Y-93440045D01*
X104086254Y-93584732D01*
X104251802Y-93705011D01*
X104344778Y-93752384D01*
X104395575Y-93800358D01*
X104412370Y-93868179D01*
X104389833Y-93934314D01*
X104344780Y-93973353D01*
X104251538Y-94020863D01*
X104085936Y-94141178D01*
X103941178Y-94285936D01*
X103820865Y-94451536D01*
X103727931Y-94633926D01*
X103664672Y-94828615D01*
X103632648Y-95030806D01*
X103632402Y-95033936D01*
X103631976Y-95035052D01*
X103631888Y-95035610D01*
X103631770Y-95035591D01*
X103607509Y-95099221D01*
X103551272Y-95140684D01*
X103481545Y-95145160D01*
X103421105Y-95111870D01*
X99110740Y-90801505D01*
X99103671Y-90794436D01*
X99103670Y-90794434D01*
X99014564Y-90705328D01*
X98989306Y-90659069D01*
X98981082Y-90644008D01*
X98983470Y-90610623D01*
X98986066Y-90574316D01*
X99027938Y-90518382D01*
X99075618Y-90500598D01*
X99093402Y-90493966D01*
X99102248Y-90493650D01*
X103371352Y-90493650D01*
X103438391Y-90513335D01*
G37*
%TD.AperFunction*%
%TA.AperFunction,Conductor*%
G36*
X145635689Y-65953335D02*
G01*
X145681444Y-66006139D01*
X145692650Y-66057650D01*
X145692650Y-125808650D01*
X145672965Y-125875689D01*
X145620161Y-125921444D01*
X145568650Y-125932650D01*
X84817650Y-125932650D01*
X84750611Y-125912965D01*
X84704856Y-125860161D01*
X84693650Y-125808650D01*
X84693650Y-115385285D01*
X89392650Y-115385285D01*
X89392650Y-117481020D01*
X89392651Y-117481026D01*
X89399058Y-117540633D01*
X89449352Y-117675478D01*
X89449356Y-117675485D01*
X89535602Y-117790694D01*
X89535605Y-117790697D01*
X89650814Y-117876943D01*
X89650821Y-117876947D01*
X89785667Y-117927241D01*
X89785666Y-117927241D01*
X89792594Y-117927985D01*
X89845277Y-117933650D01*
X91941022Y-117933649D01*
X92000633Y-117927241D01*
X92135481Y-117876946D01*
X92250696Y-117790696D01*
X92336946Y-117675481D01*
X92387241Y-117540633D01*
X92393650Y-117481023D01*
X92393649Y-117083360D01*
X92397030Y-117071842D01*
X92395890Y-117059895D01*
X92406690Y-117038943D01*
X92413333Y-117016322D01*
X92423205Y-117006908D01*
X92427905Y-116997792D01*
X92455641Y-116975978D01*
X92476754Y-116963789D01*
X92563566Y-116913670D01*
X92675370Y-116801866D01*
X92675370Y-116801864D01*
X92685578Y-116791657D01*
X92685579Y-116791654D01*
X93162182Y-116315052D01*
X96992650Y-116315052D01*
X96992650Y-116551247D01*
X97029596Y-116784518D01*
X97102583Y-117009146D01*
X97209807Y-117219583D01*
X97348633Y-117410660D01*
X97515640Y-117577667D01*
X97706717Y-117716493D01*
X97806141Y-117767152D01*
X97917153Y-117823716D01*
X97917155Y-117823716D01*
X97917158Y-117823718D01*
X98037562Y-117862839D01*
X98141781Y-117896703D01*
X98375053Y-117933650D01*
X98375058Y-117933650D01*
X98611247Y-117933650D01*
X98844518Y-117896703D01*
X99069142Y-117823718D01*
X99279583Y-117716493D01*
X99470660Y-117577667D01*
X99637667Y-117410660D01*
X99776493Y-117219583D01*
X99836733Y-117101354D01*
X99884708Y-117050559D01*
X99947218Y-117033650D01*
X104444753Y-117033650D01*
X104511792Y-117053335D01*
X104532434Y-117069969D01*
X108933433Y-121470969D01*
X108966918Y-121532292D01*
X108961934Y-121601984D01*
X108920062Y-121657917D01*
X108854598Y-121682334D01*
X108845752Y-121682650D01*
X108822142Y-121682650D01*
X108624030Y-121722057D01*
X108624018Y-121722060D01*
X108542811Y-121755697D01*
X108473341Y-121763166D01*
X108428290Y-121743555D01*
X108428022Y-121744047D01*
X108422524Y-121741044D01*
X108421045Y-121740401D01*
X108420236Y-121739795D01*
X108285529Y-121689553D01*
X108285522Y-121689551D01*
X108225994Y-121683150D01*
X107903150Y-121683150D01*
X107903150Y-122567284D01*
X107900767Y-122591476D01*
X107897650Y-122607145D01*
X107897650Y-122647320D01*
X107883405Y-122633075D01*
X107797895Y-122583706D01*
X107702520Y-122558150D01*
X107603780Y-122558150D01*
X107508405Y-122583706D01*
X107422895Y-122633075D01*
X107403150Y-122652820D01*
X107403150Y-121683150D01*
X107080305Y-121683150D01*
X107020777Y-121689551D01*
X107020770Y-121689553D01*
X106886063Y-121739795D01*
X106886056Y-121739799D01*
X106770962Y-121825959D01*
X106770959Y-121825962D01*
X106684799Y-121941056D01*
X106684795Y-121941063D01*
X106634553Y-122075770D01*
X106634551Y-122075777D01*
X106628150Y-122135305D01*
X106628150Y-122683150D01*
X107372820Y-122683150D01*
X107353075Y-122702895D01*
X107303706Y-122788405D01*
X107278150Y-122883780D01*
X107278150Y-122982520D01*
X107303706Y-123077895D01*
X107353075Y-123163405D01*
X107372820Y-123183150D01*
X106628150Y-123183150D01*
X106628150Y-123730994D01*
X106634551Y-123790522D01*
X106634553Y-123790529D01*
X106684795Y-123925236D01*
X106684799Y-123925243D01*
X106770959Y-124040337D01*
X106770962Y-124040340D01*
X106886056Y-124126500D01*
X106886063Y-124126504D01*
X107020770Y-124176746D01*
X107020777Y-124176748D01*
X107080305Y-124183149D01*
X107080322Y-124183150D01*
X107403150Y-124183150D01*
X107403150Y-123213480D01*
X107422895Y-123233225D01*
X107508405Y-123282594D01*
X107603780Y-123308150D01*
X107702520Y-123308150D01*
X107797895Y-123282594D01*
X107883405Y-123233225D01*
X107897650Y-123218980D01*
X107897650Y-123259152D01*
X107900767Y-123274821D01*
X107903150Y-123299015D01*
X107903150Y-124183150D01*
X108225978Y-124183150D01*
X108225994Y-124183149D01*
X108285522Y-124176748D01*
X108285526Y-124176747D01*
X108420239Y-124126502D01*
X108421046Y-124125898D01*
X108421995Y-124125543D01*
X108428026Y-124122251D01*
X108428499Y-124123117D01*
X108486510Y-124101479D01*
X108542811Y-124110601D01*
X108624023Y-124144241D01*
X108787438Y-124176746D01*
X108822142Y-124183649D01*
X108822146Y-124183650D01*
X108822147Y-124183650D01*
X109024154Y-124183650D01*
X109024155Y-124183649D01*
X109222277Y-124144241D01*
X109408906Y-124066936D01*
X109489260Y-124013244D01*
X109555936Y-123992367D01*
X109623316Y-124010851D01*
X109627015Y-124013228D01*
X109707394Y-124066936D01*
X109894023Y-124144241D01*
X110057438Y-124176746D01*
X110092142Y-124183649D01*
X110092146Y-124183650D01*
X110092147Y-124183650D01*
X110294154Y-124183650D01*
X110294155Y-124183649D01*
X110492277Y-124144241D01*
X110678906Y-124066936D01*
X110846868Y-123954708D01*
X110989708Y-123811868D01*
X111101936Y-123643906D01*
X111179241Y-123457277D01*
X111218650Y-123259153D01*
X111218650Y-122607147D01*
X111179241Y-122409023D01*
X111101936Y-122222394D01*
X111101934Y-122222391D01*
X111101932Y-122222387D01*
X110989708Y-122054431D01*
X110846875Y-121911598D01*
X110842166Y-121907734D01*
X110843309Y-121906340D01*
X110803946Y-121859222D01*
X110793651Y-121809754D01*
X110793651Y-121802394D01*
X110783140Y-121763166D01*
X110752727Y-121649666D01*
X110684962Y-121532292D01*
X110673674Y-121512740D01*
X110673668Y-121512732D01*
X109422629Y-120261693D01*
X131947649Y-120261693D01*
X131986097Y-120454979D01*
X131986100Y-120454989D01*
X132061514Y-120637057D01*
X132061521Y-120637070D01*
X132171010Y-120800931D01*
X132171013Y-120800935D01*
X132310364Y-120940286D01*
X132310368Y-120940289D01*
X132474229Y-121049778D01*
X132474242Y-121049785D01*
X132656310Y-121125199D01*
X132656315Y-121125201D01*
X132656319Y-121125201D01*
X132656320Y-121125202D01*
X132849606Y-121163650D01*
X132849609Y-121163650D01*
X133046693Y-121163650D01*
X133176732Y-121137782D01*
X133239985Y-121125201D01*
X133409846Y-121054842D01*
X133479314Y-121047374D01*
X133541793Y-121078649D01*
X133577445Y-121138738D01*
X133574951Y-121208563D01*
X133544978Y-121257085D01*
X133135733Y-121666331D01*
X133074410Y-121699816D01*
X133048052Y-121702650D01*
X132849607Y-121702650D01*
X132656320Y-121741097D01*
X132656310Y-121741100D01*
X132474242Y-121816514D01*
X132474229Y-121816521D01*
X132310368Y-121926010D01*
X132310364Y-121926013D01*
X132171013Y-122065364D01*
X132171010Y-122065368D01*
X132061521Y-122229229D01*
X132061514Y-122229242D01*
X131986100Y-122411310D01*
X131986097Y-122411320D01*
X131947650Y-122604606D01*
X131947650Y-122604609D01*
X131947650Y-122801691D01*
X131947650Y-122801693D01*
X131947649Y-122801693D01*
X131986097Y-122994979D01*
X131986100Y-122994989D01*
X132061514Y-123177057D01*
X132061521Y-123177070D01*
X132171010Y-123340931D01*
X132171013Y-123340935D01*
X132310364Y-123480286D01*
X132310368Y-123480289D01*
X132474229Y-123589778D01*
X132474242Y-123589785D01*
X132604918Y-123643912D01*
X132656315Y-123665201D01*
X132656319Y-123665201D01*
X132656320Y-123665202D01*
X132849606Y-123703650D01*
X132849609Y-123703650D01*
X133046693Y-123703650D01*
X133176732Y-123677782D01*
X133239985Y-123665201D01*
X133422064Y-123589782D01*
X133585932Y-123480289D01*
X133725289Y-123340932D01*
X133834782Y-123177064D01*
X133910201Y-122994985D01*
X133948650Y-122801691D01*
X133948650Y-122604609D01*
X133948650Y-122603246D01*
X133968335Y-122536207D01*
X133984969Y-122515565D01*
X134778475Y-121722060D01*
X136354337Y-120146198D01*
X137236167Y-119264369D01*
X137297490Y-119230884D01*
X137323848Y-119228050D01*
X138983384Y-119228050D01*
X139050423Y-119247735D01*
X139052275Y-119248948D01*
X139183964Y-119336940D01*
X139183977Y-119336947D01*
X139302430Y-119386011D01*
X139329653Y-119397287D01*
X139484303Y-119428049D01*
X139484306Y-119428050D01*
X139484308Y-119428050D01*
X139641994Y-119428050D01*
X139641995Y-119428049D01*
X139796647Y-119397287D01*
X139942329Y-119336944D01*
X140073439Y-119249339D01*
X140184939Y-119137839D01*
X140272544Y-119006729D01*
X140332887Y-118861047D01*
X140363650Y-118706392D01*
X140363650Y-118548708D01*
X140363650Y-118548705D01*
X140363649Y-118548703D01*
X140332888Y-118394060D01*
X140332887Y-118394053D01*
X140332885Y-118394048D01*
X140272547Y-118248377D01*
X140272540Y-118248364D01*
X140184939Y-118117261D01*
X140184936Y-118117257D01*
X140073442Y-118005763D01*
X140073438Y-118005760D01*
X139942335Y-117918159D01*
X139942322Y-117918152D01*
X139796651Y-117857814D01*
X139796639Y-117857811D01*
X139641995Y-117827050D01*
X139641992Y-117827050D01*
X139484308Y-117827050D01*
X139484305Y-117827050D01*
X139329660Y-117857811D01*
X139329648Y-117857814D01*
X139183977Y-117918152D01*
X139183964Y-117918159D01*
X139052275Y-118006152D01*
X138985597Y-118027030D01*
X138983384Y-118027050D01*
X137110420Y-118027050D01*
X137110404Y-118027049D01*
X137102808Y-118027049D01*
X136944693Y-118027049D01*
X136791965Y-118067973D01*
X136706603Y-118117257D01*
X136655031Y-118147032D01*
X134042085Y-120759978D01*
X133980762Y-120793463D01*
X133911070Y-120788479D01*
X133855137Y-120746607D01*
X133830720Y-120681143D01*
X133839842Y-120624846D01*
X133910201Y-120454985D01*
X133948650Y-120261691D01*
X133948650Y-120064609D01*
X133948650Y-120064606D01*
X133910202Y-119871320D01*
X133910201Y-119871319D01*
X133910201Y-119871315D01*
X133910199Y-119871310D01*
X133834785Y-119689242D01*
X133834778Y-119689229D01*
X133725289Y-119525368D01*
X133725286Y-119525364D01*
X133585935Y-119386013D01*
X133585931Y-119386010D01*
X133422070Y-119276521D01*
X133422057Y-119276514D01*
X133239989Y-119201100D01*
X133239979Y-119201097D01*
X133046693Y-119162650D01*
X133046691Y-119162650D01*
X132849609Y-119162650D01*
X132849607Y-119162650D01*
X132656320Y-119201097D01*
X132656310Y-119201100D01*
X132474242Y-119276514D01*
X132474229Y-119276521D01*
X132310368Y-119386010D01*
X132310364Y-119386013D01*
X132171013Y-119525364D01*
X132171010Y-119525368D01*
X132061521Y-119689229D01*
X132061514Y-119689242D01*
X131986100Y-119871310D01*
X131986097Y-119871320D01*
X131947650Y-120064606D01*
X131947650Y-120064609D01*
X131947650Y-120261691D01*
X131947650Y-120261693D01*
X131947649Y-120261693D01*
X109422629Y-120261693D01*
X109307134Y-120146198D01*
X105232440Y-116071505D01*
X105232438Y-116071502D01*
X105113567Y-115952631D01*
X105113566Y-115952630D01*
X105026754Y-115902510D01*
X105026754Y-115902509D01*
X105026750Y-115902508D01*
X104976635Y-115873573D01*
X104823907Y-115832649D01*
X104665793Y-115832649D01*
X104658197Y-115832649D01*
X104658181Y-115832650D01*
X99947218Y-115832650D01*
X99880179Y-115812965D01*
X99836733Y-115764945D01*
X99776493Y-115646717D01*
X99637667Y-115455640D01*
X99470660Y-115288633D01*
X99279583Y-115149807D01*
X99069146Y-115042583D01*
X98844518Y-114969596D01*
X98611247Y-114932650D01*
X98611242Y-114932650D01*
X98375058Y-114932650D01*
X98375053Y-114932650D01*
X98141781Y-114969596D01*
X97917153Y-115042583D01*
X97706716Y-115149807D01*
X97650266Y-115190821D01*
X97515640Y-115288633D01*
X97515638Y-115288635D01*
X97515637Y-115288635D01*
X97348635Y-115455637D01*
X97348635Y-115455638D01*
X97348633Y-115455640D01*
X97289012Y-115537700D01*
X97209807Y-115646716D01*
X97102583Y-115857153D01*
X97029596Y-116081781D01*
X96992650Y-116315052D01*
X93162182Y-116315052D01*
X94921667Y-114555569D01*
X94982990Y-114522084D01*
X95009348Y-114519250D01*
X133979753Y-114519250D01*
X134046792Y-114538935D01*
X134067434Y-114555569D01*
X134843375Y-115331510D01*
X134876860Y-115392833D01*
X134877311Y-115394999D01*
X134908211Y-115550341D01*
X134908214Y-115550351D01*
X134968552Y-115696022D01*
X134968559Y-115696035D01*
X135056160Y-115827138D01*
X135056163Y-115827142D01*
X135167657Y-115938636D01*
X135167661Y-115938639D01*
X135298764Y-116026240D01*
X135298777Y-116026247D01*
X135444448Y-116086585D01*
X135444453Y-116086587D01*
X135599103Y-116117349D01*
X135599106Y-116117350D01*
X135599108Y-116117350D01*
X135756794Y-116117350D01*
X135756795Y-116117349D01*
X135911447Y-116086587D01*
X136057129Y-116026244D01*
X136188239Y-115938639D01*
X136299739Y-115827139D01*
X136387344Y-115696029D01*
X136447687Y-115550347D01*
X136478450Y-115395692D01*
X136478450Y-115238008D01*
X136478450Y-115238005D01*
X136478449Y-115238003D01*
X136469062Y-115190814D01*
X136447687Y-115083353D01*
X136444477Y-115075604D01*
X136387347Y-114937677D01*
X136387340Y-114937664D01*
X136299739Y-114806561D01*
X136299736Y-114806557D01*
X136188242Y-114695063D01*
X136188238Y-114695060D01*
X136057135Y-114607459D01*
X136057122Y-114607452D01*
X135911451Y-114547114D01*
X135911441Y-114547111D01*
X135756099Y-114516211D01*
X135694188Y-114483826D01*
X135692610Y-114482275D01*
X134916669Y-113706334D01*
X134883184Y-113645011D01*
X134880350Y-113618653D01*
X134880350Y-107732703D01*
X134900035Y-107665664D01*
X134952839Y-107619909D01*
X135021997Y-107609965D01*
X135028519Y-107611081D01*
X135037408Y-107612850D01*
X135037409Y-107612850D01*
X135195094Y-107612850D01*
X135195095Y-107612849D01*
X135349747Y-107582087D01*
X135462416Y-107535417D01*
X135495422Y-107521747D01*
X135495422Y-107521746D01*
X135495429Y-107521744D01*
X135495435Y-107521740D01*
X135627125Y-107433748D01*
X135693803Y-107412870D01*
X135696016Y-107412850D01*
X137108853Y-107412850D01*
X137175892Y-107432535D01*
X137196534Y-107449169D01*
X139988575Y-110241210D01*
X140022060Y-110302533D01*
X140022511Y-110304699D01*
X140053411Y-110460041D01*
X140053414Y-110460051D01*
X140113752Y-110605722D01*
X140113759Y-110605735D01*
X140201360Y-110736838D01*
X140201363Y-110736842D01*
X140204061Y-110739540D01*
X140205022Y-110741301D01*
X140205226Y-110741549D01*
X140205179Y-110741587D01*
X140237546Y-110800863D01*
X140232562Y-110870555D01*
X140204061Y-110914902D01*
X139770434Y-111348531D01*
X139709111Y-111382016D01*
X139682753Y-111384850D01*
X137185416Y-111384850D01*
X137118377Y-111365165D01*
X137116525Y-111363952D01*
X136984835Y-111275959D01*
X136984822Y-111275952D01*
X136839151Y-111215614D01*
X136839139Y-111215611D01*
X136684495Y-111184850D01*
X136684492Y-111184850D01*
X136526808Y-111184850D01*
X136526805Y-111184850D01*
X136372160Y-111215611D01*
X136372148Y-111215614D01*
X136226477Y-111275952D01*
X136226464Y-111275959D01*
X136095361Y-111363560D01*
X136095357Y-111363563D01*
X135983863Y-111475057D01*
X135983860Y-111475061D01*
X135896259Y-111606164D01*
X135896252Y-111606177D01*
X135835914Y-111751848D01*
X135835911Y-111751860D01*
X135805150Y-111906503D01*
X135805150Y-112064196D01*
X135835911Y-112218839D01*
X135835914Y-112218851D01*
X135896252Y-112364522D01*
X135896259Y-112364535D01*
X135983860Y-112495638D01*
X135983863Y-112495642D01*
X136095357Y-112607136D01*
X136095361Y-112607139D01*
X136226464Y-112694740D01*
X136226477Y-112694747D01*
X136372148Y-112755085D01*
X136372153Y-112755087D01*
X136526803Y-112785849D01*
X136526806Y-112785850D01*
X136526808Y-112785850D01*
X136684494Y-112785850D01*
X136684495Y-112785849D01*
X136839147Y-112755087D01*
X136984829Y-112694744D01*
X136984835Y-112694740D01*
X137116525Y-112606748D01*
X137183203Y-112585870D01*
X137185416Y-112585850D01*
X139896181Y-112585850D01*
X139896197Y-112585851D01*
X139903793Y-112585851D01*
X140061904Y-112585851D01*
X140061907Y-112585851D01*
X140214635Y-112544927D01*
X140264754Y-112515989D01*
X140351566Y-112465870D01*
X140463370Y-112354066D01*
X140463370Y-112354064D01*
X140473578Y-112343857D01*
X140473580Y-112343854D01*
X141787553Y-111029881D01*
X141788160Y-111029275D01*
X141788162Y-111029273D01*
X141788227Y-111029209D01*
X141818456Y-111012724D01*
X141819521Y-111012143D01*
X141817777Y-111008655D01*
X141817785Y-111008651D01*
X141819528Y-111012138D01*
X141849477Y-110995779D01*
X141849533Y-110995778D01*
X141849569Y-110995759D01*
X141849805Y-110995776D01*
X141900049Y-110995323D01*
X142014303Y-111018049D01*
X142014306Y-111018050D01*
X142014308Y-111018050D01*
X142171994Y-111018050D01*
X142171995Y-111018049D01*
X142326647Y-110987287D01*
X142472329Y-110926944D01*
X142603439Y-110839339D01*
X142714939Y-110727839D01*
X142802544Y-110596729D01*
X142862887Y-110451047D01*
X142893650Y-110296392D01*
X142893650Y-110138708D01*
X142893650Y-110138705D01*
X142893649Y-110138703D01*
X142862888Y-109984060D01*
X142862887Y-109984053D01*
X142862885Y-109984048D01*
X142802547Y-109838377D01*
X142802540Y-109838364D01*
X142714548Y-109706675D01*
X142708897Y-109688628D01*
X142698673Y-109672719D01*
X142694221Y-109641757D01*
X142693670Y-109639997D01*
X142693650Y-109637784D01*
X142693650Y-109529810D01*
X142693651Y-109529797D01*
X142693651Y-109361694D01*
X142693651Y-109361693D01*
X142652727Y-109208966D01*
X142652723Y-109208959D01*
X142573674Y-109072040D01*
X142573668Y-109072032D01*
X137414301Y-103912665D01*
X132250839Y-98749204D01*
X132250838Y-98749202D01*
X132131967Y-98630331D01*
X132131966Y-98630330D01*
X132111987Y-98618795D01*
X132054534Y-98585625D01*
X132054531Y-98585624D01*
X132045154Y-98580210D01*
X131995035Y-98551273D01*
X131863458Y-98516016D01*
X131858362Y-98514160D01*
X131834433Y-98496531D01*
X131809052Y-98481060D01*
X131806609Y-98476032D01*
X131802110Y-98472717D01*
X131791510Y-98444948D01*
X131778523Y-98418213D01*
X131779186Y-98412663D01*
X131777193Y-98407441D01*
X131783289Y-98378347D01*
X131786818Y-98348837D01*
X131790376Y-98344527D01*
X131791523Y-98339056D01*
X131812378Y-98317878D01*
X131831303Y-98294959D01*
X131836627Y-98293257D01*
X131840549Y-98289275D01*
X131869540Y-98282735D01*
X131897855Y-98273685D01*
X131900806Y-98273650D01*
X134998953Y-98273650D01*
X135065992Y-98293335D01*
X135086634Y-98309969D01*
X140988575Y-104211910D01*
X141022060Y-104273233D01*
X141022511Y-104275399D01*
X141053411Y-104430741D01*
X141053414Y-104430751D01*
X141113752Y-104576422D01*
X141113759Y-104576435D01*
X141201360Y-104707538D01*
X141201363Y-104707542D01*
X141312857Y-104819036D01*
X141312861Y-104819039D01*
X141443964Y-104906640D01*
X141443977Y-104906647D01*
X141589648Y-104966985D01*
X141589653Y-104966987D01*
X141698384Y-104988615D01*
X141744303Y-104997749D01*
X141744306Y-104997750D01*
X141744308Y-104997750D01*
X141901994Y-104997750D01*
X141901995Y-104997749D01*
X142056647Y-104966987D01*
X142202329Y-104906644D01*
X142333439Y-104819039D01*
X142444939Y-104707539D01*
X142532544Y-104576429D01*
X142592887Y-104430747D01*
X142623650Y-104276092D01*
X142623650Y-104118408D01*
X142623650Y-104118405D01*
X142623649Y-104118403D01*
X142618913Y-104094596D01*
X142592887Y-103963753D01*
X142584288Y-103942992D01*
X142532547Y-103818077D01*
X142532540Y-103818064D01*
X142444939Y-103686961D01*
X142444936Y-103686957D01*
X142333442Y-103575463D01*
X142333438Y-103575460D01*
X142202335Y-103487859D01*
X142202322Y-103487852D01*
X142056651Y-103427514D01*
X142056641Y-103427511D01*
X141901301Y-103396612D01*
X141839391Y-103364227D01*
X141837812Y-103362676D01*
X135786640Y-97311505D01*
X135786638Y-97311502D01*
X135667767Y-97192631D01*
X135667766Y-97192630D01*
X135580954Y-97142510D01*
X135580954Y-97142509D01*
X135580950Y-97142508D01*
X135530835Y-97113573D01*
X135378107Y-97072649D01*
X135219993Y-97072649D01*
X135212397Y-97072649D01*
X135212381Y-97072650D01*
X129422752Y-97072650D01*
X129355713Y-97052965D01*
X129312267Y-97004945D01*
X129305434Y-96991535D01*
X129185121Y-96825936D01*
X129040363Y-96681178D01*
X128874764Y-96560865D01*
X128868156Y-96557498D01*
X128782067Y-96513633D01*
X128731273Y-96465661D01*
X128714478Y-96397840D01*
X128737015Y-96331705D01*
X128782067Y-96292666D01*
X128874760Y-96245437D01*
X128895920Y-96230063D01*
X129040363Y-96125121D01*
X129040365Y-96125118D01*
X129040369Y-96125116D01*
X129185116Y-95980369D01*
X129185118Y-95980365D01*
X129185121Y-95980363D01*
X129237882Y-95907740D01*
X129305437Y-95814760D01*
X129398370Y-95632369D01*
X129461627Y-95437684D01*
X129493650Y-95235502D01*
X129493650Y-95030798D01*
X129461627Y-94828616D01*
X129398370Y-94633931D01*
X129398368Y-94633928D01*
X129398368Y-94633926D01*
X129364653Y-94567757D01*
X129305437Y-94451540D01*
X129297706Y-94440899D01*
X129185121Y-94285936D01*
X129040363Y-94141178D01*
X128874764Y-94020865D01*
X128868156Y-94017498D01*
X128782067Y-93973633D01*
X128731273Y-93925661D01*
X128714478Y-93857840D01*
X128737015Y-93791705D01*
X128782067Y-93752666D01*
X128874760Y-93705437D01*
X128895920Y-93690063D01*
X129040363Y-93585121D01*
X129040365Y-93585118D01*
X129040369Y-93585116D01*
X129185116Y-93440369D01*
X129305437Y-93274760D01*
X129305439Y-93274754D01*
X129305443Y-93274750D01*
X129305681Y-93274362D01*
X129305809Y-93274245D01*
X129308300Y-93270818D01*
X129309019Y-93271341D01*
X129357492Y-93227486D01*
X129411409Y-93215150D01*
X135593184Y-93215150D01*
X135660223Y-93234835D01*
X135662075Y-93236048D01*
X135793764Y-93324040D01*
X135793777Y-93324047D01*
X135939448Y-93384385D01*
X135939453Y-93384387D01*
X136094103Y-93415149D01*
X136094106Y-93415150D01*
X136094108Y-93415150D01*
X136251794Y-93415150D01*
X136251795Y-93415149D01*
X136406447Y-93384387D01*
X136552129Y-93324044D01*
X136683239Y-93236439D01*
X136794739Y-93124939D01*
X136882344Y-92993829D01*
X136942687Y-92848147D01*
X136973450Y-92693492D01*
X136973450Y-92535808D01*
X136973450Y-92535805D01*
X136973449Y-92535803D01*
X136942688Y-92381160D01*
X136942687Y-92381153D01*
X136915515Y-92315553D01*
X136882347Y-92235477D01*
X136882340Y-92235464D01*
X136794739Y-92104361D01*
X136794736Y-92104357D01*
X136683242Y-91992863D01*
X136683238Y-91992860D01*
X136552135Y-91905259D01*
X136552122Y-91905252D01*
X136406451Y-91844914D01*
X136406439Y-91844911D01*
X136251795Y-91814150D01*
X136251792Y-91814150D01*
X136094108Y-91814150D01*
X136094105Y-91814150D01*
X135939460Y-91844911D01*
X135939448Y-91844914D01*
X135793777Y-91905252D01*
X135793764Y-91905259D01*
X135662075Y-91993252D01*
X135595397Y-92014130D01*
X135593184Y-92014150D01*
X129470475Y-92014150D01*
X129438381Y-92009925D01*
X129395799Y-91998515D01*
X129336139Y-91962150D01*
X129317408Y-91935034D01*
X129305436Y-91911538D01*
X129185121Y-91745936D01*
X129040363Y-91601178D01*
X128874764Y-91480865D01*
X128868156Y-91477498D01*
X128782067Y-91433633D01*
X128731273Y-91385661D01*
X128714478Y-91317840D01*
X128737015Y-91251705D01*
X128782067Y-91212666D01*
X128874760Y-91165437D01*
X128895920Y-91150063D01*
X129040363Y-91045121D01*
X129040365Y-91045118D01*
X129040369Y-91045116D01*
X129185116Y-90900369D01*
X129185118Y-90900365D01*
X129185121Y-90900363D01*
X129262080Y-90794436D01*
X129305437Y-90734760D01*
X129398370Y-90552369D01*
X129461627Y-90357684D01*
X129493650Y-90155502D01*
X129493650Y-89950798D01*
X129461627Y-89748616D01*
X129398370Y-89553931D01*
X129398368Y-89553928D01*
X129398368Y-89553926D01*
X129364653Y-89487757D01*
X129305437Y-89371540D01*
X129297706Y-89360899D01*
X129185121Y-89205936D01*
X129040363Y-89061178D01*
X128874763Y-88940865D01*
X128874762Y-88940864D01*
X128874760Y-88940863D01*
X128817803Y-88911841D01*
X128692373Y-88847931D01*
X128497684Y-88784672D01*
X128323145Y-88757028D01*
X128295502Y-88752650D01*
X127690798Y-88752650D01*
X127666479Y-88756501D01*
X127488615Y-88784672D01*
X127293926Y-88847931D01*
X127111536Y-88940865D01*
X126945936Y-89061178D01*
X126801178Y-89205936D01*
X126680865Y-89371536D01*
X126587931Y-89553926D01*
X126524672Y-89748615D01*
X126492650Y-89950798D01*
X126492650Y-90155501D01*
X126524672Y-90357684D01*
X126587931Y-90552373D01*
X126628764Y-90632510D01*
X126680861Y-90734757D01*
X126680865Y-90734763D01*
X126801178Y-90900363D01*
X126945936Y-91045121D01*
X127100899Y-91157706D01*
X127111540Y-91165437D01*
X127202990Y-91212033D01*
X127204230Y-91212665D01*
X127255026Y-91260640D01*
X127271821Y-91328461D01*
X127249284Y-91394596D01*
X127204230Y-91433635D01*
X127111536Y-91480865D01*
X126945936Y-91601178D01*
X126801178Y-91745936D01*
X126680865Y-91911536D01*
X126587931Y-92093926D01*
X126524672Y-92288615D01*
X126492650Y-92490798D01*
X126492650Y-92695502D01*
X126497028Y-92723145D01*
X126524672Y-92897684D01*
X126587931Y-93092373D01*
X126640155Y-93194866D01*
X126680660Y-93274362D01*
X126680865Y-93274763D01*
X126801178Y-93440363D01*
X126945936Y-93585121D01*
X127100899Y-93697706D01*
X127111540Y-93705437D01*
X127202990Y-93752033D01*
X127204230Y-93752665D01*
X127255026Y-93800640D01*
X127271821Y-93868461D01*
X127249284Y-93934596D01*
X127204230Y-93973635D01*
X127111536Y-94020865D01*
X126945936Y-94141178D01*
X126801178Y-94285936D01*
X126680865Y-94451536D01*
X126587931Y-94633926D01*
X126524672Y-94828615D01*
X126492650Y-95030798D01*
X126492650Y-95235501D01*
X126524672Y-95437684D01*
X126587931Y-95632373D01*
X126680865Y-95814763D01*
X126801178Y-95980363D01*
X126945936Y-96125121D01*
X127100899Y-96237706D01*
X127111540Y-96245437D01*
X127202990Y-96292033D01*
X127204230Y-96292665D01*
X127255026Y-96340640D01*
X127271821Y-96408461D01*
X127249284Y-96474596D01*
X127204230Y-96513635D01*
X127111536Y-96560865D01*
X126945936Y-96681178D01*
X126801178Y-96825936D01*
X126680865Y-96991536D01*
X126587931Y-97173926D01*
X126524672Y-97368615D01*
X126492650Y-97570798D01*
X126492650Y-97775501D01*
X126524672Y-97977684D01*
X126587931Y-98172373D01*
X126637019Y-98268711D01*
X126676304Y-98345813D01*
X126680865Y-98354763D01*
X126801178Y-98520363D01*
X126847658Y-98566843D01*
X126881143Y-98628166D01*
X126876159Y-98697858D01*
X126847658Y-98742205D01*
X125342230Y-100247633D01*
X125280907Y-100281118D01*
X125211215Y-100276134D01*
X125166868Y-100247633D01*
X107251330Y-82332095D01*
X135932650Y-82332095D01*
X135932650Y-82524204D01*
X135962703Y-82713952D01*
X136022066Y-82896656D01*
X136109149Y-83067565D01*
X136109285Y-83067831D01*
X136222205Y-83223252D01*
X136358048Y-83359095D01*
X136513469Y-83472015D01*
X136621002Y-83526806D01*
X136684643Y-83559233D01*
X136775995Y-83588914D01*
X136867349Y-83618597D01*
X137057095Y-83648650D01*
X137057096Y-83648650D01*
X137249204Y-83648650D01*
X137249205Y-83648650D01*
X137438951Y-83618597D01*
X137621659Y-83559232D01*
X137792831Y-83472015D01*
X137948252Y-83359095D01*
X138084095Y-83223252D01*
X138197015Y-83067831D01*
X138284232Y-82896659D01*
X138284293Y-82896471D01*
X138305219Y-82832069D01*
X138344656Y-82774393D01*
X138409014Y-82747194D01*
X138477861Y-82759108D01*
X138529337Y-82806352D01*
X138541081Y-82832069D01*
X138562065Y-82896654D01*
X138649149Y-83067565D01*
X138649285Y-83067831D01*
X138762205Y-83223252D01*
X138898048Y-83359095D01*
X139053469Y-83472015D01*
X139161002Y-83526806D01*
X139224643Y-83559233D01*
X139315995Y-83588914D01*
X139407349Y-83618597D01*
X139597095Y-83648650D01*
X139597096Y-83648650D01*
X139789204Y-83648650D01*
X139789205Y-83648650D01*
X139978951Y-83618597D01*
X140161659Y-83559232D01*
X140332831Y-83472015D01*
X140488252Y-83359095D01*
X140624095Y-83223252D01*
X140737015Y-83067831D01*
X140824232Y-82896659D01*
X140824293Y-82896471D01*
X140845482Y-82831259D01*
X140884919Y-82773583D01*
X140949277Y-82746384D01*
X141018123Y-82758298D01*
X141069600Y-82805542D01*
X141081344Y-82831257D01*
X141102533Y-82896471D01*
X141189711Y-83067565D01*
X141210948Y-83096796D01*
X141833150Y-82474595D01*
X141833150Y-82480811D01*
X141860409Y-82582544D01*
X141913070Y-82673756D01*
X141987544Y-82748230D01*
X142078756Y-82800891D01*
X142180489Y-82828150D01*
X142186704Y-82828150D01*
X141564501Y-83450350D01*
X141564502Y-83450351D01*
X141593727Y-83471584D01*
X141764828Y-83558766D01*
X141947465Y-83618109D01*
X142137135Y-83648150D01*
X142329165Y-83648150D01*
X142518834Y-83618109D01*
X142701471Y-83558766D01*
X142872569Y-83471586D01*
X142901796Y-83450351D01*
X142901796Y-83450350D01*
X142279597Y-82828150D01*
X142285811Y-82828150D01*
X142387544Y-82800891D01*
X142478756Y-82748230D01*
X142553230Y-82673756D01*
X142605891Y-82582544D01*
X142633150Y-82480811D01*
X142633150Y-82474596D01*
X143255350Y-83096796D01*
X143255351Y-83096796D01*
X143276586Y-83067569D01*
X143363766Y-82896471D01*
X143423109Y-82713834D01*
X143453150Y-82524165D01*
X143453150Y-82332134D01*
X143423109Y-82142465D01*
X143363766Y-81959828D01*
X143276584Y-81788727D01*
X143255351Y-81759502D01*
X143255350Y-81759501D01*
X142633150Y-82381702D01*
X142633150Y-82375489D01*
X142605891Y-82273756D01*
X142553230Y-82182544D01*
X142478756Y-82108070D01*
X142387544Y-82055409D01*
X142285811Y-82028150D01*
X142279597Y-82028150D01*
X142901796Y-81405948D01*
X142872565Y-81384711D01*
X142701471Y-81297533D01*
X142518834Y-81238190D01*
X142329165Y-81208150D01*
X142137135Y-81208150D01*
X141947465Y-81238190D01*
X141764828Y-81297533D01*
X141593728Y-81384714D01*
X141564502Y-81405948D01*
X141564501Y-81405948D01*
X142186704Y-82028150D01*
X142180489Y-82028150D01*
X142078756Y-82055409D01*
X141987544Y-82108070D01*
X141913070Y-82182544D01*
X141860409Y-82273756D01*
X141833150Y-82375489D01*
X141833150Y-82381703D01*
X141210948Y-81759501D01*
X141210948Y-81759502D01*
X141189714Y-81788728D01*
X141102534Y-81959827D01*
X141081344Y-82025043D01*
X141041905Y-82082718D01*
X140977546Y-82109915D01*
X140908700Y-82098000D01*
X140857225Y-82050755D01*
X140845482Y-82025040D01*
X140824234Y-81959645D01*
X140794131Y-81900565D01*
X140737015Y-81788469D01*
X140624095Y-81633048D01*
X140488252Y-81497205D01*
X140332831Y-81384285D01*
X140161656Y-81297066D01*
X139978952Y-81237703D01*
X139850416Y-81217345D01*
X139789205Y-81207650D01*
X139597095Y-81207650D01*
X139535884Y-81217345D01*
X139407347Y-81237703D01*
X139224643Y-81297066D01*
X139053468Y-81384285D01*
X138974655Y-81441547D01*
X138898048Y-81497205D01*
X138898046Y-81497207D01*
X138898045Y-81497207D01*
X138762207Y-81633045D01*
X138762207Y-81633046D01*
X138762205Y-81633048D01*
X138745999Y-81655354D01*
X138649285Y-81788468D01*
X138562066Y-81959643D01*
X138541081Y-82024231D01*
X138501644Y-82081906D01*
X138437285Y-82109105D01*
X138368439Y-82097191D01*
X138316963Y-82049947D01*
X138305219Y-82024231D01*
X138284233Y-81959643D01*
X138254131Y-81900565D01*
X138197015Y-81788469D01*
X138084095Y-81633048D01*
X137948252Y-81497205D01*
X137792831Y-81384285D01*
X137621656Y-81297066D01*
X137438952Y-81237703D01*
X137310416Y-81217345D01*
X137249205Y-81207650D01*
X137057095Y-81207650D01*
X136995884Y-81217345D01*
X136867347Y-81237703D01*
X136684643Y-81297066D01*
X136513468Y-81384285D01*
X136434655Y-81441547D01*
X136358048Y-81497205D01*
X136358046Y-81497207D01*
X136358045Y-81497207D01*
X136222207Y-81633045D01*
X136222207Y-81633046D01*
X136222205Y-81633048D01*
X136205999Y-81655354D01*
X136109285Y-81788468D01*
X136022066Y-81959643D01*
X135962703Y-82142347D01*
X135932650Y-82332095D01*
X107251330Y-82332095D01*
X94026907Y-69107672D01*
X93993422Y-69046349D01*
X93996657Y-68981673D01*
X94010396Y-68939393D01*
X94043650Y-68729437D01*
X94043650Y-68516863D01*
X94010396Y-68306907D01*
X93944707Y-68104738D01*
X93848201Y-67915334D01*
X93848199Y-67915331D01*
X93848198Y-67915329D01*
X93723259Y-67743363D01*
X93572936Y-67593040D01*
X93400970Y-67468101D01*
X93211564Y-67371594D01*
X93211563Y-67371593D01*
X93211562Y-67371593D01*
X93009393Y-67305904D01*
X93009391Y-67305903D01*
X93009390Y-67305903D01*
X92848107Y-67280358D01*
X92799437Y-67272650D01*
X92586863Y-67272650D01*
X92538192Y-67280358D01*
X92376910Y-67305903D01*
X92174735Y-67371594D01*
X91985329Y-67468101D01*
X91813363Y-67593040D01*
X91663040Y-67743363D01*
X91538101Y-67915329D01*
X91441594Y-68104735D01*
X91375903Y-68306910D01*
X91342650Y-68516863D01*
X91342650Y-68729436D01*
X91375903Y-68939389D01*
X91375903Y-68939391D01*
X91375904Y-68939393D01*
X91430581Y-69107672D01*
X91441594Y-69141564D01*
X91538101Y-69330970D01*
X91663040Y-69502936D01*
X91813363Y-69653259D01*
X91985332Y-69778200D01*
X91994096Y-69782666D01*
X92044892Y-69830641D01*
X92061686Y-69898462D01*
X92039148Y-69964597D01*
X91994096Y-70003634D01*
X91985332Y-70008099D01*
X91813363Y-70133040D01*
X91663040Y-70283363D01*
X91538101Y-70455329D01*
X91441594Y-70644735D01*
X91375903Y-70846910D01*
X91342650Y-71056863D01*
X91342650Y-71269436D01*
X91375904Y-71479394D01*
X91375904Y-71479397D01*
X91389641Y-71521673D01*
X91391636Y-71591514D01*
X91359391Y-71647672D01*
X91148536Y-71858528D01*
X91036731Y-71970332D01*
X91036730Y-71970334D01*
X90994810Y-72042942D01*
X90957673Y-72107265D01*
X90916749Y-72259993D01*
X90916749Y-72259995D01*
X90916749Y-72428096D01*
X90916750Y-72428109D01*
X90916750Y-90338480D01*
X90916749Y-90338498D01*
X90916749Y-90504204D01*
X90916748Y-90504204D01*
X90957674Y-90656939D01*
X90958899Y-90659059D01*
X90958905Y-90659069D01*
X91036727Y-90793862D01*
X91036731Y-90793867D01*
X91155599Y-90912735D01*
X91155605Y-90912740D01*
X99550389Y-99307524D01*
X99550399Y-99307535D01*
X99554729Y-99311865D01*
X99554730Y-99311866D01*
X99666534Y-99423670D01*
X99753345Y-99473789D01*
X99753347Y-99473791D01*
X99791401Y-99495761D01*
X99803465Y-99502727D01*
X99956193Y-99543650D01*
X100114307Y-99543650D01*
X103612884Y-99543650D01*
X103679923Y-99563335D01*
X103725678Y-99616139D01*
X103735622Y-99685297D01*
X103729069Y-99709179D01*
X103729436Y-99709298D01*
X103727931Y-99713927D01*
X103727930Y-99713931D01*
X103708190Y-99774684D01*
X103664672Y-99908615D01*
X103632650Y-100110798D01*
X103632650Y-100315501D01*
X103664672Y-100517684D01*
X103727931Y-100712373D01*
X103808581Y-100870655D01*
X103821477Y-100939324D01*
X103795201Y-101004065D01*
X103738094Y-101044322D01*
X103698096Y-101050950D01*
X92665647Y-101050950D01*
X92598608Y-101031265D01*
X92577966Y-101014631D01*
X92340024Y-100776689D01*
X92306539Y-100715366D01*
X92306088Y-100713199D01*
X92275188Y-100557860D01*
X92275187Y-100557853D01*
X92258549Y-100517684D01*
X92214847Y-100412177D01*
X92214840Y-100412164D01*
X92127239Y-100281061D01*
X92127236Y-100281057D01*
X92015742Y-100169563D01*
X92015738Y-100169560D01*
X91884635Y-100081959D01*
X91884622Y-100081952D01*
X91738951Y-100021614D01*
X91738939Y-100021611D01*
X91584295Y-99990850D01*
X91584292Y-99990850D01*
X91426608Y-99990850D01*
X91426605Y-99990850D01*
X91271960Y-100021611D01*
X91271948Y-100021614D01*
X91126277Y-100081952D01*
X91126264Y-100081959D01*
X90995161Y-100169560D01*
X90995157Y-100169563D01*
X90883663Y-100281057D01*
X90883660Y-100281061D01*
X90796059Y-100412164D01*
X90796052Y-100412177D01*
X90735714Y-100557848D01*
X90735711Y-100557860D01*
X90704950Y-100712503D01*
X90704950Y-100870196D01*
X90735711Y-101024839D01*
X90735714Y-101024851D01*
X90796052Y-101170522D01*
X90796059Y-101170535D01*
X90883660Y-101301638D01*
X90883663Y-101301642D01*
X90995157Y-101413136D01*
X90995161Y-101413139D01*
X91126264Y-101500740D01*
X91126277Y-101500747D01*
X91234711Y-101545661D01*
X91271953Y-101561087D01*
X91336597Y-101573945D01*
X91427299Y-101591988D01*
X91489210Y-101624373D01*
X91490789Y-101625924D01*
X91880689Y-102015824D01*
X91880699Y-102015835D01*
X91885029Y-102020165D01*
X91885030Y-102020166D01*
X91996834Y-102131970D01*
X92083645Y-102182089D01*
X92083647Y-102182091D01*
X92121701Y-102204061D01*
X92133765Y-102211027D01*
X92286493Y-102251950D01*
X92444607Y-102251950D01*
X103557902Y-102251950D01*
X103624941Y-102271635D01*
X103670696Y-102324439D01*
X103680640Y-102393597D01*
X103675833Y-102414269D01*
X103664672Y-102448615D01*
X103632650Y-102650798D01*
X103632650Y-102855501D01*
X103664672Y-103057684D01*
X103727931Y-103252373D01*
X103791841Y-103377803D01*
X103817170Y-103427513D01*
X103820865Y-103434763D01*
X103941178Y-103600363D01*
X104085936Y-103745121D01*
X104240899Y-103857706D01*
X104251540Y-103865437D01*
X104338994Y-103909997D01*
X104344230Y-103912665D01*
X104395026Y-103960640D01*
X104411821Y-104028461D01*
X104389284Y-104094596D01*
X104344230Y-104133635D01*
X104251536Y-104180865D01*
X104085936Y-104301178D01*
X103941178Y-104445936D01*
X103820865Y-104611536D01*
X103727931Y-104793926D01*
X103664672Y-104988615D01*
X103632650Y-105190798D01*
X103632650Y-105395501D01*
X103664672Y-105597684D01*
X103727931Y-105792373D01*
X103820865Y-105974763D01*
X103941178Y-106140363D01*
X104085936Y-106285121D01*
X104229399Y-106389351D01*
X104251540Y-106405437D01*
X104342990Y-106452033D01*
X104344230Y-106452665D01*
X104395026Y-106500640D01*
X104411821Y-106568461D01*
X104389284Y-106634596D01*
X104344230Y-106673635D01*
X104251536Y-106720865D01*
X104085936Y-106841178D01*
X103941178Y-106985936D01*
X103820865Y-107151536D01*
X103727931Y-107333926D01*
X103664672Y-107528615D01*
X103632650Y-107730798D01*
X103632650Y-107935501D01*
X103664672Y-108137684D01*
X103727931Y-108332373D01*
X103820865Y-108514763D01*
X103941178Y-108680363D01*
X104085936Y-108825121D01*
X104240899Y-108937706D01*
X104251540Y-108945437D01*
X104367757Y-109004653D01*
X104433926Y-109038368D01*
X104433928Y-109038368D01*
X104433931Y-109038370D01*
X104537532Y-109072032D01*
X104628615Y-109101627D01*
X104729707Y-109117638D01*
X104830798Y-109133650D01*
X104830799Y-109133650D01*
X105435501Y-109133650D01*
X105435502Y-109133650D01*
X105637684Y-109101627D01*
X105832369Y-109038370D01*
X106014760Y-108945437D01*
X106107740Y-108877882D01*
X106180363Y-108825121D01*
X106180365Y-108825118D01*
X106180369Y-108825116D01*
X106325116Y-108680369D01*
X106325118Y-108680365D01*
X106325121Y-108680363D01*
X106377882Y-108607740D01*
X106445437Y-108514760D01*
X106538370Y-108332369D01*
X106601627Y-108137684D01*
X106633650Y-107935502D01*
X106633650Y-107730798D01*
X106614969Y-107612850D01*
X106601627Y-107528615D01*
X106570930Y-107434139D01*
X106538370Y-107333931D01*
X106538368Y-107333928D01*
X106538368Y-107333926D01*
X106483289Y-107225829D01*
X106445437Y-107151540D01*
X106422050Y-107119350D01*
X106325121Y-106985936D01*
X106180363Y-106841178D01*
X106014764Y-106720865D01*
X106008156Y-106717498D01*
X105922067Y-106673633D01*
X105871273Y-106625661D01*
X105854478Y-106557840D01*
X105877015Y-106491705D01*
X105922067Y-106452666D01*
X106014760Y-106405437D01*
X106056020Y-106375460D01*
X106180363Y-106285121D01*
X106180365Y-106285118D01*
X106180369Y-106285116D01*
X106325116Y-106140369D01*
X106325118Y-106140365D01*
X106325121Y-106140363D01*
X106382423Y-106061492D01*
X106445437Y-105974760D01*
X106538370Y-105792369D01*
X106601627Y-105597684D01*
X106633650Y-105395502D01*
X106633650Y-105190798D01*
X106601627Y-104988616D01*
X106594599Y-104966987D01*
X106538368Y-104793926D01*
X106504653Y-104727757D01*
X106445437Y-104611540D01*
X106437706Y-104600899D01*
X106325121Y-104445936D01*
X106180363Y-104301178D01*
X106014764Y-104180865D01*
X106008156Y-104177498D01*
X105922067Y-104133633D01*
X105871273Y-104085661D01*
X105854478Y-104017840D01*
X105877015Y-103951705D01*
X105922067Y-103912666D01*
X106014760Y-103865437D01*
X106079946Y-103818077D01*
X106180363Y-103745121D01*
X106180365Y-103745118D01*
X106180369Y-103745116D01*
X106325116Y-103600369D01*
X106325118Y-103600365D01*
X106325121Y-103600363D01*
X106377882Y-103527740D01*
X106445437Y-103434760D01*
X106538370Y-103252369D01*
X106601627Y-103057684D01*
X106633650Y-102855502D01*
X106633650Y-102650798D01*
X106601627Y-102448616D01*
X106538370Y-102253931D01*
X106538368Y-102253928D01*
X106538368Y-102253926D01*
X106501765Y-102182089D01*
X106445437Y-102071540D01*
X106408110Y-102020163D01*
X106325121Y-101905936D01*
X106180363Y-101761178D01*
X106014764Y-101640865D01*
X106008156Y-101637498D01*
X105922067Y-101593633D01*
X105871273Y-101545661D01*
X105854478Y-101477840D01*
X105877015Y-101411705D01*
X105922067Y-101372666D01*
X106014760Y-101325437D01*
X106047517Y-101301638D01*
X106180363Y-101205121D01*
X106180365Y-101205118D01*
X106180369Y-101205116D01*
X106325116Y-101060369D01*
X106325118Y-101060365D01*
X106325121Y-101060363D01*
X106377882Y-100987740D01*
X106445437Y-100894760D01*
X106538370Y-100712369D01*
X106601627Y-100517684D01*
X106633650Y-100315502D01*
X106633650Y-100291947D01*
X106653335Y-100224908D01*
X106706139Y-100179153D01*
X106775297Y-100169209D01*
X106838853Y-100198234D01*
X106845331Y-100204266D01*
X112298589Y-105657524D01*
X112298599Y-105657535D01*
X112302929Y-105661865D01*
X112302930Y-105661866D01*
X112414734Y-105773670D01*
X112450554Y-105794350D01*
X112501545Y-105823789D01*
X112501547Y-105823791D01*
X112539601Y-105845761D01*
X112551665Y-105852727D01*
X112704393Y-105893650D01*
X126563548Y-105893650D01*
X126630587Y-105913335D01*
X126674033Y-105961355D01*
X126680865Y-105974764D01*
X126801178Y-106140363D01*
X126832413Y-106171598D01*
X126865898Y-106232921D01*
X126860914Y-106302613D01*
X126819042Y-106358546D01*
X126788067Y-106375460D01*
X126750823Y-106389351D01*
X126750814Y-106389356D01*
X126635605Y-106475602D01*
X126635602Y-106475605D01*
X126549356Y-106590814D01*
X126549352Y-106590821D01*
X126499058Y-106725667D01*
X126492651Y-106785266D01*
X126492650Y-106785285D01*
X126492650Y-108881020D01*
X126492651Y-108881026D01*
X126499058Y-108940633D01*
X126549352Y-109075478D01*
X126549356Y-109075485D01*
X126635602Y-109190694D01*
X126635605Y-109190697D01*
X126750814Y-109276943D01*
X126750821Y-109276947D01*
X126885667Y-109327241D01*
X126885666Y-109327241D01*
X126892594Y-109327985D01*
X126945277Y-109333650D01*
X129041022Y-109333649D01*
X129100633Y-109327241D01*
X129235481Y-109276946D01*
X129350696Y-109190696D01*
X129436946Y-109075481D01*
X129487241Y-108940633D01*
X129493650Y-108881023D01*
X129493649Y-107119349D01*
X129513334Y-107052311D01*
X129566137Y-107006556D01*
X129617649Y-106995350D01*
X133392426Y-106995350D01*
X133459465Y-107015035D01*
X133505220Y-107067839D01*
X133507750Y-107074531D01*
X133507782Y-107074519D01*
X133570452Y-107225822D01*
X133570459Y-107225835D01*
X133658452Y-107357524D01*
X133679330Y-107424201D01*
X133679350Y-107426415D01*
X133679350Y-113194250D01*
X133659665Y-113261289D01*
X133606861Y-113307044D01*
X133555350Y-113318250D01*
X127725886Y-113318250D01*
X127658847Y-113298565D01*
X127613092Y-113245761D01*
X127603148Y-113176603D01*
X127632173Y-113113047D01*
X127638205Y-113106569D01*
X127696978Y-113047796D01*
X127812674Y-112888555D01*
X127902034Y-112713175D01*
X127962859Y-112525976D01*
X127964441Y-112515989D01*
X127993650Y-112331572D01*
X127993650Y-112134727D01*
X127962859Y-111940323D01*
X127902032Y-111753120D01*
X127854893Y-111660605D01*
X127812674Y-111577745D01*
X127696978Y-111418504D01*
X127557796Y-111279322D01*
X127398555Y-111163626D01*
X127223179Y-111074267D01*
X127035976Y-111013440D01*
X126841572Y-110982650D01*
X126841567Y-110982650D01*
X126644733Y-110982650D01*
X126644728Y-110982650D01*
X126450323Y-111013440D01*
X126263120Y-111074267D01*
X126087744Y-111163626D01*
X126016194Y-111215611D01*
X125928504Y-111279322D01*
X125928502Y-111279324D01*
X125928501Y-111279324D01*
X125789324Y-111418501D01*
X125789324Y-111418502D01*
X125789322Y-111418504D01*
X125748234Y-111475057D01*
X125673626Y-111577744D01*
X125584267Y-111753120D01*
X125523440Y-111940323D01*
X125492650Y-112134727D01*
X125492650Y-112331572D01*
X125523440Y-112525976D01*
X125584267Y-112713179D01*
X125673626Y-112888555D01*
X125789322Y-113047796D01*
X125789324Y-113047798D01*
X125848095Y-113106569D01*
X125881580Y-113167892D01*
X125876596Y-113237584D01*
X125834724Y-113293517D01*
X125769260Y-113317934D01*
X125760414Y-113318250D01*
X107325886Y-113318250D01*
X107258847Y-113298565D01*
X107213092Y-113245761D01*
X107203148Y-113176603D01*
X107232173Y-113113047D01*
X107238205Y-113106569D01*
X107296978Y-113047796D01*
X107412674Y-112888555D01*
X107502034Y-112713175D01*
X107562859Y-112525976D01*
X107564441Y-112515989D01*
X107593650Y-112331572D01*
X107593650Y-112134727D01*
X107562859Y-111940323D01*
X107502032Y-111753120D01*
X107454893Y-111660605D01*
X107412674Y-111577745D01*
X107296978Y-111418504D01*
X107157796Y-111279322D01*
X106998555Y-111163626D01*
X106823179Y-111074267D01*
X106635976Y-111013440D01*
X106441572Y-110982650D01*
X106441567Y-110982650D01*
X106244733Y-110982650D01*
X106244728Y-110982650D01*
X106050323Y-111013440D01*
X105863120Y-111074267D01*
X105687744Y-111163626D01*
X105616194Y-111215611D01*
X105528504Y-111279322D01*
X105528502Y-111279324D01*
X105528501Y-111279324D01*
X105389324Y-111418501D01*
X105389324Y-111418502D01*
X105389322Y-111418504D01*
X105348234Y-111475057D01*
X105273626Y-111577744D01*
X105184267Y-111753120D01*
X105123440Y-111940323D01*
X105092650Y-112134727D01*
X105092650Y-112331572D01*
X105123440Y-112525976D01*
X105184267Y-112713179D01*
X105273626Y-112888555D01*
X105389322Y-113047796D01*
X105389324Y-113047798D01*
X105448095Y-113106569D01*
X105481580Y-113167892D01*
X105476596Y-113237584D01*
X105434724Y-113293517D01*
X105369260Y-113317934D01*
X105360414Y-113318250D01*
X94795920Y-113318250D01*
X94795904Y-113318249D01*
X94788308Y-113318249D01*
X94630193Y-113318249D01*
X94553829Y-113338711D01*
X94477464Y-113359173D01*
X94477459Y-113359176D01*
X94340540Y-113438225D01*
X94340532Y-113438231D01*
X92541566Y-115237197D01*
X92480243Y-115270682D01*
X92410551Y-115265698D01*
X92354618Y-115223826D01*
X92337701Y-115192843D01*
X92337544Y-115192423D01*
X92336946Y-115190819D01*
X92336944Y-115190816D01*
X92336943Y-115190814D01*
X92250697Y-115075605D01*
X92250694Y-115075602D01*
X92135485Y-114989356D01*
X92135478Y-114989352D01*
X92000632Y-114939058D01*
X92000633Y-114939058D01*
X91941033Y-114932651D01*
X91941031Y-114932650D01*
X91941023Y-114932650D01*
X91941014Y-114932650D01*
X89845279Y-114932650D01*
X89845273Y-114932651D01*
X89785666Y-114939058D01*
X89650821Y-114989352D01*
X89650814Y-114989356D01*
X89535605Y-115075602D01*
X89535602Y-115075605D01*
X89449356Y-115190814D01*
X89449352Y-115190821D01*
X89399058Y-115325667D01*
X89392651Y-115385266D01*
X89392650Y-115385285D01*
X84693650Y-115385285D01*
X84693650Y-66057650D01*
X84713335Y-65990611D01*
X84766139Y-65944856D01*
X84817650Y-65933650D01*
X145568650Y-65933650D01*
X145635689Y-65953335D01*
G37*
%TD.AperFunction*%
%TD*%
M02*
