%TF.GenerationSoftware,KiCad,Pcbnew,10.0.3*%
%TF.CreationDate,2026-08-16T19:10:51+05:30*%
%TF.ProjectId,laser,6c617365-722e-46b6-9963-61645f706362,rev?*%
%TF.SameCoordinates,Original*%
%TF.FileFunction,Copper,L1,Top*%
%TF.FilePolarity,Positive*%
%FSLAX46Y46*%
G04 Gerber Fmt 4.6, Leading zero omitted, Abs format (unit mm)*
G04 Created by KiCad (PCBNEW 10.0.3) date 2026-08-16 19:10:51*
%MOMM*%
%LPD*%
G01*
G04 APERTURE LIST*
G04 Aperture macros list*
%AMRoundRect*
0 Rectangle with rounded corners*
0 $1 Rounding radius*
0 $2 $3 $4 $5 $6 $7 $8 $9 X,Y pos of 4 corners*
0 Add a 4 corners polygon primitive as box body*
4,1,4,$2,$3,$4,$5,$6,$7,$8,$9,$2,$3,0*
0 Add four circle primitives for the rounded corners*
1,1,$1+$1,$2,$3*
1,1,$1+$1,$4,$5*
1,1,$1+$1,$6,$7*
1,1,$1+$1,$8,$9*
0 Add four rect primitives between the rounded corners*
20,1,$1+$1,$2,$3,$4,$5,0*
20,1,$1+$1,$4,$5,$6,$7,0*
20,1,$1+$1,$6,$7,$8,$9,0*
20,1,$1+$1,$8,$9,$2,$3,0*%
G04 Aperture macros list end*
%TA.AperFunction,SMDPad,CuDef*%
%ADD10RoundRect,0.250000X-0.475000X0.250000X-0.475000X-0.250000X0.475000X-0.250000X0.475000X0.250000X0*%
%TD*%
%TA.AperFunction,SMDPad,CuDef*%
%ADD11O,0.630000X1.865000*%
%TD*%
%TA.AperFunction,SMDPad,CuDef*%
%ADD12R,1.700000X1.000000*%
%TD*%
%TA.AperFunction,SMDPad,CuDef*%
%ADD13RoundRect,0.250000X0.475000X-0.250000X0.475000X0.250000X-0.475000X0.250000X-0.475000X-0.250000X0*%
%TD*%
%TA.AperFunction,SMDPad,CuDef*%
%ADD14RoundRect,0.250000X-0.450000X0.262500X-0.450000X-0.262500X0.450000X-0.262500X0.450000X0.262500X0*%
%TD*%
%TA.AperFunction,SMDPad,CuDef*%
%ADD15RoundRect,0.250000X0.450000X-0.262500X0.450000X0.262500X-0.450000X0.262500X-0.450000X-0.262500X0*%
%TD*%
%TA.AperFunction,ComponentPad*%
%ADD16R,2.000000X2.000000*%
%TD*%
%TA.AperFunction,ComponentPad*%
%ADD17C,2.000000*%
%TD*%
%TA.AperFunction,SMDPad,CuDef*%
%ADD18RoundRect,0.250000X-0.262500X-0.450000X0.262500X-0.450000X0.262500X0.450000X-0.262500X0.450000X0*%
%TD*%
%TA.AperFunction,SMDPad,CuDef*%
%ADD19RoundRect,0.250000X-0.375000X-0.625000X0.375000X-0.625000X0.375000X0.625000X-0.375000X0.625000X0*%
%TD*%
%TA.AperFunction,SMDPad,CuDef*%
%ADD20RoundRect,0.250000X0.250000X0.475000X-0.250000X0.475000X-0.250000X-0.475000X0.250000X-0.475000X0*%
%TD*%
%TA.AperFunction,ComponentPad*%
%ADD21C,1.440000*%
%TD*%
%TA.AperFunction,ComponentPad*%
%ADD22O,2.000000X1.600000*%
%TD*%
%TA.AperFunction,ComponentPad*%
%ADD23RoundRect,0.170000X0.680000X-0.680000X0.680000X0.680000X-0.680000X0.680000X-0.680000X-0.680000X0*%
%TD*%
%TA.AperFunction,ComponentPad*%
%ADD24C,1.700000*%
%TD*%
%TA.AperFunction,SMDPad,CuDef*%
%ADD25RoundRect,0.087500X0.087500X-0.187500X0.087500X0.187500X-0.087500X0.187500X-0.087500X-0.187500X0*%
%TD*%
%TA.AperFunction,SMDPad,CuDef*%
%ADD26RoundRect,0.087500X0.187500X-0.087500X0.187500X0.087500X-0.187500X0.087500X-0.187500X-0.087500X0*%
%TD*%
%TA.AperFunction,ComponentPad*%
%ADD27R,1.700000X1.700000*%
%TD*%
%TA.AperFunction,ComponentPad*%
%ADD28C,1.000000*%
%TD*%
%TA.AperFunction,ComponentPad*%
%ADD29RoundRect,0.250000X-0.350000X-0.625000X0.350000X-0.625000X0.350000X0.625000X-0.350000X0.625000X0*%
%TD*%
%TA.AperFunction,ComponentPad*%
%ADD30O,1.200000X1.750000*%
%TD*%
%TA.AperFunction,SMDPad,CuDef*%
%ADD31O,0.568000X1.950000*%
%TD*%
%TA.AperFunction,ComponentPad*%
%ADD32R,1.050000X1.500000*%
%TD*%
%TA.AperFunction,ComponentPad*%
%ADD33O,1.050000X1.500000*%
%TD*%
%TA.AperFunction,SMDPad,CuDef*%
%ADD34RoundRect,0.250000X-0.250000X-0.475000X0.250000X-0.475000X0.250000X0.475000X-0.250000X0.475000X0*%
%TD*%
%TA.AperFunction,ViaPad*%
%ADD35C,0.600000*%
%TD*%
%TA.AperFunction,Conductor*%
%ADD36C,0.200000*%
%TD*%
G04 APERTURE END LIST*
D10*
%TO.P,C1,1*%
%TO.N,+3V3*%
X135193150Y-99983150D03*
%TO.P,C1,2*%
%TO.N,GND*%
X135193150Y-101883150D03*
%TD*%
D11*
%TO.P,U3,1,OUTA_1*%
%TO.N,Net-(U1-D1)*%
X139283150Y-106113150D03*
%TO.P,U3,2,INA-_2*%
%TO.N,Net-(U3A-INA-)*%
X140563150Y-106113150D03*
%TO.P,U3,3,INA+_3*%
%TO.N,Net-(D1-A)*%
X141823150Y-106113150D03*
%TO.P,U3,4,GND_4*%
%TO.N,GND*%
X143093150Y-106113150D03*
%TO.P,U3,5*%
%TO.N,N/C*%
X143093150Y-100753150D03*
%TO.P,U3,6*%
X141823150Y-100753150D03*
%TO.P,U3,7*%
X140563150Y-100753150D03*
%TO.P,U3,8,VCC_8*%
%TO.N,+3V3*%
X139283150Y-100753150D03*
%TD*%
D12*
%TO.P,SW2,1,1_1*%
%TO.N,Net-(U1-D10)*%
X86543150Y-101533150D03*
X92843150Y-101533150D03*
%TO.P,SW2,2,2_2*%
%TO.N,+3V3*%
X86543150Y-105333150D03*
X92843150Y-105333150D03*
%TD*%
D13*
%TO.P,C9,1*%
%TO.N,GND*%
X98193150Y-96383150D03*
%TO.P,C9,2*%
%TO.N,/BAT_SENSE*%
X98193150Y-94483150D03*
%TD*%
D14*
%TO.P,R5,1*%
%TO.N,Net-(U1-D3)*%
X88693150Y-71520650D03*
%TO.P,R5,2*%
%TO.N,+3V3*%
X88693150Y-73345650D03*
%TD*%
%TO.P,R9,1*%
%TO.N,Net-(J2-Pin_1)*%
X92193150Y-82608150D03*
%TO.P,R9,2*%
%TO.N,/BAT_SENSE*%
X92193150Y-84433150D03*
%TD*%
D10*
%TO.P,C8,1*%
%TO.N,GND*%
X91693150Y-96433150D03*
%TO.P,C8,2*%
%TO.N,+3V3*%
X91693150Y-98333150D03*
%TD*%
D15*
%TO.P,R10,1*%
%TO.N,/BAT_SENSE*%
X94693150Y-97933150D03*
%TO.P,R10,2*%
%TO.N,GND*%
X94693150Y-96108150D03*
%TD*%
D10*
%TO.P,C7,1*%
%TO.N,GND*%
X97193150Y-98983150D03*
%TO.P,C7,2*%
%TO.N,+3V3*%
X97193150Y-100883150D03*
%TD*%
D12*
%TO.P,SW1,1,1_1*%
%TO.N,Net-(U1-D5)*%
X143843150Y-92833150D03*
X137543150Y-92833150D03*
%TO.P,SW1,2,2_2*%
%TO.N,+3V3*%
X143843150Y-89033150D03*
X137543150Y-89033150D03*
%TD*%
D16*
%TO.P,BZ1,1,+_1*%
%TO.N,+3V3*%
X90893150Y-116433150D03*
D17*
%TO.P,BZ1,2,-_2*%
%TO.N,Net-(BZ1--)*%
X98493150Y-116433150D03*
%TD*%
D18*
%TO.P,R3,1*%
%TO.N,+3V3*%
X134780650Y-114433150D03*
%TO.P,R3,2*%
%TO.N,Net-(U1-D1)*%
X136605650Y-114433150D03*
%TD*%
D19*
%TO.P,D1,1,K_1*%
%TO.N,+3V3*%
X133693150Y-97433150D03*
%TO.P,D1,2,A_2*%
%TO.N,Net-(D1-A)*%
X136493150Y-97433150D03*
%TD*%
D15*
%TO.P,R7,1*%
%TO.N,Net-(U1-D5)*%
X132193150Y-92345650D03*
%TO.P,R7,2*%
%TO.N,GND*%
X132193150Y-90520650D03*
%TD*%
%TO.P,R8,1*%
%TO.N,Net-(U1-D10)*%
X88693150Y-98258150D03*
%TO.P,R8,2*%
%TO.N,GND*%
X88693150Y-96433150D03*
%TD*%
D20*
%TO.P,C6,1*%
%TO.N,GND*%
X97643150Y-104933150D03*
%TO.P,C6,2*%
%TO.N,+3V3*%
X95743150Y-104933150D03*
%TD*%
D21*
%TO.P,R2,1,1_1*%
%TO.N,GND*%
X142233150Y-82428150D03*
%TO.P,R2,2,2_2*%
%TO.N,Net-(U3A-INA-)*%
X139693150Y-82428150D03*
%TO.P,R2,3,3_3*%
%TO.N,+3V3*%
X137153150Y-82428150D03*
%TD*%
D16*
%TO.P,U1,1,EN_1*%
%TO.N,unconnected-(U1-EN-Pad1)*%
X127993150Y-107833150D03*
D22*
%TO.P,U1,2,D3_2*%
%TO.N,Net-(U1-D3)*%
X127993150Y-105293150D03*
%TO.P,U1,3,D2_3*%
%TO.N,Net-(U1-D2)*%
X127993150Y-102753150D03*
%TO.P,U1,4,D1_4*%
%TO.N,Net-(U1-D1)*%
X127993150Y-100213150D03*
%TO.P,U1,5,D0_5*%
%TO.N,Net-(D1-A)*%
X127993150Y-97673150D03*
%TO.P,U1,6,D4_6*%
%TO.N,Net-(U1-D4)*%
X127993150Y-95133150D03*
%TO.P,U1,7,D5_7*%
%TO.N,Net-(U1-D5)*%
X127993150Y-92593150D03*
%TO.P,U1,8,3V3_8*%
%TO.N,+3V3*%
X127993150Y-90053150D03*
%TO.P,U1,9,VBus_9*%
%TO.N,Net-(J1-Pin_1)*%
X105133150Y-90053150D03*
%TO.P,U1,10,GND_10*%
%TO.N,GND*%
X105133150Y-92593150D03*
%TO.P,U1,11,D6_11*%
%TO.N,Net-(U1-D6)*%
X105133150Y-95133150D03*
%TO.P,U1,12,D7_12*%
%TO.N,/BAT_SENSE*%
X105133150Y-97673150D03*
%TO.P,U1,13,D8_13*%
%TO.N,unconnected-(U1-D8-Pad13)*%
X105133150Y-100213150D03*
%TO.P,U1,14,D10_14*%
%TO.N,Net-(U1-D10)*%
X105133150Y-102753150D03*
%TO.P,U1,15,RX_15*%
%TO.N,unconnected-(U1-RX-Pad15)*%
X105133150Y-105293150D03*
%TO.P,U1,16,TX_16*%
%TO.N,unconnected-(U1-TX-Pad16)*%
X105133150Y-107833150D03*
%TD*%
D23*
%TO.P,U2,1,GND_1*%
%TO.N,GND*%
X92693150Y-76243150D03*
D24*
%TO.P,U2,2,VCC_2*%
%TO.N,+3V3*%
X92693150Y-73703150D03*
%TO.P,U2,3,SCL_3*%
%TO.N,Net-(U1-D3)*%
X92693150Y-71163150D03*
%TO.P,U2,4,SDA_4*%
%TO.N,Net-(U1-D2)*%
X92693150Y-68623150D03*
%TD*%
D13*
%TO.P,C3,1*%
%TO.N,GND*%
X99193150Y-90433150D03*
%TO.P,C3,2*%
%TO.N,Net-(J1-Pin_1)*%
X99193150Y-88533150D03*
%TD*%
D10*
%TO.P,C4,1*%
%TO.N,Net-(J1-Pin_1)*%
X91193150Y-89533150D03*
%TO.P,C4,2*%
%TO.N,GND*%
X91193150Y-91433150D03*
%TD*%
D25*
%TO.P,U5,1,VDD_IO_1*%
%TO.N,unconnected-(U5-VDD_IO-Pad1)*%
X133693150Y-107658150D03*
%TO.P,U5,2,NC_2*%
%TO.N,unconnected-(U5-NC-Pad2)*%
X134193150Y-107658150D03*
%TO.P,U5,3,NC_3*%
%TO.N,unconnected-(U5-NC-Pad3)*%
X134693150Y-107658150D03*
%TO.P,U5,4,SPC_4*%
%TO.N,Net-(U1-D3)*%
X135193150Y-107658150D03*
%TO.P,U5,5,GND_5*%
%TO.N,GND*%
X135693150Y-107658150D03*
D26*
%TO.P,U5,6,SDI_6*%
%TO.N,Net-(U1-D2)*%
X135918150Y-106933150D03*
%TO.P,U5,7,SDO_7*%
%TO.N,GND*%
X135918150Y-106433150D03*
%TO.P,U5,8,CS_8*%
%TO.N,+3V3*%
X135918150Y-105933150D03*
D25*
%TO.P,U5,9,INT2_9*%
%TO.N,unconnected-(U5-INT2-Pad9)*%
X135693150Y-105208150D03*
%TO.P,U5,10,GND_10*%
%TO.N,GND*%
X135193150Y-105208150D03*
%TO.P,U5,11,INT1_11*%
%TO.N,Net-(U1-D6)*%
X134693150Y-105208150D03*
%TO.P,U5,12,GND_12*%
%TO.N,GND*%
X134193150Y-105208150D03*
%TO.P,U5,13,ADC3_13*%
%TO.N,unconnected-(U5-ADC3-Pad13)*%
X133693150Y-105208150D03*
D26*
%TO.P,U5,14,VDD_14*%
%TO.N,+3V3*%
X133468150Y-105933150D03*
%TO.P,U5,15,ADC2_15*%
%TO.N,unconnected-(U5-ADC2-Pad15)*%
X133468150Y-106433150D03*
%TO.P,U5,16,ADC1_16*%
%TO.N,unconnected-(U5-ADC1-Pad16)*%
X133468150Y-106933150D03*
%TD*%
D18*
%TO.P,R6,1*%
%TO.N,Net-(Q1-B)*%
X113868150Y-118933150D03*
%TO.P,R6,2*%
%TO.N,Net-(U1-D4)*%
X115693150Y-118933150D03*
%TD*%
D27*
%TO.P,J1,1,Pin_1_1*%
%TO.N,Net-(J1-Pin_1)*%
X95193150Y-89893150D03*
D24*
%TO.P,J1,2,Pin_2_2*%
%TO.N,GND*%
X95193150Y-92433150D03*
%TD*%
D18*
%TO.P,R1,1*%
%TO.N,Net-(D1-A)*%
X133280650Y-117433150D03*
%TO.P,R1,2*%
%TO.N,GND*%
X135105650Y-117433150D03*
%TD*%
D28*
%TO.P,Y1,1,1_1*%
%TO.N,Net-(U4-X1)*%
X132948150Y-120163150D03*
%TO.P,Y1,2,2_2*%
%TO.N,Net-(U4-X2)*%
X132948150Y-122703150D03*
%TD*%
D29*
%TO.P,J2,1,Pin_1_1*%
%TO.N,Net-(J2-Pin_1)*%
X96693150Y-82433150D03*
D30*
%TO.P,J2,2,Pin_2_2*%
%TO.N,GND*%
X98693150Y-82433150D03*
%TD*%
D31*
%TO.P,U4,1,X1_1*%
%TO.N,Net-(U4-X1)*%
X138293150Y-117143150D03*
%TO.P,U4,2,X2_2*%
%TO.N,Net-(U4-X2)*%
X139563150Y-117143150D03*
%TO.P,U4,3,VBAT_3*%
%TO.N,unconnected-(U4-VBAT-Pad3)*%
X140823150Y-117143150D03*
%TO.P,U4,4,GND_4*%
%TO.N,GND*%
X142093150Y-117143150D03*
%TO.P,U4,5,SDA_5*%
%TO.N,Net-(U1-D2)*%
X142093150Y-111723150D03*
%TO.P,U4,6,SCL_6*%
%TO.N,Net-(U1-D3)*%
X140823150Y-111723150D03*
%TO.P,U4,7,SQWOUT_7*%
%TO.N,unconnected-(U4-SQWOUT-Pad7)*%
X139563150Y-111723150D03*
%TO.P,U4,8,VCC_8*%
%TO.N,+5V*%
X138293150Y-111723150D03*
%TD*%
D15*
%TO.P,R4,1*%
%TO.N,Net-(U1-D2)*%
X132193150Y-101845650D03*
%TO.P,R4,2*%
%TO.N,+3V3*%
X132193150Y-100020650D03*
%TD*%
D32*
%TO.P,Q1,1,E_1*%
%TO.N,GND*%
X107653150Y-122933150D03*
D33*
%TO.P,Q1,2,B_2*%
%TO.N,Net-(Q1-B)*%
X108923150Y-122933150D03*
%TO.P,Q1,3,C_3*%
%TO.N,Net-(BZ1--)*%
X110193150Y-122933150D03*
%TD*%
D13*
%TO.P,C5,1*%
%TO.N,Net-(D1-A)*%
X132693150Y-111883150D03*
%TO.P,C5,2*%
%TO.N,GND*%
X132693150Y-109983150D03*
%TD*%
D34*
%TO.P,C2,1*%
%TO.N,+3V3*%
X93743150Y-108433150D03*
%TO.P,C2,2*%
%TO.N,GND*%
X95643150Y-108433150D03*
%TD*%
D35*
%TO.N,+3V3*%
X135677950Y-115316850D03*
X134279850Y-106846650D03*
%TO.N,GND*%
X138193150Y-99433150D03*
X142093150Y-115657850D03*
X132193150Y-89492950D03*
X135288615Y-101787685D03*
%TO.N,Net-(U1-D1)*%
X139283150Y-107575250D03*
X136605650Y-111985350D03*
%TO.N,Net-(D1-A)*%
X141823150Y-104197250D03*
%TO.N,Net-(U1-D10)*%
X91505450Y-100791350D03*
%TO.N,/BAT_SENSE*%
X92193150Y-88730950D03*
%TO.N,Net-(U1-D3)*%
X140823150Y-110226550D03*
X135116250Y-106812350D03*
%TO.N,Net-(U1-D5)*%
X136172950Y-92614650D03*
%TO.N,Net-(U1-D2)*%
X142093150Y-110217550D03*
%TO.N,Net-(U1-D6)*%
X133803950Y-103866850D03*
%TO.N,Net-(U4-X2)*%
X139563150Y-118627550D03*
%TD*%
%TO.N,+3V3*%
D36*
X95743150Y-104933150D02*
X95743150Y-102333150D01*
X133693150Y-97433150D02*
X133693150Y-98483150D01*
X93993350Y-105333150D02*
X93952850Y-105292650D01*
X87688150Y-75065650D02*
X87688150Y-96981250D01*
X95343150Y-105333150D02*
X95743150Y-104933150D01*
X134219350Y-99009350D02*
X135193150Y-99983150D01*
X93993350Y-105333150D02*
X93994850Y-105333150D01*
X139283150Y-99358150D02*
X144994850Y-93646450D01*
X90263750Y-97688050D02*
X90263750Y-98978250D01*
X91693150Y-98172650D02*
X90902450Y-97381950D01*
X87688150Y-96981250D02*
X88090350Y-97383450D01*
X133208050Y-100020650D02*
X133208050Y-102377050D01*
X137543150Y-89033150D02*
X143843150Y-89033150D01*
X128088950Y-88855650D02*
X127993150Y-88951450D01*
X137153150Y-82428150D02*
X136391450Y-83189850D01*
X133208050Y-102377050D02*
X132735450Y-102849650D01*
X92843150Y-105333150D02*
X93894050Y-105333150D01*
X91693150Y-98333150D02*
X91693150Y-98172650D01*
X134794250Y-114433150D02*
X134780650Y-114433150D01*
X132735450Y-105200450D02*
X133468150Y-105933150D01*
X133693150Y-98483150D02*
X134219350Y-99009350D01*
X93994850Y-105333150D02*
X95343150Y-105333150D01*
X127993150Y-90053150D02*
X127993150Y-88951450D01*
X143843150Y-89033150D02*
X144994850Y-89033150D01*
X93743150Y-112281450D02*
X93743150Y-108433150D01*
X92843150Y-105333150D02*
X86543150Y-105333150D01*
X139283150Y-101370250D02*
X139283150Y-101987350D01*
X139283150Y-100753150D02*
X139283150Y-99358150D01*
X90569850Y-97381950D02*
X90263750Y-97688050D01*
X88090350Y-97383450D02*
X89959150Y-97383450D01*
X94094250Y-101433150D02*
X94094250Y-101521350D01*
X134279850Y-105933150D02*
X134279850Y-106846650D01*
X95743150Y-102333150D02*
X97193150Y-100883150D01*
X90893150Y-116433150D02*
X90893150Y-115131450D01*
X90902450Y-97381950D02*
X90569850Y-97381950D01*
X94094250Y-101004850D02*
X94094250Y-101433150D01*
X139283150Y-101370250D02*
X139283150Y-100753150D01*
X89959150Y-97383450D02*
X90263750Y-97688050D01*
X90893150Y-115131450D02*
X93743150Y-112281450D01*
X136391450Y-88855650D02*
X128088950Y-88855650D01*
X94094250Y-101433150D02*
X94843150Y-101433150D01*
X135677950Y-115316850D02*
X134794250Y-114433150D01*
X93994850Y-108181450D02*
X93994850Y-105333150D01*
X134219350Y-99009350D02*
X133208050Y-100020650D01*
X136391450Y-83189850D02*
X136391450Y-88855650D01*
X136391450Y-88855650D02*
X136391450Y-89033150D01*
X90823050Y-99537550D02*
X92626950Y-99537550D01*
X93743150Y-108433150D02*
X93994850Y-108181450D01*
X133468150Y-105933150D02*
X134279850Y-105933150D01*
X94843150Y-101433150D02*
X95743150Y-102333150D01*
X133208050Y-100020650D02*
X132193150Y-100020650D01*
X139283150Y-101987350D02*
X137197350Y-101987350D01*
X137197350Y-101987350D02*
X135193150Y-99983150D01*
X132735450Y-102849650D02*
X132735450Y-105200450D01*
X90263750Y-98978250D02*
X90823050Y-99537550D01*
X92693150Y-73703150D02*
X89050650Y-73703150D01*
X89050650Y-73703150D02*
X88693150Y-73345650D01*
X93894050Y-105333150D02*
X93993350Y-105333150D01*
X92626950Y-99537550D02*
X94094250Y-101004850D01*
X89050650Y-73703150D02*
X87688150Y-75065650D01*
X134279850Y-105933150D02*
X135918150Y-105933150D01*
X137543150Y-89033150D02*
X136391450Y-89033150D01*
X144994850Y-93646450D02*
X144994850Y-89033150D01*
%TO.N,GND*%
X91193150Y-91433150D02*
X91693150Y-91933150D01*
X143093150Y-108321750D02*
X142718150Y-108696750D01*
X135193150Y-104497750D02*
X135823050Y-104497750D01*
X142093150Y-115657850D02*
X142093150Y-117143150D01*
X132193150Y-89492950D02*
X132193150Y-90520650D01*
X93308550Y-98983150D02*
X97193150Y-98983150D01*
X106826450Y-115616450D02*
X97643150Y-106433150D01*
X138193150Y-97348406D02*
X138193150Y-99433150D01*
X135105650Y-117433150D02*
X133955750Y-116283250D01*
X97193150Y-92433150D02*
X99193150Y-90433150D01*
X133638250Y-104619450D02*
X133979350Y-104619450D01*
X136940950Y-106156350D02*
X136534750Y-106156350D01*
X91693150Y-94081350D02*
X91693150Y-96433150D01*
X142093150Y-115657850D02*
X142718150Y-115032850D01*
X105133150Y-91491450D02*
X102311650Y-91491450D01*
X133979350Y-104619450D02*
X134193150Y-104833250D01*
X139481350Y-108696750D02*
X136940950Y-106156350D01*
X107653150Y-122933150D02*
X106826450Y-122933150D01*
X142093150Y-115657850D02*
X136880950Y-115657850D01*
X99594850Y-82433150D02*
X100223250Y-83061550D01*
X131193150Y-91520650D02*
X131193150Y-92842894D01*
X133955750Y-116283250D02*
X133955750Y-110222650D01*
X95193150Y-92433150D02*
X97193150Y-92433150D01*
X98693150Y-82433150D02*
X98693150Y-81256450D01*
X136534750Y-106156350D02*
X136257950Y-106433150D01*
X92693150Y-76243150D02*
X97706450Y-81256450D01*
X102311650Y-91491450D02*
X100223250Y-89403050D01*
X142718150Y-115032850D02*
X142718150Y-108696750D01*
X91693150Y-96433150D02*
X93308550Y-98048550D01*
X135193150Y-105208150D02*
X135193150Y-104497750D01*
X100223250Y-89403050D02*
X99193150Y-90433150D01*
X133557550Y-103233350D02*
X133183550Y-103607350D01*
X95193150Y-92433150D02*
X94693150Y-92933150D01*
X131193150Y-92842894D02*
X134183606Y-95833350D01*
X134193150Y-104833250D02*
X134193150Y-105208150D01*
X135193150Y-103233350D02*
X135193150Y-101883150D01*
X133716250Y-109983150D02*
X135693150Y-108006250D01*
X97706450Y-81256450D02*
X98693150Y-81256450D01*
X91693150Y-96433150D02*
X88693150Y-96433150D01*
X105133150Y-92593150D02*
X105133150Y-91491450D01*
X135823050Y-104497750D02*
X136534750Y-105209450D01*
X106826450Y-122933150D02*
X106826450Y-115616450D01*
X135693150Y-108006250D02*
X135693150Y-107658150D01*
X94693150Y-92933150D02*
X94693150Y-94081350D01*
X136678094Y-95833350D02*
X138193150Y-97348406D01*
X136257950Y-106433150D02*
X135918150Y-106433150D01*
X133955750Y-110222650D02*
X133716250Y-109983150D01*
X142718150Y-108696750D02*
X139481350Y-108696750D01*
X134183606Y-95833350D02*
X136678094Y-95833350D01*
X94693150Y-94081350D02*
X94693150Y-96108150D01*
X135193150Y-104497750D02*
X135193150Y-103233350D01*
X98693150Y-82433150D02*
X99594850Y-82433150D01*
X143093150Y-106113150D02*
X143093150Y-108321750D01*
X97193150Y-98983150D02*
X98193150Y-97983150D01*
X133183550Y-104164750D02*
X133638250Y-104619450D01*
X94693150Y-94081350D02*
X91693150Y-94081350D01*
X95643150Y-108433150D02*
X97643150Y-106433150D01*
X91693150Y-91933150D02*
X91693150Y-94081350D01*
X100223250Y-83061550D02*
X100223250Y-89403050D01*
X93308550Y-98048550D02*
X93308550Y-98983150D01*
X136880950Y-115657850D02*
X135105650Y-117433150D01*
X97643150Y-104933150D02*
X98247050Y-104329250D01*
X132193150Y-90520650D02*
X131193150Y-91520650D01*
X97643150Y-106433150D02*
X97643150Y-104933150D01*
X135193150Y-103233350D02*
X133557550Y-103233350D01*
X132693150Y-109983150D02*
X133716250Y-109983150D01*
X98247050Y-100037050D02*
X97193150Y-98983150D01*
X98247050Y-104329250D02*
X98247050Y-100037050D01*
X133183550Y-103607350D02*
X133183550Y-104164750D01*
X98193150Y-97983150D02*
X98193150Y-96383150D01*
X136534750Y-105209450D02*
X136534750Y-106156350D01*
%TO.N,Net-(U1-D1)*%
X136605650Y-114433150D02*
X136605650Y-111985350D01*
X139283150Y-107575250D02*
X139283150Y-106113150D01*
%TO.N,Net-(U3A-INA-)*%
X145396550Y-94014350D02*
X141179850Y-98231050D01*
X141179850Y-104262250D02*
X140563150Y-104878950D01*
X141179850Y-98231050D02*
X141179850Y-104262250D01*
X139693150Y-82428150D02*
X145396550Y-88131550D01*
X140563150Y-106113150D02*
X140563150Y-104878950D01*
X145396550Y-88131550D02*
X145396550Y-94014350D01*
%TO.N,Net-(D1-A)*%
X141823150Y-106113150D02*
X141823150Y-104197250D01*
X126656550Y-103176950D02*
X127542550Y-104062950D01*
X127542550Y-104062950D02*
X128549850Y-104062950D01*
X136493150Y-97433150D02*
X135293350Y-96233350D01*
X128549850Y-104062950D02*
X129333150Y-104846250D01*
X133280650Y-117433150D02*
X133280650Y-112470650D01*
X133280650Y-112470650D02*
X132693150Y-111883150D01*
X127993150Y-97673150D02*
X127993150Y-96571450D01*
X135293350Y-96233350D02*
X129432950Y-96233350D01*
X126656550Y-99698350D02*
X126656550Y-103176950D01*
X127993150Y-97673150D02*
X127993150Y-98774850D01*
X129333150Y-104846250D02*
X129333150Y-108523150D01*
X127580050Y-98774850D02*
X126656550Y-99698350D01*
X127993150Y-98774850D02*
X127580050Y-98774850D01*
X129432950Y-96233350D02*
X129094850Y-96571450D01*
X129333150Y-108523150D02*
X132693150Y-111883150D01*
X129094850Y-96571450D02*
X127993150Y-96571450D01*
%TO.N,Net-(U1-D10)*%
X91226350Y-100791350D02*
X91505450Y-100791350D01*
X86543150Y-101533150D02*
X87694850Y-101533150D01*
X91691450Y-101533150D02*
X91691450Y-100977350D01*
X88693150Y-98258150D02*
X91226350Y-100791350D01*
X91691450Y-100977350D02*
X91505450Y-100791350D01*
X92843150Y-101533150D02*
X91691450Y-101533150D01*
X87694850Y-99256450D02*
X87694850Y-101533150D01*
X88693150Y-98258150D02*
X87694850Y-99256450D01*
%TO.N,/BAT_SENSE*%
X92193150Y-84433150D02*
X92193150Y-88730950D01*
X95704450Y-96921850D02*
X96166950Y-96921850D01*
X97809950Y-94483150D02*
X98193150Y-94483150D01*
X105133150Y-97673150D02*
X101383150Y-97673150D01*
X96166950Y-96126150D02*
X97809950Y-94483150D01*
X94693150Y-97933150D02*
X95704450Y-96921850D01*
X96166950Y-96921850D02*
X96166950Y-96126150D01*
X101383150Y-97673150D02*
X98193150Y-94483150D01*
%TO.N,Net-(U1-D3)*%
X92693150Y-71163150D02*
X89050650Y-71163150D01*
X89050650Y-71163150D02*
X88693150Y-71520650D01*
X135193150Y-106889250D02*
X135116250Y-106812350D01*
X140823150Y-110226550D02*
X140823150Y-111723150D01*
X135193150Y-107658150D02*
X135193150Y-106889250D01*
%TO.N,Net-(J2-Pin_1)*%
X96693150Y-82433150D02*
X92368150Y-82433150D01*
X92368150Y-82433150D02*
X92193150Y-82608150D01*
%TO.N,Net-(U1-D5)*%
X137543150Y-92833150D02*
X143843150Y-92833150D01*
X137543150Y-92833150D02*
X136391450Y-92833150D01*
X136172950Y-92614650D02*
X136391450Y-92833150D01*
X132462150Y-92614650D02*
X132193150Y-92345650D01*
X136172950Y-92614650D02*
X132462150Y-92614650D01*
%TO.N,Net-(U1-D2)*%
X136773150Y-106933150D02*
X135918150Y-106933150D01*
X139116850Y-109276850D02*
X141152450Y-109276850D01*
X127993150Y-102753150D02*
X131285650Y-102753150D01*
X139116850Y-109276850D02*
X136773150Y-106933150D01*
X142093150Y-111723150D02*
X142093150Y-110217550D01*
X141152450Y-109276850D02*
X142093150Y-110217550D01*
X131285650Y-102753150D02*
X132193150Y-101845650D01*
%TO.N,Net-(U1-D4)*%
X115693150Y-118933150D02*
X115693150Y-107433150D01*
X115693150Y-107433150D02*
X127993150Y-95133150D01*
%TO.N,Net-(J1-Pin_1)*%
X97704850Y-88533150D02*
X99193150Y-88533150D01*
X95193150Y-89893150D02*
X91553150Y-89893150D01*
X95193150Y-89893150D02*
X96344850Y-89893150D01*
X96344850Y-89893150D02*
X97704850Y-88533150D01*
X91553150Y-89893150D02*
X91193150Y-89533150D01*
%TO.N,Net-(U1-D6)*%
X134693150Y-104756050D02*
X134693150Y-105208150D01*
X133803950Y-103866850D02*
X134693150Y-104756050D01*
%TO.N,Net-(Q1-B)*%
X108923150Y-121881450D02*
X110919850Y-121881450D01*
X110919850Y-121881450D02*
X113868150Y-118933150D01*
X108923150Y-122933150D02*
X108923150Y-121881450D01*
%TO.N,Net-(U4-X1)*%
X136549850Y-120163150D02*
X132948150Y-120163150D01*
X138293150Y-118419850D02*
X136549850Y-120163150D01*
X138293150Y-117143150D02*
X138293150Y-118419850D01*
%TO.N,Net-(U4-X2)*%
X139563150Y-117143150D02*
X139563150Y-118419850D01*
X139563150Y-118419850D02*
X139563150Y-118627550D01*
%TD*%
%TA.AperFunction,Conductor*%
%TO.N,GND*%
G36*
X145635689Y-65953335D02*
G01*
X145681444Y-66006139D01*
X145692650Y-66057650D01*
X145692650Y-87279052D01*
X145672965Y-87346091D01*
X145620161Y-87391846D01*
X145551003Y-87401790D01*
X145487447Y-87372765D01*
X145480969Y-87366733D01*
X144909412Y-86795176D01*
X141961713Y-83847478D01*
X141928229Y-83786156D01*
X141933213Y-83716464D01*
X141975085Y-83660531D01*
X142040549Y-83636114D01*
X142068794Y-83637325D01*
X142137136Y-83648150D01*
X142329165Y-83648150D01*
X142518834Y-83618109D01*
X142701471Y-83558766D01*
X142872569Y-83471586D01*
X142901796Y-83450351D01*
X142901796Y-83450350D01*
X142279596Y-82828150D01*
X142285811Y-82828150D01*
X142387544Y-82800891D01*
X142478756Y-82748230D01*
X142553230Y-82673756D01*
X142605891Y-82582544D01*
X142633150Y-82480811D01*
X142633150Y-82474596D01*
X143255350Y-83096796D01*
X143255351Y-83096796D01*
X143276586Y-83067569D01*
X143363766Y-82896471D01*
X143423109Y-82713834D01*
X143453150Y-82524165D01*
X143453150Y-82332134D01*
X143423109Y-82142465D01*
X143363766Y-81959828D01*
X143276584Y-81788727D01*
X143255351Y-81759502D01*
X143255350Y-81759501D01*
X142633150Y-82381702D01*
X142633150Y-82375489D01*
X142605891Y-82273756D01*
X142553230Y-82182544D01*
X142478756Y-82108070D01*
X142387544Y-82055409D01*
X142285811Y-82028150D01*
X142279597Y-82028150D01*
X142901796Y-81405948D01*
X142872565Y-81384711D01*
X142701471Y-81297533D01*
X142518834Y-81238190D01*
X142329165Y-81208150D01*
X142137135Y-81208150D01*
X141947465Y-81238190D01*
X141764828Y-81297533D01*
X141593728Y-81384714D01*
X141564502Y-81405948D01*
X141564501Y-81405948D01*
X142186704Y-82028150D01*
X142180489Y-82028150D01*
X142078756Y-82055409D01*
X141987544Y-82108070D01*
X141913070Y-82182544D01*
X141860409Y-82273756D01*
X141833150Y-82375489D01*
X141833150Y-82381703D01*
X141210948Y-81759501D01*
X141210948Y-81759502D01*
X141189714Y-81788728D01*
X141102534Y-81959827D01*
X141081344Y-82025043D01*
X141041905Y-82082718D01*
X140977546Y-82109915D01*
X140908700Y-82098000D01*
X140857225Y-82050755D01*
X140845482Y-82025040D01*
X140824234Y-81959645D01*
X140749496Y-81812965D01*
X140737015Y-81788469D01*
X140624095Y-81633048D01*
X140488252Y-81497205D01*
X140332831Y-81384285D01*
X140161656Y-81297066D01*
X139978952Y-81237703D01*
X139850416Y-81217345D01*
X139789205Y-81207650D01*
X139597095Y-81207650D01*
X139535884Y-81217345D01*
X139407347Y-81237703D01*
X139224643Y-81297066D01*
X139053468Y-81384285D01*
X138974655Y-81441547D01*
X138898048Y-81497205D01*
X138898046Y-81497207D01*
X138898045Y-81497207D01*
X138762207Y-81633045D01*
X138762207Y-81633046D01*
X138762205Y-81633048D01*
X138745999Y-81655354D01*
X138649285Y-81788468D01*
X138562066Y-81959643D01*
X138541081Y-82024231D01*
X138501644Y-82081906D01*
X138437285Y-82109105D01*
X138368439Y-82097191D01*
X138316963Y-82049947D01*
X138305219Y-82024231D01*
X138284233Y-81959643D01*
X138209496Y-81812965D01*
X138197015Y-81788469D01*
X138084095Y-81633048D01*
X137948252Y-81497205D01*
X137792831Y-81384285D01*
X137621656Y-81297066D01*
X137438952Y-81237703D01*
X137310416Y-81217345D01*
X137249205Y-81207650D01*
X137057095Y-81207650D01*
X136995884Y-81217345D01*
X136867347Y-81237703D01*
X136684643Y-81297066D01*
X136513468Y-81384285D01*
X136434655Y-81441547D01*
X136358048Y-81497205D01*
X136358046Y-81497207D01*
X136358045Y-81497207D01*
X136222207Y-81633045D01*
X136222207Y-81633046D01*
X136222205Y-81633048D01*
X136205999Y-81655354D01*
X136109285Y-81788468D01*
X136022066Y-81959643D01*
X135962703Y-82142347D01*
X135932650Y-82332095D01*
X135932650Y-82524204D01*
X135960395Y-82699380D01*
X135951440Y-82768674D01*
X135937478Y-82792701D01*
X135932042Y-82800021D01*
X135910930Y-82821134D01*
X135895503Y-82847855D01*
X135891934Y-82854035D01*
X135891932Y-82854039D01*
X135831874Y-82958063D01*
X135831873Y-82958065D01*
X135790949Y-83110793D01*
X135790949Y-83110795D01*
X135790949Y-83278896D01*
X135790950Y-83278909D01*
X135790950Y-88131150D01*
X135771265Y-88198189D01*
X135718461Y-88243944D01*
X135666950Y-88255150D01*
X128175620Y-88255150D01*
X128175604Y-88255149D01*
X128168008Y-88255149D01*
X128009893Y-88255149D01*
X127876774Y-88290819D01*
X127876773Y-88290818D01*
X127857168Y-88296072D01*
X127857159Y-88296076D01*
X127720240Y-88375125D01*
X127720232Y-88375131D01*
X127512631Y-88582732D01*
X127512627Y-88582737D01*
X127490932Y-88620315D01*
X127490925Y-88620328D01*
X127488883Y-88623866D01*
X127433573Y-88719665D01*
X127423516Y-88757196D01*
X127418134Y-88768124D01*
X127402401Y-88785242D01*
X127390302Y-88805091D01*
X127377131Y-88812737D01*
X127370854Y-88819567D01*
X127360848Y-88822189D01*
X127345214Y-88831266D01*
X127293930Y-88847929D01*
X127111536Y-88940865D01*
X126945936Y-89061178D01*
X126801178Y-89205936D01*
X126680865Y-89371536D01*
X126587931Y-89553926D01*
X126524672Y-89748615D01*
X126492650Y-89950798D01*
X126492650Y-90155501D01*
X126524672Y-90357684D01*
X126587931Y-90552373D01*
X126680865Y-90734763D01*
X126801178Y-90900363D01*
X126945936Y-91045121D01*
X127067118Y-91133163D01*
X127111540Y-91165437D01*
X127202990Y-91212033D01*
X127204230Y-91212665D01*
X127255026Y-91260640D01*
X127271821Y-91328461D01*
X127249284Y-91394596D01*
X127204230Y-91433635D01*
X127111536Y-91480865D01*
X126945936Y-91601178D01*
X126801178Y-91745936D01*
X126680865Y-91911536D01*
X126587931Y-92093926D01*
X126524672Y-92288615D01*
X126492650Y-92490798D01*
X126492650Y-92695501D01*
X126524672Y-92897684D01*
X126587931Y-93092373D01*
X126640155Y-93194866D01*
X126661337Y-93236439D01*
X126680865Y-93274763D01*
X126801178Y-93440363D01*
X126945936Y-93585121D01*
X127091252Y-93690697D01*
X127111540Y-93705437D01*
X127198817Y-93749907D01*
X127204230Y-93752665D01*
X127255026Y-93800640D01*
X127271821Y-93868461D01*
X127249284Y-93934596D01*
X127204230Y-93973635D01*
X127111536Y-94020865D01*
X126945936Y-94141178D01*
X126801178Y-94285936D01*
X126680865Y-94451536D01*
X126587931Y-94633926D01*
X126524672Y-94828615D01*
X126492650Y-95030798D01*
X126492650Y-95235501D01*
X126524673Y-95437685D01*
X126524673Y-95437688D01*
X126578369Y-95602945D01*
X126580364Y-95672786D01*
X126548119Y-95728944D01*
X115324436Y-106952628D01*
X115212631Y-107064432D01*
X115212629Y-107064434D01*
X115189887Y-107103826D01*
X115180274Y-107120477D01*
X115178589Y-107123396D01*
X115136630Y-107196071D01*
X115133573Y-107201365D01*
X115092649Y-107354093D01*
X115092649Y-107354095D01*
X115092649Y-107522196D01*
X115092650Y-107522209D01*
X115092650Y-117740641D01*
X115092249Y-117742003D01*
X115092620Y-117743375D01*
X115082433Y-117775434D01*
X115072965Y-117807680D01*
X115071753Y-117809047D01*
X115071462Y-117809964D01*
X115067973Y-117813313D01*
X115047766Y-117836122D01*
X115041101Y-117841644D01*
X114961994Y-117890438D01*
X114864229Y-117988202D01*
X114859766Y-117991901D01*
X114832784Y-118003510D01*
X114807008Y-118017586D01*
X114801061Y-118017160D01*
X114795586Y-118019517D01*
X114766614Y-118014697D01*
X114737316Y-118012602D01*
X114731481Y-118008852D01*
X114726664Y-118008051D01*
X114717944Y-118000152D01*
X114692969Y-117984101D01*
X114599307Y-117890439D01*
X114599306Y-117890438D01*
X114468650Y-117809849D01*
X114449986Y-117798337D01*
X114449981Y-117798335D01*
X114380870Y-117775434D01*
X114283447Y-117743151D01*
X114283445Y-117743150D01*
X114180660Y-117732650D01*
X113555648Y-117732650D01*
X113555630Y-117732651D01*
X113452853Y-117743150D01*
X113452850Y-117743151D01*
X113286318Y-117798335D01*
X113286313Y-117798337D01*
X113136992Y-117890439D01*
X113012939Y-118014492D01*
X112920837Y-118163813D01*
X112920835Y-118163818D01*
X112906940Y-118205750D01*
X112865651Y-118330353D01*
X112865651Y-118330354D01*
X112865650Y-118330354D01*
X112855150Y-118433133D01*
X112855150Y-119045552D01*
X112835465Y-119112591D01*
X112818831Y-119133233D01*
X110707434Y-121244631D01*
X110646111Y-121278116D01*
X110619753Y-121280950D01*
X108844093Y-121280950D01*
X108691366Y-121321873D01*
X108691359Y-121321876D01*
X108554440Y-121400925D01*
X108554432Y-121400931D01*
X108442631Y-121512732D01*
X108442627Y-121512737D01*
X108377697Y-121625201D01*
X108327130Y-121673417D01*
X108258523Y-121686640D01*
X108257055Y-121686491D01*
X108225978Y-121683150D01*
X107903150Y-121683150D01*
X107903150Y-122567284D01*
X107900767Y-122591476D01*
X107897650Y-122607145D01*
X107897650Y-122647320D01*
X107883405Y-122633075D01*
X107797895Y-122583706D01*
X107702520Y-122558150D01*
X107603780Y-122558150D01*
X107508405Y-122583706D01*
X107422895Y-122633075D01*
X107403150Y-122652820D01*
X107403150Y-121683150D01*
X107080305Y-121683150D01*
X107020777Y-121689551D01*
X107020770Y-121689553D01*
X106886063Y-121739795D01*
X106886056Y-121739799D01*
X106770962Y-121825959D01*
X106770959Y-121825962D01*
X106684799Y-121941056D01*
X106684795Y-121941063D01*
X106634553Y-122075770D01*
X106634551Y-122075777D01*
X106628150Y-122135305D01*
X106628150Y-122683150D01*
X107372820Y-122683150D01*
X107353075Y-122702895D01*
X107303706Y-122788405D01*
X107278150Y-122883780D01*
X107278150Y-122982520D01*
X107303706Y-123077895D01*
X107353075Y-123163405D01*
X107372820Y-123183150D01*
X106628150Y-123183150D01*
X106628150Y-123730994D01*
X106634551Y-123790522D01*
X106634553Y-123790529D01*
X106684795Y-123925236D01*
X106684799Y-123925243D01*
X106770959Y-124040337D01*
X106770962Y-124040340D01*
X106886056Y-124126500D01*
X106886063Y-124126504D01*
X107020770Y-124176746D01*
X107020777Y-124176748D01*
X107080305Y-124183149D01*
X107080322Y-124183150D01*
X107403150Y-124183150D01*
X107403150Y-123213480D01*
X107422895Y-123233225D01*
X107508405Y-123282594D01*
X107603780Y-123308150D01*
X107702520Y-123308150D01*
X107797895Y-123282594D01*
X107883405Y-123233225D01*
X107897650Y-123218980D01*
X107897650Y-123259152D01*
X107900767Y-123274821D01*
X107903150Y-123299015D01*
X107903150Y-124183150D01*
X108225978Y-124183150D01*
X108225994Y-124183149D01*
X108285522Y-124176748D01*
X108285526Y-124176747D01*
X108420239Y-124126502D01*
X108421046Y-124125898D01*
X108421995Y-124125543D01*
X108428026Y-124122251D01*
X108428499Y-124123117D01*
X108486510Y-124101479D01*
X108542811Y-124110601D01*
X108624023Y-124144241D01*
X108787438Y-124176746D01*
X108822142Y-124183649D01*
X108822146Y-124183650D01*
X108822147Y-124183650D01*
X109024154Y-124183650D01*
X109024155Y-124183649D01*
X109222277Y-124144241D01*
X109408906Y-124066936D01*
X109489260Y-124013244D01*
X109555936Y-123992367D01*
X109623316Y-124010851D01*
X109627015Y-124013228D01*
X109707394Y-124066936D01*
X109894023Y-124144241D01*
X110057438Y-124176746D01*
X110092142Y-124183649D01*
X110092146Y-124183650D01*
X110092147Y-124183650D01*
X110294154Y-124183650D01*
X110294155Y-124183649D01*
X110492277Y-124144241D01*
X110678906Y-124066936D01*
X110846868Y-123954708D01*
X110989708Y-123811868D01*
X111101936Y-123643906D01*
X111179241Y-123457277D01*
X111218650Y-123259153D01*
X111218650Y-122801693D01*
X131947649Y-122801693D01*
X131986097Y-122994979D01*
X131986100Y-122994989D01*
X132061514Y-123177057D01*
X132061521Y-123177070D01*
X132171010Y-123340931D01*
X132171013Y-123340935D01*
X132310364Y-123480286D01*
X132310368Y-123480289D01*
X132474229Y-123589778D01*
X132474242Y-123589785D01*
X132604918Y-123643912D01*
X132656315Y-123665201D01*
X132656319Y-123665201D01*
X132656320Y-123665202D01*
X132849606Y-123703650D01*
X132849609Y-123703650D01*
X133046693Y-123703650D01*
X133176732Y-123677782D01*
X133239985Y-123665201D01*
X133422064Y-123589782D01*
X133585932Y-123480289D01*
X133725289Y-123340932D01*
X133834782Y-123177064D01*
X133910201Y-122994985D01*
X133948650Y-122801691D01*
X133948650Y-122604609D01*
X133948650Y-122604606D01*
X133910202Y-122411320D01*
X133910201Y-122411319D01*
X133910201Y-122411315D01*
X133899639Y-122385815D01*
X133834785Y-122229242D01*
X133834778Y-122229229D01*
X133725289Y-122065368D01*
X133725286Y-122065364D01*
X133585935Y-121926013D01*
X133585931Y-121926010D01*
X133422070Y-121816521D01*
X133422057Y-121816514D01*
X133239989Y-121741100D01*
X133239979Y-121741097D01*
X133046693Y-121702650D01*
X133046691Y-121702650D01*
X132849609Y-121702650D01*
X132849607Y-121702650D01*
X132656320Y-121741097D01*
X132656310Y-121741100D01*
X132474242Y-121816514D01*
X132474229Y-121816521D01*
X132310368Y-121926010D01*
X132310364Y-121926013D01*
X132171013Y-122065364D01*
X132171010Y-122065368D01*
X132061521Y-122229229D01*
X132061514Y-122229242D01*
X131986100Y-122411310D01*
X131986097Y-122411320D01*
X131947650Y-122604606D01*
X131947650Y-122604609D01*
X131947650Y-122801691D01*
X131947650Y-122801693D01*
X131947649Y-122801693D01*
X111218650Y-122801693D01*
X111218650Y-122607147D01*
X111199332Y-122510029D01*
X111199246Y-122509577D01*
X111202602Y-122475259D01*
X111205669Y-122440993D01*
X111205995Y-122440572D01*
X111206048Y-122440039D01*
X111227435Y-122412972D01*
X111248531Y-122385815D01*
X111249274Y-122385334D01*
X111249366Y-122385218D01*
X111249553Y-122385153D01*
X111259047Y-122379012D01*
X111288566Y-122361970D01*
X111400370Y-122250166D01*
X111400370Y-122250164D01*
X111410574Y-122239961D01*
X111410578Y-122239956D01*
X113388840Y-120261693D01*
X131947649Y-120261693D01*
X131986097Y-120454979D01*
X131986100Y-120454989D01*
X132061514Y-120637057D01*
X132061521Y-120637070D01*
X132171010Y-120800931D01*
X132171013Y-120800935D01*
X132310364Y-120940286D01*
X132310368Y-120940289D01*
X132474229Y-121049778D01*
X132474242Y-121049785D01*
X132656310Y-121125199D01*
X132656315Y-121125201D01*
X132656319Y-121125201D01*
X132656320Y-121125202D01*
X132849606Y-121163650D01*
X132849609Y-121163650D01*
X133046693Y-121163650D01*
X133176732Y-121137782D01*
X133239985Y-121125201D01*
X133422064Y-121049782D01*
X133585932Y-120940289D01*
X133585935Y-120940286D01*
X133726253Y-120799969D01*
X133787576Y-120766484D01*
X133813934Y-120763650D01*
X136463181Y-120763650D01*
X136463197Y-120763651D01*
X136470793Y-120763651D01*
X136628904Y-120763651D01*
X136628907Y-120763651D01*
X136781635Y-120722727D01*
X136831754Y-120693789D01*
X136918566Y-120643670D01*
X137030370Y-120531866D01*
X137030370Y-120531864D01*
X137040578Y-120521657D01*
X137040579Y-120521654D01*
X138635177Y-118927057D01*
X138696499Y-118893574D01*
X138766191Y-118898558D01*
X138822124Y-118940430D01*
X138837418Y-118967286D01*
X138853756Y-119006729D01*
X138853759Y-119006735D01*
X138941360Y-119137838D01*
X138941363Y-119137842D01*
X139052857Y-119249336D01*
X139052861Y-119249339D01*
X139183964Y-119336940D01*
X139183977Y-119336947D01*
X139302430Y-119386011D01*
X139329653Y-119397287D01*
X139484303Y-119428049D01*
X139484306Y-119428050D01*
X139484308Y-119428050D01*
X139641994Y-119428050D01*
X139641995Y-119428049D01*
X139796647Y-119397287D01*
X139942329Y-119336944D01*
X140073439Y-119249339D01*
X140184939Y-119137839D01*
X140272544Y-119006729D01*
X140332887Y-118861047D01*
X140363650Y-118706392D01*
X140363650Y-118678534D01*
X140383335Y-118611495D01*
X140436139Y-118565740D01*
X140505297Y-118555796D01*
X140535098Y-118563971D01*
X140594320Y-118588502D01*
X140594324Y-118588502D01*
X140594325Y-118588503D01*
X140745880Y-118618650D01*
X140745883Y-118618650D01*
X140900419Y-118618650D01*
X141002383Y-118598367D01*
X141051980Y-118588502D01*
X141194750Y-118529365D01*
X141323240Y-118443511D01*
X141370824Y-118395926D01*
X141432143Y-118362443D01*
X141501834Y-118367426D01*
X141546184Y-118395928D01*
X141593376Y-118443120D01*
X141721790Y-118528923D01*
X141843149Y-118579191D01*
X141843150Y-118579191D01*
X142343150Y-118579191D01*
X142464509Y-118528923D01*
X142592923Y-118443120D01*
X142702120Y-118333923D01*
X142787921Y-118205511D01*
X142847020Y-118062834D01*
X142847022Y-118062828D01*
X142877150Y-117911369D01*
X142877150Y-117393150D01*
X142343150Y-117393150D01*
X142343150Y-118579191D01*
X141843150Y-118579191D01*
X141843150Y-116893150D01*
X142343150Y-116893150D01*
X142877150Y-116893150D01*
X142877150Y-116374930D01*
X142847022Y-116223471D01*
X142847020Y-116223465D01*
X142787921Y-116080788D01*
X142702120Y-115952376D01*
X142592921Y-115843177D01*
X142464519Y-115757382D01*
X142464509Y-115757377D01*
X142343150Y-115707108D01*
X142343150Y-116893150D01*
X141843150Y-116893150D01*
X141843150Y-115707108D01*
X141843149Y-115707108D01*
X141721790Y-115757377D01*
X141721780Y-115757382D01*
X141593378Y-115843177D01*
X141593375Y-115843180D01*
X141546185Y-115890371D01*
X141484862Y-115923856D01*
X141415170Y-115918872D01*
X141370823Y-115890371D01*
X141323243Y-115842791D01*
X141323235Y-115842785D01*
X141194751Y-115756935D01*
X141194748Y-115756933D01*
X141051984Y-115697799D01*
X141051974Y-115697796D01*
X140900419Y-115667650D01*
X140900417Y-115667650D01*
X140745883Y-115667650D01*
X140745881Y-115667650D01*
X140594325Y-115697796D01*
X140594315Y-115697799D01*
X140451551Y-115756933D01*
X140451548Y-115756935D01*
X140323064Y-115842785D01*
X140323056Y-115842791D01*
X140280831Y-115885017D01*
X140219508Y-115918502D01*
X140149816Y-115913518D01*
X140105469Y-115885017D01*
X140063243Y-115842791D01*
X140063235Y-115842785D01*
X139934751Y-115756935D01*
X139934748Y-115756933D01*
X139791984Y-115697799D01*
X139791974Y-115697796D01*
X139640419Y-115667650D01*
X139640417Y-115667650D01*
X139485883Y-115667650D01*
X139485881Y-115667650D01*
X139334325Y-115697796D01*
X139334315Y-115697799D01*
X139191551Y-115756933D01*
X139191548Y-115756935D01*
X139063064Y-115842785D01*
X139063056Y-115842791D01*
X139015831Y-115890017D01*
X138954508Y-115923502D01*
X138884816Y-115918518D01*
X138840469Y-115890017D01*
X138793243Y-115842791D01*
X138793235Y-115842785D01*
X138664751Y-115756935D01*
X138664748Y-115756933D01*
X138521984Y-115697799D01*
X138521974Y-115697796D01*
X138370419Y-115667650D01*
X138370417Y-115667650D01*
X138215883Y-115667650D01*
X138215881Y-115667650D01*
X138064325Y-115697796D01*
X138064315Y-115697799D01*
X137921551Y-115756933D01*
X137921548Y-115756935D01*
X137793064Y-115842785D01*
X137793056Y-115842791D01*
X137683791Y-115952056D01*
X137683785Y-115952064D01*
X137597935Y-116080548D01*
X137597933Y-116080551D01*
X137538799Y-116223315D01*
X137538796Y-116223325D01*
X137508650Y-116374880D01*
X137508650Y-116374883D01*
X137508650Y-117911417D01*
X137508650Y-117911419D01*
X137508649Y-117911419D01*
X137538796Y-118062974D01*
X137538799Y-118062984D01*
X137583824Y-118171685D01*
X137591293Y-118241154D01*
X137560017Y-118303633D01*
X137556944Y-118306818D01*
X136337434Y-119526331D01*
X136276111Y-119559816D01*
X136249753Y-119562650D01*
X133813934Y-119562650D01*
X133746895Y-119542965D01*
X133726253Y-119526331D01*
X133585935Y-119386013D01*
X133585931Y-119386010D01*
X133422070Y-119276521D01*
X133422057Y-119276514D01*
X133239989Y-119201100D01*
X133239979Y-119201097D01*
X133046693Y-119162650D01*
X133046691Y-119162650D01*
X132849609Y-119162650D01*
X132849607Y-119162650D01*
X132656320Y-119201097D01*
X132656310Y-119201100D01*
X132474242Y-119276514D01*
X132474229Y-119276521D01*
X132310368Y-119386010D01*
X132310364Y-119386013D01*
X132171013Y-119525364D01*
X132171010Y-119525368D01*
X132061521Y-119689229D01*
X132061514Y-119689242D01*
X131986100Y-119871310D01*
X131986097Y-119871320D01*
X131947650Y-120064606D01*
X131947650Y-120064609D01*
X131947650Y-120261691D01*
X131947650Y-120261693D01*
X131947649Y-120261693D01*
X113388840Y-120261693D01*
X113480567Y-120169966D01*
X113541888Y-120136483D01*
X113568236Y-120133649D01*
X114180658Y-120133649D01*
X114180666Y-120133648D01*
X114180669Y-120133648D01*
X114236952Y-120127898D01*
X114283447Y-120123149D01*
X114449984Y-120067964D01*
X114599306Y-119975862D01*
X114692969Y-119882199D01*
X114754292Y-119848714D01*
X114823984Y-119853698D01*
X114868331Y-119882199D01*
X114961994Y-119975862D01*
X115111316Y-120067964D01*
X115277853Y-120123149D01*
X115380641Y-120133650D01*
X116005658Y-120133649D01*
X116005666Y-120133648D01*
X116005669Y-120133648D01*
X116061952Y-120127898D01*
X116108447Y-120123149D01*
X116274984Y-120067964D01*
X116424306Y-119975862D01*
X116548362Y-119851806D01*
X116640464Y-119702484D01*
X116695649Y-119535947D01*
X116706150Y-119433159D01*
X116706149Y-118433142D01*
X116695649Y-118330353D01*
X116640464Y-118163816D01*
X116548362Y-118014494D01*
X116424306Y-117890438D01*
X116424305Y-117890437D01*
X116352552Y-117846179D01*
X116305828Y-117794231D01*
X116293650Y-117740641D01*
X116293650Y-112134727D01*
X125492650Y-112134727D01*
X125492650Y-112331572D01*
X125523440Y-112525976D01*
X125584267Y-112713179D01*
X125637657Y-112817962D01*
X125673626Y-112888555D01*
X125789322Y-113047796D01*
X125928504Y-113186978D01*
X126087745Y-113302674D01*
X126124719Y-113321513D01*
X126263120Y-113392032D01*
X126263122Y-113392032D01*
X126263125Y-113392034D01*
X126363467Y-113424637D01*
X126450323Y-113452859D01*
X126644728Y-113483650D01*
X126644733Y-113483650D01*
X126841572Y-113483650D01*
X127035976Y-113452859D01*
X127223175Y-113392034D01*
X127398555Y-113302674D01*
X127557796Y-113186978D01*
X127696978Y-113047796D01*
X127812674Y-112888555D01*
X127902034Y-112713175D01*
X127962859Y-112525976D01*
X127968333Y-112491417D01*
X127993650Y-112331572D01*
X127993650Y-112134727D01*
X127962859Y-111940323D01*
X127902032Y-111753120D01*
X127854893Y-111660605D01*
X127812674Y-111577745D01*
X127696978Y-111418504D01*
X127557796Y-111279322D01*
X127398555Y-111163626D01*
X127223179Y-111074267D01*
X127035976Y-111013440D01*
X126841572Y-110982650D01*
X126841567Y-110982650D01*
X126644733Y-110982650D01*
X126644728Y-110982650D01*
X126450323Y-111013440D01*
X126263120Y-111074267D01*
X126087744Y-111163626D01*
X126016194Y-111215611D01*
X125928504Y-111279322D01*
X125928502Y-111279324D01*
X125928501Y-111279324D01*
X125789324Y-111418501D01*
X125789324Y-111418502D01*
X125789322Y-111418504D01*
X125748234Y-111475057D01*
X125673626Y-111577744D01*
X125584267Y-111753120D01*
X125523440Y-111940323D01*
X125492650Y-112134727D01*
X116293650Y-112134727D01*
X116293650Y-107733246D01*
X116313335Y-107666207D01*
X116329964Y-107645570D01*
X126281107Y-97694426D01*
X126342428Y-97660943D01*
X126412120Y-97665927D01*
X126468053Y-97707799D01*
X126491777Y-97770707D01*
X126491888Y-97770690D01*
X126491972Y-97771226D01*
X126492402Y-97772364D01*
X126492648Y-97775492D01*
X126524672Y-97977684D01*
X126587931Y-98172373D01*
X126635031Y-98264810D01*
X126677647Y-98348449D01*
X126680865Y-98354763D01*
X126801178Y-98520363D01*
X126805558Y-98524743D01*
X126839043Y-98586066D01*
X126834059Y-98655758D01*
X126805558Y-98700105D01*
X126291192Y-99214471D01*
X126291185Y-99214478D01*
X126287836Y-99217828D01*
X126287834Y-99217830D01*
X126176030Y-99329634D01*
X126148068Y-99378066D01*
X126096973Y-99466565D01*
X126056049Y-99619293D01*
X126056049Y-99619295D01*
X126056049Y-99787396D01*
X126056050Y-99787409D01*
X126056050Y-103090280D01*
X126056049Y-103090298D01*
X126056049Y-103256004D01*
X126056048Y-103256004D01*
X126096973Y-103408735D01*
X126107815Y-103427513D01*
X126107816Y-103427516D01*
X126176025Y-103545659D01*
X126176031Y-103545667D01*
X126294899Y-103664535D01*
X126294905Y-103664540D01*
X126851059Y-104220694D01*
X126884544Y-104282017D01*
X126879560Y-104351709D01*
X126851059Y-104396056D01*
X126801182Y-104445932D01*
X126801178Y-104445936D01*
X126680865Y-104611536D01*
X126587931Y-104793926D01*
X126524672Y-104988615D01*
X126493861Y-105183150D01*
X126492650Y-105190798D01*
X126492650Y-105395502D01*
X126495798Y-105415375D01*
X126524672Y-105597684D01*
X126587931Y-105792373D01*
X126629269Y-105873501D01*
X126674441Y-105962157D01*
X126680865Y-105974763D01*
X126801178Y-106140363D01*
X126832413Y-106171598D01*
X126865898Y-106232921D01*
X126860914Y-106302613D01*
X126819042Y-106358546D01*
X126788067Y-106375460D01*
X126750823Y-106389351D01*
X126750814Y-106389356D01*
X126635605Y-106475602D01*
X126635602Y-106475605D01*
X126549356Y-106590814D01*
X126549352Y-106590821D01*
X126499058Y-106725667D01*
X126492651Y-106785266D01*
X126492650Y-106785285D01*
X126492650Y-108881020D01*
X126492651Y-108881026D01*
X126499058Y-108940633D01*
X126549352Y-109075478D01*
X126549356Y-109075485D01*
X126635602Y-109190694D01*
X126635605Y-109190697D01*
X126750814Y-109276943D01*
X126750821Y-109276947D01*
X126885667Y-109327241D01*
X126885666Y-109327241D01*
X126892594Y-109327985D01*
X126945277Y-109333650D01*
X129041022Y-109333649D01*
X129100633Y-109327241D01*
X129162441Y-109304187D01*
X129232131Y-109299204D01*
X129293451Y-109332686D01*
X129293454Y-109332689D01*
X131433052Y-111472288D01*
X131466537Y-111533611D01*
X131468730Y-111572566D01*
X131467650Y-111583138D01*
X131467650Y-112183151D01*
X131467651Y-112183169D01*
X131478150Y-112285946D01*
X131478151Y-112285949D01*
X131520802Y-112414660D01*
X131533336Y-112452484D01*
X131625438Y-112601806D01*
X131749494Y-112725862D01*
X131898816Y-112817964D01*
X132065353Y-112873149D01*
X132168141Y-112883650D01*
X132556150Y-112883649D01*
X132623189Y-112903333D01*
X132668944Y-112956137D01*
X132680150Y-113007649D01*
X132680150Y-116240641D01*
X132660465Y-116307680D01*
X132621248Y-116346179D01*
X132549494Y-116390437D01*
X132425439Y-116514492D01*
X132333337Y-116663813D01*
X132333335Y-116663818D01*
X132333265Y-116664030D01*
X132278151Y-116830353D01*
X132278151Y-116830354D01*
X132278150Y-116830354D01*
X132267650Y-116933133D01*
X132267650Y-117933151D01*
X132267651Y-117933169D01*
X132278150Y-118035946D01*
X132278151Y-118035949D01*
X132287110Y-118062984D01*
X132333336Y-118202484D01*
X132425438Y-118351806D01*
X132549494Y-118475862D01*
X132698816Y-118567964D01*
X132865353Y-118623149D01*
X132968141Y-118633650D01*
X133593158Y-118633649D01*
X133593166Y-118633648D01*
X133593169Y-118633648D01*
X133649452Y-118627898D01*
X133695947Y-118623149D01*
X133862484Y-118567964D01*
X134011806Y-118475862D01*
X134105825Y-118381842D01*
X134167144Y-118348360D01*
X134236836Y-118353344D01*
X134281184Y-118381845D01*
X134374804Y-118475465D01*
X134524025Y-118567506D01*
X134524030Y-118567508D01*
X134690452Y-118622655D01*
X134690459Y-118622656D01*
X134793169Y-118633149D01*
X135355650Y-118633149D01*
X135418122Y-118633149D01*
X135418136Y-118633148D01*
X135520847Y-118622655D01*
X135687269Y-118567508D01*
X135687274Y-118567506D01*
X135836495Y-118475465D01*
X135960465Y-118351495D01*
X136052506Y-118202274D01*
X136052508Y-118202269D01*
X136107655Y-118035847D01*
X136107656Y-118035840D01*
X136118149Y-117933136D01*
X136118150Y-117933123D01*
X136118150Y-117683150D01*
X135355650Y-117683150D01*
X135355650Y-118633149D01*
X134793169Y-118633149D01*
X134855649Y-118633148D01*
X134855650Y-118633148D01*
X134855650Y-116233150D01*
X134855649Y-116233149D01*
X134793178Y-116233150D01*
X134793161Y-116233151D01*
X134690452Y-116243644D01*
X134524030Y-116298791D01*
X134524025Y-116298793D01*
X134374807Y-116390832D01*
X134281184Y-116484455D01*
X134278393Y-116485978D01*
X134276735Y-116488688D01*
X134247934Y-116502609D01*
X134219860Y-116517939D01*
X134216691Y-116517712D01*
X134213829Y-116519096D01*
X134182079Y-116515237D01*
X134150169Y-116512955D01*
X134146676Y-116510934D01*
X134144470Y-116510666D01*
X134134340Y-116503796D01*
X134114368Y-116492239D01*
X134109919Y-116488551D01*
X134011806Y-116390438D01*
X133932684Y-116341635D01*
X133926015Y-116336107D01*
X133911133Y-116314027D01*
X133893328Y-116294231D01*
X133891057Y-116284240D01*
X133886965Y-116278168D01*
X133886676Y-116264959D01*
X133881150Y-116240641D01*
X133881150Y-115594200D01*
X133900835Y-115527161D01*
X133953639Y-115481406D01*
X134022797Y-115471462D01*
X134070245Y-115488661D01*
X134129878Y-115525443D01*
X134198807Y-115567959D01*
X134198810Y-115567960D01*
X134198816Y-115567964D01*
X134365353Y-115623149D01*
X134468141Y-115633650D01*
X134860890Y-115633649D01*
X134927929Y-115653333D01*
X134963611Y-115692005D01*
X134965171Y-115690964D01*
X135056160Y-115827138D01*
X135056163Y-115827142D01*
X135167657Y-115938636D01*
X135167661Y-115938639D01*
X135298764Y-116026240D01*
X135298768Y-116026242D01*
X135298771Y-116026244D01*
X135313326Y-116032272D01*
X135313843Y-116032487D01*
X135368246Y-116076329D01*
X135390310Y-116142623D01*
X135373030Y-116210322D01*
X135355650Y-116232696D01*
X135355650Y-117183150D01*
X136118149Y-117183150D01*
X136118149Y-116933178D01*
X136118148Y-116933163D01*
X136107655Y-116830452D01*
X136052508Y-116664030D01*
X136052506Y-116664025D01*
X135960465Y-116514804D01*
X135836495Y-116390834D01*
X135750291Y-116337663D01*
X135703567Y-116285715D01*
X135692344Y-116216752D01*
X135720188Y-116152670D01*
X135778257Y-116113814D01*
X135791197Y-116110507D01*
X135853042Y-116098204D01*
X135911447Y-116086587D01*
X136057129Y-116026244D01*
X136188239Y-115938639D01*
X136299739Y-115827139D01*
X136387344Y-115696029D01*
X136387343Y-115696029D01*
X136390729Y-115690963D01*
X136392543Y-115692175D01*
X136434630Y-115649343D01*
X136495010Y-115633649D01*
X136918152Y-115633649D01*
X136918158Y-115633649D01*
X137020947Y-115623149D01*
X137187484Y-115567964D01*
X137336806Y-115475862D01*
X137460862Y-115351806D01*
X137552964Y-115202484D01*
X137608149Y-115035947D01*
X137618650Y-114933159D01*
X137618649Y-113933142D01*
X137608149Y-113830353D01*
X137552964Y-113663816D01*
X137460862Y-113514494D01*
X137336806Y-113390438D01*
X137336805Y-113390437D01*
X137265052Y-113346179D01*
X137218328Y-113294231D01*
X137206150Y-113240641D01*
X137206150Y-112565115D01*
X137211478Y-112546969D01*
X137211816Y-112528061D01*
X137225315Y-112499845D01*
X137225835Y-112498076D01*
X137227048Y-112496224D01*
X137281548Y-112414660D01*
X137335161Y-112369855D01*
X137404486Y-112361148D01*
X137467513Y-112391303D01*
X137504232Y-112450746D01*
X137508650Y-112483551D01*
X137508650Y-112491417D01*
X137508650Y-112491419D01*
X137508649Y-112491419D01*
X137538796Y-112642974D01*
X137538799Y-112642984D01*
X137597933Y-112785748D01*
X137597935Y-112785751D01*
X137683785Y-112914235D01*
X137683791Y-112914243D01*
X137793056Y-113023508D01*
X137793064Y-113023514D01*
X137921548Y-113109364D01*
X137921551Y-113109366D01*
X138064315Y-113168500D01*
X138064320Y-113168502D01*
X138064324Y-113168502D01*
X138064325Y-113168503D01*
X138215880Y-113198650D01*
X138215883Y-113198650D01*
X138370419Y-113198650D01*
X138472383Y-113178367D01*
X138521980Y-113168502D01*
X138664750Y-113109365D01*
X138793240Y-113023511D01*
X138809102Y-113007649D01*
X138840469Y-112976283D01*
X138901792Y-112942798D01*
X138971484Y-112947782D01*
X139015831Y-112976283D01*
X139063056Y-113023508D01*
X139063064Y-113023514D01*
X139191548Y-113109364D01*
X139191551Y-113109366D01*
X139334315Y-113168500D01*
X139334320Y-113168502D01*
X139334324Y-113168502D01*
X139334325Y-113168503D01*
X139485880Y-113198650D01*
X139485883Y-113198650D01*
X139640419Y-113198650D01*
X139742383Y-113178367D01*
X139791980Y-113168502D01*
X139934750Y-113109365D01*
X140063240Y-113023511D01*
X140079102Y-113007649D01*
X140105469Y-112981283D01*
X140166792Y-112947798D01*
X140236484Y-112952782D01*
X140280831Y-112981283D01*
X140323056Y-113023508D01*
X140323064Y-113023514D01*
X140451548Y-113109364D01*
X140451551Y-113109366D01*
X140594315Y-113168500D01*
X140594320Y-113168502D01*
X140594324Y-113168502D01*
X140594325Y-113168503D01*
X140745880Y-113198650D01*
X140745883Y-113198650D01*
X140900419Y-113198650D01*
X141002383Y-113178367D01*
X141051980Y-113168502D01*
X141194750Y-113109365D01*
X141323240Y-113023511D01*
X141339102Y-113007649D01*
X141370469Y-112976283D01*
X141431792Y-112942798D01*
X141501484Y-112947782D01*
X141545831Y-112976283D01*
X141593056Y-113023508D01*
X141593064Y-113023514D01*
X141721548Y-113109364D01*
X141721551Y-113109366D01*
X141864315Y-113168500D01*
X141864320Y-113168502D01*
X141864324Y-113168502D01*
X141864325Y-113168503D01*
X142015880Y-113198650D01*
X142015883Y-113198650D01*
X142170419Y-113198650D01*
X142272383Y-113178367D01*
X142321980Y-113168502D01*
X142464750Y-113109365D01*
X142593240Y-113023511D01*
X142702511Y-112914240D01*
X142788365Y-112785750D01*
X142847502Y-112642980D01*
X142857367Y-112593383D01*
X142877650Y-112491419D01*
X142877650Y-110954880D01*
X142847503Y-110803325D01*
X142847502Y-110803324D01*
X142847502Y-110803320D01*
X142801891Y-110693206D01*
X142794423Y-110623738D01*
X142801892Y-110598302D01*
X142802544Y-110596729D01*
X142862887Y-110451047D01*
X142893650Y-110296392D01*
X142893650Y-110138708D01*
X142893650Y-110138705D01*
X142893649Y-110138703D01*
X142862887Y-109984053D01*
X142836392Y-109920088D01*
X142802547Y-109838377D01*
X142802540Y-109838364D01*
X142714939Y-109707261D01*
X142714936Y-109707257D01*
X142603442Y-109595763D01*
X142603438Y-109595760D01*
X142472335Y-109508159D01*
X142472322Y-109508152D01*
X142326651Y-109447814D01*
X142326639Y-109447811D01*
X142171301Y-109416912D01*
X142109390Y-109384527D01*
X142107863Y-109383027D01*
X141640039Y-108915204D01*
X141640038Y-108915202D01*
X141521167Y-108796331D01*
X141521162Y-108796327D01*
X141425378Y-108741027D01*
X141425377Y-108741026D01*
X141384240Y-108717275D01*
X141384239Y-108717274D01*
X141371713Y-108713917D01*
X141231507Y-108676349D01*
X141073393Y-108676349D01*
X141065797Y-108676349D01*
X141065781Y-108676350D01*
X139416947Y-108676350D01*
X139387506Y-108667705D01*
X139357520Y-108661182D01*
X139352504Y-108657427D01*
X139349908Y-108656665D01*
X139329266Y-108640031D01*
X139276666Y-108587431D01*
X139243181Y-108526108D01*
X139248165Y-108456416D01*
X139290037Y-108400483D01*
X139355501Y-108376066D01*
X139360655Y-108375881D01*
X139361986Y-108375750D01*
X139361992Y-108375750D01*
X139516647Y-108344987D01*
X139662329Y-108284644D01*
X139793439Y-108197039D01*
X139904939Y-108085539D01*
X139992544Y-107954429D01*
X140052887Y-107808747D01*
X140083650Y-107654092D01*
X140083650Y-107600304D01*
X140103335Y-107533265D01*
X140156139Y-107487510D01*
X140225297Y-107477566D01*
X140255094Y-107485740D01*
X140325277Y-107514811D01*
X140476325Y-107544856D01*
X140482825Y-107546149D01*
X140482829Y-107546150D01*
X140482830Y-107546150D01*
X140643471Y-107546150D01*
X140643472Y-107546149D01*
X140801023Y-107514811D01*
X140949434Y-107453337D01*
X141083001Y-107364090D01*
X141105469Y-107341621D01*
X141166790Y-107308137D01*
X141236481Y-107313120D01*
X141280830Y-107341621D01*
X141293302Y-107354093D01*
X141303300Y-107364091D01*
X141436859Y-107453333D01*
X141436865Y-107453336D01*
X141436866Y-107453337D01*
X141585277Y-107514811D01*
X141736325Y-107544856D01*
X141742825Y-107546149D01*
X141742829Y-107546150D01*
X141742830Y-107546150D01*
X141903471Y-107546150D01*
X141903472Y-107546149D01*
X142061023Y-107514811D01*
X142209434Y-107453337D01*
X142343001Y-107364090D01*
X142370823Y-107336267D01*
X142432144Y-107302783D01*
X142501836Y-107307767D01*
X142546187Y-107336269D01*
X142573619Y-107363702D01*
X142707096Y-107452889D01*
X142707106Y-107452894D01*
X142843149Y-107509245D01*
X142843150Y-107509245D01*
X143343150Y-107509245D01*
X143479193Y-107452894D01*
X143479203Y-107452889D01*
X143612681Y-107363701D01*
X143612685Y-107363698D01*
X143726198Y-107250185D01*
X143726204Y-107250177D01*
X143815391Y-107116699D01*
X143815393Y-107116695D01*
X143876829Y-106968377D01*
X143876831Y-106968369D01*
X143908149Y-106810924D01*
X143908150Y-106810921D01*
X143908150Y-106363150D01*
X143343150Y-106363150D01*
X143343150Y-107509245D01*
X142843150Y-107509245D01*
X142843150Y-105863150D01*
X143343150Y-105863150D01*
X143908150Y-105863150D01*
X143908150Y-105415379D01*
X143908149Y-105415375D01*
X143876831Y-105257930D01*
X143876829Y-105257922D01*
X143815393Y-105109604D01*
X143815391Y-105109600D01*
X143726204Y-104976122D01*
X143726198Y-104976114D01*
X143612685Y-104862601D01*
X143612677Y-104862595D01*
X143479201Y-104773409D01*
X143343150Y-104717053D01*
X143343150Y-105863150D01*
X142843150Y-105863150D01*
X142843150Y-104717053D01*
X142707102Y-104773408D01*
X142672307Y-104796657D01*
X142605629Y-104817534D01*
X142538249Y-104799049D01*
X142491559Y-104747069D01*
X142480384Y-104678099D01*
X142500314Y-104624664D01*
X142532544Y-104576429D01*
X142592887Y-104430747D01*
X142623650Y-104276092D01*
X142623650Y-104118408D01*
X142623650Y-104118405D01*
X142623649Y-104118403D01*
X142618913Y-104094596D01*
X142592887Y-103963753D01*
X142552164Y-103865438D01*
X142532547Y-103818077D01*
X142532540Y-103818064D01*
X142444939Y-103686961D01*
X142444936Y-103686957D01*
X142333442Y-103575463D01*
X142333438Y-103575460D01*
X142202335Y-103487859D01*
X142202322Y-103487852D01*
X142056651Y-103427514D01*
X142056639Y-103427511D01*
X141901996Y-103396750D01*
X141895932Y-103396153D01*
X141896111Y-103394330D01*
X141837311Y-103377065D01*
X141791556Y-103324261D01*
X141780350Y-103272750D01*
X141780350Y-102310150D01*
X141800035Y-102243111D01*
X141852839Y-102197356D01*
X141897497Y-102187640D01*
X141897409Y-102186747D01*
X141903464Y-102186150D01*
X141903470Y-102186150D01*
X142061023Y-102154811D01*
X142209434Y-102093337D01*
X142343001Y-102004090D01*
X142370469Y-101976621D01*
X142431790Y-101943137D01*
X142501482Y-101948121D01*
X142545830Y-101976621D01*
X142569242Y-102000033D01*
X142573300Y-102004091D01*
X142706859Y-102093333D01*
X142706865Y-102093336D01*
X142706866Y-102093337D01*
X142855277Y-102154811D01*
X142959349Y-102175512D01*
X143012825Y-102186149D01*
X143012829Y-102186150D01*
X143012830Y-102186150D01*
X143173471Y-102186150D01*
X143173472Y-102186149D01*
X143331023Y-102154811D01*
X143479434Y-102093337D01*
X143613001Y-102004090D01*
X143726590Y-101890501D01*
X143815837Y-101756934D01*
X143877311Y-101608523D01*
X143908650Y-101450970D01*
X143908650Y-100055330D01*
X143877311Y-99897777D01*
X143815837Y-99749366D01*
X143815836Y-99749365D01*
X143815833Y-99749359D01*
X143726590Y-99615799D01*
X143726587Y-99615795D01*
X143613004Y-99502212D01*
X143613000Y-99502209D01*
X143479440Y-99412966D01*
X143479431Y-99412961D01*
X143331023Y-99351489D01*
X143331015Y-99351487D01*
X143173474Y-99320150D01*
X143173470Y-99320150D01*
X143012830Y-99320150D01*
X143012825Y-99320150D01*
X142855284Y-99351487D01*
X142855276Y-99351489D01*
X142706868Y-99412961D01*
X142706859Y-99412966D01*
X142573299Y-99502209D01*
X142573295Y-99502212D01*
X142545831Y-99529677D01*
X142484508Y-99563162D01*
X142414816Y-99558178D01*
X142370469Y-99529677D01*
X142343004Y-99502212D01*
X142343000Y-99502209D01*
X142209440Y-99412966D01*
X142209431Y-99412961D01*
X142061023Y-99351489D01*
X142061015Y-99351487D01*
X141903474Y-99320150D01*
X141897409Y-99319553D01*
X141897546Y-99318152D01*
X141837311Y-99300465D01*
X141791556Y-99247661D01*
X141780350Y-99196150D01*
X141780350Y-98531147D01*
X141800035Y-98464108D01*
X141816669Y-98443466D01*
X145480969Y-94779166D01*
X145542292Y-94745681D01*
X145611984Y-94750665D01*
X145667917Y-94792537D01*
X145692334Y-94858001D01*
X145692650Y-94866847D01*
X145692650Y-125808650D01*
X145672965Y-125875689D01*
X145620161Y-125921444D01*
X145568650Y-125932650D01*
X84817650Y-125932650D01*
X84750611Y-125912965D01*
X84704856Y-125860161D01*
X84693650Y-125808650D01*
X84693650Y-100985285D01*
X85192650Y-100985285D01*
X85192650Y-102081020D01*
X85192651Y-102081026D01*
X85199058Y-102140633D01*
X85249352Y-102275478D01*
X85249356Y-102275485D01*
X85335602Y-102390694D01*
X85335605Y-102390697D01*
X85450814Y-102476943D01*
X85450821Y-102476947D01*
X85585667Y-102527241D01*
X85585666Y-102527241D01*
X85592594Y-102527985D01*
X85645277Y-102533650D01*
X87441022Y-102533649D01*
X87500633Y-102527241D01*
X87635481Y-102476946D01*
X87750696Y-102390696D01*
X87836946Y-102275481D01*
X87883624Y-102150329D01*
X87925495Y-102094397D01*
X87937790Y-102086285D01*
X88063566Y-102013670D01*
X88175370Y-101901866D01*
X88254427Y-101764934D01*
X88295350Y-101612207D01*
X88295350Y-99556546D01*
X88303994Y-99527105D01*
X88310518Y-99497119D01*
X88314272Y-99492103D01*
X88315035Y-99489507D01*
X88331665Y-99468869D01*
X88493066Y-99307467D01*
X88554389Y-99273983D01*
X88580747Y-99271149D01*
X88805552Y-99271149D01*
X88872591Y-99290834D01*
X88893232Y-99307467D01*
X89879488Y-100293724D01*
X90863381Y-101277617D01*
X90862662Y-101278335D01*
X90881599Y-101298553D01*
X90883661Y-101301639D01*
X90883665Y-101301644D01*
X90995157Y-101413136D01*
X90995162Y-101413140D01*
X91035839Y-101440319D01*
X91080645Y-101493931D01*
X91090950Y-101543422D01*
X91090950Y-101612207D01*
X91129730Y-101756934D01*
X91131873Y-101764933D01*
X91131876Y-101764940D01*
X91210925Y-101901859D01*
X91210929Y-101901864D01*
X91210930Y-101901866D01*
X91322734Y-102013670D01*
X91448493Y-102086276D01*
X91496708Y-102136842D01*
X91502675Y-102150330D01*
X91549352Y-102275478D01*
X91549356Y-102275485D01*
X91635602Y-102390694D01*
X91635605Y-102390697D01*
X91750814Y-102476943D01*
X91750821Y-102476947D01*
X91885667Y-102527241D01*
X91885666Y-102527241D01*
X91892594Y-102527985D01*
X91945277Y-102533650D01*
X93741022Y-102533649D01*
X93800633Y-102527241D01*
X93935481Y-102476946D01*
X94050696Y-102390696D01*
X94136946Y-102275481D01*
X94144986Y-102253926D01*
X94174232Y-102175512D01*
X94194139Y-102148917D01*
X94213290Y-102121746D01*
X94215198Y-102120784D01*
X94216102Y-102119578D01*
X94243770Y-102103951D01*
X94250883Y-102101063D01*
X94326034Y-102080927D01*
X94386567Y-102045978D01*
X94394502Y-102042757D01*
X94414741Y-102040725D01*
X94441146Y-102033650D01*
X94543053Y-102033650D01*
X94610092Y-102053335D01*
X94630734Y-102069969D01*
X95106331Y-102545566D01*
X95139816Y-102606889D01*
X95142650Y-102633247D01*
X95142650Y-103723351D01*
X95122965Y-103790390D01*
X95083748Y-103828889D01*
X95024494Y-103865437D01*
X94900439Y-103989492D01*
X94808337Y-104138813D01*
X94808335Y-104138818D01*
X94808265Y-104139030D01*
X94753151Y-104305353D01*
X94753151Y-104305354D01*
X94753150Y-104305354D01*
X94742650Y-104408133D01*
X94742650Y-104608650D01*
X94722965Y-104675689D01*
X94670161Y-104721444D01*
X94618650Y-104732650D01*
X94275941Y-104732650D01*
X94208902Y-104712965D01*
X94163147Y-104660161D01*
X94159759Y-104651983D01*
X94136947Y-104590821D01*
X94136943Y-104590814D01*
X94050697Y-104475605D01*
X94050694Y-104475602D01*
X93935485Y-104389356D01*
X93935478Y-104389352D01*
X93800632Y-104339058D01*
X93800633Y-104339058D01*
X93741033Y-104332651D01*
X93741031Y-104332650D01*
X93741023Y-104332650D01*
X93741014Y-104332650D01*
X91945279Y-104332650D01*
X91945273Y-104332651D01*
X91885666Y-104339058D01*
X91750821Y-104389352D01*
X91750814Y-104389356D01*
X91635605Y-104475602D01*
X91635602Y-104475605D01*
X91549356Y-104590814D01*
X91549352Y-104590821D01*
X91526541Y-104651983D01*
X91484670Y-104707917D01*
X91419206Y-104732334D01*
X91410359Y-104732650D01*
X87975941Y-104732650D01*
X87908902Y-104712965D01*
X87863147Y-104660161D01*
X87859759Y-104651983D01*
X87836947Y-104590821D01*
X87836943Y-104590814D01*
X87750697Y-104475605D01*
X87750694Y-104475602D01*
X87635485Y-104389356D01*
X87635478Y-104389352D01*
X87500632Y-104339058D01*
X87500633Y-104339058D01*
X87441033Y-104332651D01*
X87441031Y-104332650D01*
X87441023Y-104332650D01*
X87441014Y-104332650D01*
X85645279Y-104332650D01*
X85645273Y-104332651D01*
X85585666Y-104339058D01*
X85450821Y-104389352D01*
X85450814Y-104389356D01*
X85335605Y-104475602D01*
X85335602Y-104475605D01*
X85249356Y-104590814D01*
X85249352Y-104590821D01*
X85199058Y-104725667D01*
X85192651Y-104785266D01*
X85192650Y-104785285D01*
X85192650Y-105881020D01*
X85192651Y-105881026D01*
X85199058Y-105940633D01*
X85249352Y-106075478D01*
X85249356Y-106075485D01*
X85335602Y-106190694D01*
X85335605Y-106190697D01*
X85450814Y-106276943D01*
X85450821Y-106276947D01*
X85585667Y-106327241D01*
X85585666Y-106327241D01*
X85592594Y-106327985D01*
X85645277Y-106333650D01*
X87441022Y-106333649D01*
X87500633Y-106327241D01*
X87635481Y-106276946D01*
X87750696Y-106190696D01*
X87836946Y-106075481D01*
X87846836Y-106048964D01*
X87859759Y-106014317D01*
X87901630Y-105958383D01*
X87967094Y-105933966D01*
X87975941Y-105933650D01*
X91410359Y-105933650D01*
X91477398Y-105953335D01*
X91523153Y-106006139D01*
X91526541Y-106014317D01*
X91549352Y-106075478D01*
X91549356Y-106075485D01*
X91635602Y-106190694D01*
X91635605Y-106190697D01*
X91750814Y-106276943D01*
X91750821Y-106276947D01*
X91885667Y-106327241D01*
X91885666Y-106327241D01*
X91892594Y-106327985D01*
X91945277Y-106333650D01*
X93270350Y-106333649D01*
X93337389Y-106353334D01*
X93383144Y-106406137D01*
X93394350Y-106457649D01*
X93394350Y-107110716D01*
X93374665Y-107177755D01*
X93321861Y-107223510D01*
X93309355Y-107228422D01*
X93173816Y-107273336D01*
X93173813Y-107273337D01*
X93024492Y-107365439D01*
X92900439Y-107489492D01*
X92808337Y-107638813D01*
X92808335Y-107638818D01*
X92794064Y-107681885D01*
X92753151Y-107805353D01*
X92753151Y-107805354D01*
X92753150Y-107805354D01*
X92742650Y-107908133D01*
X92742650Y-108958151D01*
X92742651Y-108958169D01*
X92753150Y-109060946D01*
X92753151Y-109060949D01*
X92796146Y-109190697D01*
X92808336Y-109227484D01*
X92900438Y-109376806D01*
X93024494Y-109500862D01*
X93083746Y-109537408D01*
X93130471Y-109589354D01*
X93142650Y-109642947D01*
X93142650Y-111981352D01*
X93122965Y-112048391D01*
X93106331Y-112069033D01*
X90412631Y-114762732D01*
X90412629Y-114762735D01*
X90362511Y-114849544D01*
X90362508Y-114849549D01*
X90350322Y-114870654D01*
X90299753Y-114918868D01*
X90242937Y-114932650D01*
X89845279Y-114932650D01*
X89845273Y-114932651D01*
X89785666Y-114939058D01*
X89650821Y-114989352D01*
X89650814Y-114989356D01*
X89535605Y-115075602D01*
X89535602Y-115075605D01*
X89449356Y-115190814D01*
X89449352Y-115190821D01*
X89399058Y-115325667D01*
X89392651Y-115385266D01*
X89392651Y-115385273D01*
X89392650Y-115385285D01*
X89392650Y-117481020D01*
X89392651Y-117481026D01*
X89399058Y-117540633D01*
X89449352Y-117675478D01*
X89449356Y-117675485D01*
X89535602Y-117790694D01*
X89535605Y-117790697D01*
X89650814Y-117876943D01*
X89650821Y-117876947D01*
X89785667Y-117927241D01*
X89785666Y-117927241D01*
X89792594Y-117927985D01*
X89845277Y-117933650D01*
X91941022Y-117933649D01*
X92000633Y-117927241D01*
X92135481Y-117876946D01*
X92250696Y-117790696D01*
X92336946Y-117675481D01*
X92387241Y-117540633D01*
X92393650Y-117481023D01*
X92393649Y-116315052D01*
X96992650Y-116315052D01*
X96992650Y-116551247D01*
X97029596Y-116784518D01*
X97102583Y-117009146D01*
X97191243Y-117183150D01*
X97209807Y-117219583D01*
X97348633Y-117410660D01*
X97515640Y-117577667D01*
X97706717Y-117716493D01*
X97759476Y-117743375D01*
X97917153Y-117823716D01*
X97917155Y-117823716D01*
X97917158Y-117823718D01*
X97986286Y-117846179D01*
X98141781Y-117896703D01*
X98375053Y-117933650D01*
X98375058Y-117933650D01*
X98611247Y-117933650D01*
X98844518Y-117896703D01*
X99069142Y-117823718D01*
X99279583Y-117716493D01*
X99470660Y-117577667D01*
X99637667Y-117410660D01*
X99776493Y-117219583D01*
X99883718Y-117009142D01*
X99956703Y-116784518D01*
X99993650Y-116551247D01*
X99993650Y-116315052D01*
X99956703Y-116081781D01*
X99910192Y-115938636D01*
X99883718Y-115857158D01*
X99883716Y-115857155D01*
X99883716Y-115857153D01*
X99807264Y-115707108D01*
X99776493Y-115646717D01*
X99637667Y-115455640D01*
X99470660Y-115288633D01*
X99279583Y-115149807D01*
X99069146Y-115042583D01*
X98844518Y-114969596D01*
X98611247Y-114932650D01*
X98611242Y-114932650D01*
X98375058Y-114932650D01*
X98375053Y-114932650D01*
X98141781Y-114969596D01*
X97917153Y-115042583D01*
X97706716Y-115149807D01*
X97597700Y-115229012D01*
X97515640Y-115288633D01*
X97515638Y-115288635D01*
X97515637Y-115288635D01*
X97348635Y-115455637D01*
X97348635Y-115455638D01*
X97348633Y-115455640D01*
X97333941Y-115475862D01*
X97209807Y-115646716D01*
X97102583Y-115857153D01*
X97029596Y-116081781D01*
X96992650Y-116315052D01*
X92393649Y-116315052D01*
X92393649Y-115385278D01*
X92387241Y-115325667D01*
X92373428Y-115288633D01*
X92336947Y-115190821D01*
X92336943Y-115190814D01*
X92250697Y-115075605D01*
X92250694Y-115075602D01*
X92135485Y-114989356D01*
X92135472Y-114989349D01*
X92133442Y-114988592D01*
X92131707Y-114987293D01*
X92127696Y-114985103D01*
X92128011Y-114984526D01*
X92077511Y-114946718D01*
X92053097Y-114881252D01*
X92067953Y-114812980D01*
X92089097Y-114784736D01*
X94223670Y-112650166D01*
X94302727Y-112513234D01*
X94343651Y-112360507D01*
X94343651Y-112202392D01*
X94343651Y-112194797D01*
X94343650Y-112194779D01*
X94343650Y-112134727D01*
X105092650Y-112134727D01*
X105092650Y-112331572D01*
X105123440Y-112525976D01*
X105184267Y-112713179D01*
X105237657Y-112817962D01*
X105273626Y-112888555D01*
X105389322Y-113047796D01*
X105528504Y-113186978D01*
X105687745Y-113302674D01*
X105724719Y-113321513D01*
X105863120Y-113392032D01*
X105863122Y-113392032D01*
X105863125Y-113392034D01*
X105963467Y-113424637D01*
X106050323Y-113452859D01*
X106244728Y-113483650D01*
X106244733Y-113483650D01*
X106441572Y-113483650D01*
X106635976Y-113452859D01*
X106823175Y-113392034D01*
X106998555Y-113302674D01*
X107157796Y-113186978D01*
X107296978Y-113047796D01*
X107412674Y-112888555D01*
X107502034Y-112713175D01*
X107562859Y-112525976D01*
X107568333Y-112491417D01*
X107593650Y-112331572D01*
X107593650Y-112134727D01*
X107562859Y-111940323D01*
X107502032Y-111753120D01*
X107454893Y-111660605D01*
X107412674Y-111577745D01*
X107296978Y-111418504D01*
X107157796Y-111279322D01*
X106998555Y-111163626D01*
X106823179Y-111074267D01*
X106635976Y-111013440D01*
X106441572Y-110982650D01*
X106441567Y-110982650D01*
X106244733Y-110982650D01*
X106244728Y-110982650D01*
X106050323Y-111013440D01*
X105863120Y-111074267D01*
X105687744Y-111163626D01*
X105616194Y-111215611D01*
X105528504Y-111279322D01*
X105528502Y-111279324D01*
X105528501Y-111279324D01*
X105389324Y-111418501D01*
X105389324Y-111418502D01*
X105389322Y-111418504D01*
X105348234Y-111475057D01*
X105273626Y-111577744D01*
X105184267Y-111753120D01*
X105123440Y-111940323D01*
X105092650Y-112134727D01*
X94343650Y-112134727D01*
X94343650Y-109642947D01*
X94363335Y-109575908D01*
X94402553Y-109537408D01*
X94461806Y-109500862D01*
X94585862Y-109376806D01*
X94587902Y-109373497D01*
X94589895Y-109371705D01*
X94590343Y-109371139D01*
X94590439Y-109371215D01*
X94639844Y-109326773D01*
X94708806Y-109315545D01*
X94772890Y-109343384D01*
X94798979Y-109373489D01*
X94800831Y-109376491D01*
X94800833Y-109376494D01*
X94924804Y-109500465D01*
X95074025Y-109592506D01*
X95074030Y-109592508D01*
X95240452Y-109647655D01*
X95240459Y-109647656D01*
X95343169Y-109658149D01*
X95893150Y-109658149D01*
X95943122Y-109658149D01*
X95943136Y-109658148D01*
X96045847Y-109647655D01*
X96212269Y-109592508D01*
X96212274Y-109592506D01*
X96361495Y-109500465D01*
X96485465Y-109376495D01*
X96577506Y-109227274D01*
X96577508Y-109227269D01*
X96632655Y-109060847D01*
X96632656Y-109060840D01*
X96643149Y-108958136D01*
X96643150Y-108958123D01*
X96643150Y-108683150D01*
X95893150Y-108683150D01*
X95893150Y-109658149D01*
X95343169Y-109658149D01*
X95393149Y-109658148D01*
X95393150Y-109658148D01*
X95393150Y-108183150D01*
X95893150Y-108183150D01*
X96643149Y-108183150D01*
X96643149Y-107908178D01*
X96643148Y-107908163D01*
X96632655Y-107805452D01*
X96577508Y-107639030D01*
X96577506Y-107639025D01*
X96485465Y-107489804D01*
X96361495Y-107365834D01*
X96212274Y-107273793D01*
X96212269Y-107273791D01*
X96045847Y-107218644D01*
X96045840Y-107218643D01*
X95943136Y-107208150D01*
X95893150Y-107208150D01*
X95893150Y-108183150D01*
X95393150Y-108183150D01*
X95393150Y-107208150D01*
X95393149Y-107208149D01*
X95343179Y-107208150D01*
X95343161Y-107208151D01*
X95240452Y-107218644D01*
X95074030Y-107273791D01*
X95074025Y-107273793D01*
X94924804Y-107365834D01*
X94807031Y-107483608D01*
X94745708Y-107517093D01*
X94676016Y-107512109D01*
X94620083Y-107470237D01*
X94595666Y-107404773D01*
X94595350Y-107395927D01*
X94595350Y-106057650D01*
X94597900Y-106048964D01*
X94596612Y-106040003D01*
X94607590Y-106015962D01*
X94615035Y-105990611D01*
X94621875Y-105984683D01*
X94625637Y-105976447D01*
X94647871Y-105962157D01*
X94667839Y-105944856D01*
X94678353Y-105942568D01*
X94684415Y-105938673D01*
X94719350Y-105933650D01*
X94905920Y-105933650D01*
X94972959Y-105953335D01*
X94993601Y-105969969D01*
X95024494Y-106000862D01*
X95173816Y-106092964D01*
X95340353Y-106148149D01*
X95443141Y-106158650D01*
X96043158Y-106158649D01*
X96043166Y-106158648D01*
X96043169Y-106158648D01*
X96099452Y-106152898D01*
X96145947Y-106148149D01*
X96312484Y-106092964D01*
X96461806Y-106000862D01*
X96585862Y-105876806D01*
X96587902Y-105873497D01*
X96589895Y-105871705D01*
X96590343Y-105871139D01*
X96590439Y-105871215D01*
X96639844Y-105826773D01*
X96708806Y-105815545D01*
X96772890Y-105843384D01*
X96798979Y-105873489D01*
X96800831Y-105876491D01*
X96800833Y-105876494D01*
X96924804Y-106000465D01*
X97074025Y-106092506D01*
X97074030Y-106092508D01*
X97240452Y-106147655D01*
X97240459Y-106147656D01*
X97343169Y-106158149D01*
X97893150Y-106158149D01*
X97943122Y-106158149D01*
X97943136Y-106158148D01*
X98045847Y-106147655D01*
X98212269Y-106092508D01*
X98212274Y-106092506D01*
X98361495Y-106000465D01*
X98485465Y-105876495D01*
X98577506Y-105727274D01*
X98577508Y-105727269D01*
X98632655Y-105560847D01*
X98632656Y-105560840D01*
X98643149Y-105458136D01*
X98643150Y-105458123D01*
X98643150Y-105183150D01*
X97893150Y-105183150D01*
X97893150Y-106158149D01*
X97343169Y-106158149D01*
X97393149Y-106158148D01*
X97393150Y-106158148D01*
X97393150Y-104683150D01*
X97893150Y-104683150D01*
X98643149Y-104683150D01*
X98643149Y-104408178D01*
X98643148Y-104408163D01*
X98632655Y-104305452D01*
X98577508Y-104139030D01*
X98577506Y-104139025D01*
X98485465Y-103989804D01*
X98361495Y-103865834D01*
X98212274Y-103773793D01*
X98212269Y-103773791D01*
X98045847Y-103718644D01*
X98045840Y-103718643D01*
X97943136Y-103708150D01*
X97893150Y-103708150D01*
X97893150Y-104683150D01*
X97393150Y-104683150D01*
X97393150Y-103708150D01*
X97393149Y-103708149D01*
X97343179Y-103708150D01*
X97343161Y-103708151D01*
X97240452Y-103718644D01*
X97074030Y-103773791D01*
X97074025Y-103773793D01*
X96924804Y-103865834D01*
X96800833Y-103989805D01*
X96800829Y-103989810D01*
X96798976Y-103992815D01*
X96797168Y-103994440D01*
X96796352Y-103995473D01*
X96796175Y-103995333D01*
X96747024Y-104039535D01*
X96678061Y-104050751D01*
X96613981Y-104022902D01*
X96587903Y-103992803D01*
X96587887Y-103992778D01*
X96585862Y-103989494D01*
X96461806Y-103865438D01*
X96461805Y-103865437D01*
X96402552Y-103828889D01*
X96355828Y-103776941D01*
X96343650Y-103723351D01*
X96343650Y-102633246D01*
X96363335Y-102566207D01*
X96379965Y-102545569D01*
X97005566Y-101919967D01*
X97066889Y-101886483D01*
X97093247Y-101883649D01*
X97718152Y-101883649D01*
X97718158Y-101883649D01*
X97820947Y-101873149D01*
X97987484Y-101817964D01*
X98136806Y-101725862D01*
X98260862Y-101601806D01*
X98352964Y-101452484D01*
X98408149Y-101285947D01*
X98418650Y-101183159D01*
X98418649Y-100583142D01*
X98416304Y-100560190D01*
X98408149Y-100480353D01*
X98408148Y-100480350D01*
X98352964Y-100313816D01*
X98260862Y-100164494D01*
X98136806Y-100040438D01*
X98133492Y-100038393D01*
X98131696Y-100036398D01*
X98131139Y-100035957D01*
X98131214Y-100035861D01*
X98086768Y-99986447D01*
X98075547Y-99917484D01*
X98103390Y-99853402D01*
X98133498Y-99827315D01*
X98136492Y-99825468D01*
X98260465Y-99701495D01*
X98352506Y-99552274D01*
X98352508Y-99552269D01*
X98407655Y-99385847D01*
X98407656Y-99385840D01*
X98418149Y-99283136D01*
X98418150Y-99283123D01*
X98418150Y-99233150D01*
X95968151Y-99233150D01*
X95968151Y-99283136D01*
X95978644Y-99385847D01*
X96033791Y-99552269D01*
X96033793Y-99552274D01*
X96125834Y-99701495D01*
X96249805Y-99825466D01*
X96249809Y-99825469D01*
X96252806Y-99827318D01*
X96254429Y-99829122D01*
X96255473Y-99829948D01*
X96255331Y-99830126D01*
X96299531Y-99879266D01*
X96310752Y-99948229D01*
X96282909Y-100012311D01*
X96252811Y-100038391D01*
X96249499Y-100040433D01*
X96249493Y-100040438D01*
X96125439Y-100164492D01*
X96033337Y-100313813D01*
X96033335Y-100313818D01*
X96026923Y-100333169D01*
X95978151Y-100480353D01*
X95978151Y-100480354D01*
X95978150Y-100480354D01*
X95967650Y-100583133D01*
X95967650Y-101183150D01*
X95967651Y-101183159D01*
X95968731Y-101193731D01*
X95968373Y-101195651D01*
X95969056Y-101197481D01*
X95962017Y-101229836D01*
X95955958Y-101262424D01*
X95954487Y-101264452D01*
X95954204Y-101265754D01*
X95933054Y-101294009D01*
X95830828Y-101396234D01*
X95769508Y-101429718D01*
X95699816Y-101424734D01*
X95655468Y-101396233D01*
X95330740Y-101071505D01*
X95330738Y-101071502D01*
X95211867Y-100952631D01*
X95211859Y-100952625D01*
X95117752Y-100898293D01*
X95117750Y-100898292D01*
X95074940Y-100873575D01*
X95074939Y-100873574D01*
X95062413Y-100870217D01*
X94922207Y-100832649D01*
X94764093Y-100832649D01*
X94759819Y-100832649D01*
X94692780Y-100812964D01*
X94652432Y-100770649D01*
X94574772Y-100636137D01*
X94574768Y-100636132D01*
X93114540Y-99175905D01*
X93114538Y-99175902D01*
X92995667Y-99057031D01*
X92995662Y-99057027D01*
X92920372Y-99013559D01*
X92872157Y-98962992D01*
X92858933Y-98894386D01*
X92864664Y-98867172D01*
X92908149Y-98735947D01*
X92918650Y-98633159D01*
X92918649Y-98033142D01*
X92908149Y-97930353D01*
X92852964Y-97763816D01*
X92810165Y-97694428D01*
X92802859Y-97682582D01*
X92802858Y-97682581D01*
X92792586Y-97665927D01*
X92764649Y-97620633D01*
X93492650Y-97620633D01*
X93492650Y-98245651D01*
X93492651Y-98245669D01*
X93503150Y-98348446D01*
X93503151Y-98348449D01*
X93524881Y-98414025D01*
X93558336Y-98514984D01*
X93650438Y-98664306D01*
X93774494Y-98788362D01*
X93923816Y-98880464D01*
X94090353Y-98935649D01*
X94193141Y-98946150D01*
X95193158Y-98946149D01*
X95193166Y-98946148D01*
X95193169Y-98946148D01*
X95274498Y-98937840D01*
X95295947Y-98935649D01*
X95462484Y-98880464D01*
X95611806Y-98788362D01*
X95735862Y-98664306D01*
X95738611Y-98659849D01*
X95790558Y-98613124D01*
X95859520Y-98601901D01*
X95923602Y-98629744D01*
X95962459Y-98687812D01*
X95968150Y-98724945D01*
X95968150Y-98733150D01*
X96943150Y-98733150D01*
X97443150Y-98733150D01*
X98418149Y-98733150D01*
X98418149Y-98683178D01*
X98418148Y-98683163D01*
X98407655Y-98580452D01*
X98352508Y-98414030D01*
X98352506Y-98414025D01*
X98260465Y-98264804D01*
X98136495Y-98140834D01*
X97987274Y-98048793D01*
X97987269Y-98048791D01*
X97820847Y-97993644D01*
X97820840Y-97993643D01*
X97718136Y-97983150D01*
X97443150Y-97983150D01*
X97443150Y-98733150D01*
X96943150Y-98733150D01*
X96943150Y-97983150D01*
X96668179Y-97983150D01*
X96668162Y-97983151D01*
X96565452Y-97993644D01*
X96399030Y-98048791D01*
X96399025Y-98048793D01*
X96249804Y-98140834D01*
X96125833Y-98264805D01*
X96125829Y-98264810D01*
X96123182Y-98269102D01*
X96071230Y-98315822D01*
X96002267Y-98327038D01*
X95938187Y-98299189D01*
X95899336Y-98241117D01*
X95893649Y-98204002D01*
X95893649Y-97646349D01*
X95913334Y-97579311D01*
X95966138Y-97533556D01*
X96017649Y-97522350D01*
X96246005Y-97522350D01*
X96246007Y-97522350D01*
X96398734Y-97481427D01*
X96535666Y-97402370D01*
X96647470Y-97290566D01*
X96726527Y-97153634D01*
X96767450Y-97000907D01*
X96767450Y-96916928D01*
X96787135Y-96849889D01*
X96839939Y-96804134D01*
X96909097Y-96794190D01*
X96972653Y-96823215D01*
X97009156Y-96877924D01*
X97033791Y-96952269D01*
X97033793Y-96952274D01*
X97125834Y-97101495D01*
X97249804Y-97225465D01*
X97399025Y-97317506D01*
X97399030Y-97317508D01*
X97565452Y-97372655D01*
X97565459Y-97372656D01*
X97668169Y-97383149D01*
X97943149Y-97383149D01*
X97943150Y-97383148D01*
X97943150Y-96507150D01*
X97962835Y-96440111D01*
X98015639Y-96394356D01*
X98067150Y-96383150D01*
X98319150Y-96383150D01*
X98386189Y-96402835D01*
X98431944Y-96455639D01*
X98443150Y-96507150D01*
X98443150Y-97383149D01*
X98718122Y-97383149D01*
X98718136Y-97383148D01*
X98820847Y-97372655D01*
X98987269Y-97317508D01*
X98987274Y-97317506D01*
X99136495Y-97225465D01*
X99260465Y-97101495D01*
X99352506Y-96952274D01*
X99352508Y-96952269D01*
X99403895Y-96797194D01*
X99443667Y-96739749D01*
X99508183Y-96712926D01*
X99576959Y-96725241D01*
X99609282Y-96748517D01*
X100898289Y-98037524D01*
X100898299Y-98037535D01*
X100902629Y-98041865D01*
X100902630Y-98041866D01*
X101014434Y-98153670D01*
X101101245Y-98203789D01*
X101101247Y-98203791D01*
X101151363Y-98232726D01*
X101151365Y-98232727D01*
X101304092Y-98273650D01*
X101304093Y-98273650D01*
X103703548Y-98273650D01*
X103770587Y-98293335D01*
X103814033Y-98341355D01*
X103820865Y-98354764D01*
X103941178Y-98520363D01*
X104085936Y-98665121D01*
X104238452Y-98775928D01*
X104251540Y-98785437D01*
X104327114Y-98823944D01*
X104344230Y-98832665D01*
X104395026Y-98880640D01*
X104411821Y-98948461D01*
X104389284Y-99014596D01*
X104344230Y-99053635D01*
X104251536Y-99100865D01*
X104085936Y-99221178D01*
X103941178Y-99365936D01*
X103820865Y-99531536D01*
X103727931Y-99713926D01*
X103664672Y-99908615D01*
X103641435Y-100055330D01*
X103632650Y-100110798D01*
X103632650Y-100315502D01*
X103635448Y-100333169D01*
X103664672Y-100517684D01*
X103727931Y-100712373D01*
X103767902Y-100790819D01*
X103813265Y-100879849D01*
X103820865Y-100894763D01*
X103941178Y-101060363D01*
X104085936Y-101205121D01*
X104218791Y-101301644D01*
X104251540Y-101325437D01*
X104333436Y-101367165D01*
X104344230Y-101372665D01*
X104395026Y-101420640D01*
X104411821Y-101488461D01*
X104389284Y-101554596D01*
X104344230Y-101593635D01*
X104251536Y-101640865D01*
X104085936Y-101761178D01*
X103941178Y-101905936D01*
X103820865Y-102071536D01*
X103727931Y-102253926D01*
X103664672Y-102448615D01*
X103635430Y-102633246D01*
X103632650Y-102650798D01*
X103632650Y-102855502D01*
X103634309Y-102865977D01*
X103664672Y-103057684D01*
X103727931Y-103252373D01*
X103788151Y-103370559D01*
X103817170Y-103427513D01*
X103820865Y-103434763D01*
X103941178Y-103600363D01*
X104085936Y-103745121D01*
X104233303Y-103852187D01*
X104251540Y-103865437D01*
X104342990Y-103912033D01*
X104344230Y-103912665D01*
X104395026Y-103960640D01*
X104411821Y-104028461D01*
X104389284Y-104094596D01*
X104344230Y-104133635D01*
X104251536Y-104180865D01*
X104085936Y-104301178D01*
X103941178Y-104445936D01*
X103820865Y-104611536D01*
X103727931Y-104793926D01*
X103664672Y-104988615D01*
X103633861Y-105183150D01*
X103632650Y-105190798D01*
X103632650Y-105395502D01*
X103635798Y-105415375D01*
X103664672Y-105597684D01*
X103727931Y-105792373D01*
X103769269Y-105873501D01*
X103814441Y-105962157D01*
X103820865Y-105974763D01*
X103941178Y-106140363D01*
X104085936Y-106285121D01*
X104229399Y-106389351D01*
X104251540Y-106405437D01*
X104342990Y-106452033D01*
X104344230Y-106452665D01*
X104395026Y-106500640D01*
X104411821Y-106568461D01*
X104389284Y-106634596D01*
X104344230Y-106673635D01*
X104251536Y-106720865D01*
X104085936Y-106841178D01*
X103941178Y-106985936D01*
X103820865Y-107151536D01*
X103727931Y-107333926D01*
X103664672Y-107528615D01*
X103632650Y-107730798D01*
X103632650Y-107935501D01*
X103664672Y-108137684D01*
X103727931Y-108332373D01*
X103820865Y-108514763D01*
X103941178Y-108680363D01*
X104085936Y-108825121D01*
X104209929Y-108915205D01*
X104251540Y-108945437D01*
X104367757Y-109004653D01*
X104433926Y-109038368D01*
X104433928Y-109038368D01*
X104433931Y-109038370D01*
X104466004Y-109048791D01*
X104628615Y-109101627D01*
X104729707Y-109117638D01*
X104830798Y-109133650D01*
X104830799Y-109133650D01*
X105435501Y-109133650D01*
X105435502Y-109133650D01*
X105637684Y-109101627D01*
X105832369Y-109038370D01*
X106014760Y-108945437D01*
X106107740Y-108877882D01*
X106180363Y-108825121D01*
X106180365Y-108825118D01*
X106180369Y-108825116D01*
X106325116Y-108680369D01*
X106325118Y-108680365D01*
X106325121Y-108680363D01*
X106437192Y-108526108D01*
X106445437Y-108514760D01*
X106538370Y-108332369D01*
X106601627Y-108137684D01*
X106633650Y-107935502D01*
X106633650Y-107730798D01*
X106614018Y-107606847D01*
X106601627Y-107528615D01*
X106558514Y-107395927D01*
X106538370Y-107333931D01*
X106538368Y-107333928D01*
X106538368Y-107333926D01*
X106488293Y-107235650D01*
X106445437Y-107151540D01*
X106437706Y-107140899D01*
X106325121Y-106985936D01*
X106180363Y-106841178D01*
X106014764Y-106720865D01*
X106008156Y-106717498D01*
X105922067Y-106673633D01*
X105871273Y-106625661D01*
X105854478Y-106557840D01*
X105877015Y-106491705D01*
X105922067Y-106452666D01*
X106014760Y-106405437D01*
X106058616Y-106373574D01*
X106180363Y-106285121D01*
X106180365Y-106285118D01*
X106180369Y-106285116D01*
X106325116Y-106140369D01*
X106325118Y-106140365D01*
X106325121Y-106140363D01*
X106391525Y-106048964D01*
X106445437Y-105974760D01*
X106538370Y-105792369D01*
X106601627Y-105597684D01*
X106633650Y-105395502D01*
X106633650Y-105190798D01*
X106604188Y-105004785D01*
X106601627Y-104988615D01*
X106560287Y-104861386D01*
X106538370Y-104793931D01*
X106538368Y-104793928D01*
X106538368Y-104793926D01*
X106496364Y-104711489D01*
X106445437Y-104611540D01*
X106430384Y-104590821D01*
X106325121Y-104445936D01*
X106180363Y-104301178D01*
X106014764Y-104180865D01*
X106008156Y-104177498D01*
X105922067Y-104133633D01*
X105871273Y-104085661D01*
X105854478Y-104017840D01*
X105877015Y-103951705D01*
X105922067Y-103912666D01*
X106014760Y-103865437D01*
X106035920Y-103850063D01*
X106180363Y-103745121D01*
X106180365Y-103745118D01*
X106180369Y-103745116D01*
X106325116Y-103600369D01*
X106325118Y-103600365D01*
X106325121Y-103600363D01*
X106377882Y-103527740D01*
X106445437Y-103434760D01*
X106538370Y-103252369D01*
X106601627Y-103057684D01*
X106633650Y-102855502D01*
X106633650Y-102650798D01*
X106616983Y-102545566D01*
X106601627Y-102448615D01*
X106570145Y-102351724D01*
X106538370Y-102253931D01*
X106538368Y-102253928D01*
X106538368Y-102253926D01*
X106487866Y-102154812D01*
X106445437Y-102071540D01*
X106414276Y-102028650D01*
X106325121Y-101905936D01*
X106180363Y-101761178D01*
X106014764Y-101640865D01*
X106008156Y-101637498D01*
X105922067Y-101593633D01*
X105871273Y-101545661D01*
X105854478Y-101477840D01*
X105877015Y-101411705D01*
X105922067Y-101372666D01*
X106014760Y-101325437D01*
X106069117Y-101285945D01*
X106180363Y-101205121D01*
X106180365Y-101205118D01*
X106180369Y-101205116D01*
X106325116Y-101060369D01*
X106325118Y-101060365D01*
X106325121Y-101060363D01*
X106380856Y-100983649D01*
X106445437Y-100894760D01*
X106538370Y-100712369D01*
X106601627Y-100517684D01*
X106633650Y-100315502D01*
X106633650Y-100110798D01*
X106618051Y-100012311D01*
X106601627Y-99908615D01*
X106562240Y-99787396D01*
X106538370Y-99713931D01*
X106538368Y-99713928D01*
X106538368Y-99713926D01*
X106483047Y-99605354D01*
X106445437Y-99531540D01*
X106416785Y-99492103D01*
X106325121Y-99365936D01*
X106180363Y-99221178D01*
X106014764Y-99100865D01*
X105960733Y-99073335D01*
X105922067Y-99053633D01*
X105871273Y-99005661D01*
X105854478Y-98937840D01*
X105877015Y-98871705D01*
X105922067Y-98832666D01*
X106014760Y-98785437D01*
X106073220Y-98742964D01*
X106180363Y-98665121D01*
X106180365Y-98665118D01*
X106180369Y-98665116D01*
X106325116Y-98520369D01*
X106325118Y-98520365D01*
X106325121Y-98520363D01*
X106402379Y-98414025D01*
X106445437Y-98354760D01*
X106538370Y-98172369D01*
X106601627Y-97977684D01*
X106633650Y-97775502D01*
X106633650Y-97570798D01*
X106627751Y-97533556D01*
X106601627Y-97368615D01*
X106572277Y-97278287D01*
X106538370Y-97173931D01*
X106538368Y-97173928D01*
X106538368Y-97173926D01*
X106501462Y-97101495D01*
X106445437Y-96991540D01*
X106416905Y-96952269D01*
X106325121Y-96825936D01*
X106180363Y-96681178D01*
X106014764Y-96560865D01*
X105999591Y-96553134D01*
X105922067Y-96513633D01*
X105871273Y-96465661D01*
X105854478Y-96397840D01*
X105877015Y-96331705D01*
X105922067Y-96292666D01*
X106014760Y-96245437D01*
X106056049Y-96215439D01*
X106180363Y-96125121D01*
X106180365Y-96125118D01*
X106180369Y-96125116D01*
X106325116Y-95980369D01*
X106325118Y-95980365D01*
X106325121Y-95980363D01*
X106404064Y-95871705D01*
X106445437Y-95814760D01*
X106538370Y-95632369D01*
X106601627Y-95437684D01*
X106633650Y-95235502D01*
X106633650Y-95030798D01*
X106601627Y-94828616D01*
X106538370Y-94633931D01*
X106538368Y-94633928D01*
X106538368Y-94633926D01*
X106465996Y-94491890D01*
X106445437Y-94451540D01*
X106437706Y-94440899D01*
X106325121Y-94285936D01*
X106180363Y-94141178D01*
X106014761Y-94020863D01*
X105921519Y-93973353D01*
X105870724Y-93925379D01*
X105853929Y-93857557D01*
X105876467Y-93791423D01*
X105921521Y-93752384D01*
X106014497Y-93705011D01*
X106180044Y-93584732D01*
X106180045Y-93584732D01*
X106324732Y-93440045D01*
X106324732Y-93440044D01*
X106445009Y-93274499D01*
X106537905Y-93092179D01*
X106601140Y-92897563D01*
X106609759Y-92843150D01*
X105508428Y-92843150D01*
X105552483Y-92766844D01*
X105583150Y-92652394D01*
X105583150Y-92533906D01*
X105552483Y-92419456D01*
X105508428Y-92343150D01*
X106609759Y-92343150D01*
X106601140Y-92288736D01*
X106537905Y-92094120D01*
X106445009Y-91911800D01*
X106324732Y-91746255D01*
X106324732Y-91746254D01*
X106180045Y-91601567D01*
X106014499Y-91481290D01*
X105921520Y-91433915D01*
X105870724Y-91385940D01*
X105853929Y-91318119D01*
X105876466Y-91251985D01*
X105921520Y-91212945D01*
X105922070Y-91212665D01*
X106014760Y-91165437D01*
X106059182Y-91133163D01*
X106180363Y-91045121D01*
X106180365Y-91045118D01*
X106180369Y-91045116D01*
X106325116Y-90900369D01*
X106325118Y-90900365D01*
X106325121Y-90900363D01*
X106377882Y-90827740D01*
X106445437Y-90734760D01*
X106538370Y-90552369D01*
X106601627Y-90357684D01*
X106633650Y-90155502D01*
X106633650Y-89950798D01*
X106601627Y-89748616D01*
X106587825Y-89706139D01*
X106552623Y-89597797D01*
X106538370Y-89553931D01*
X106538368Y-89553928D01*
X106538368Y-89553926D01*
X106494620Y-89468067D01*
X106445437Y-89371540D01*
X106388121Y-89292650D01*
X106325121Y-89205936D01*
X106180363Y-89061178D01*
X106014763Y-88940865D01*
X106014762Y-88940864D01*
X106014760Y-88940863D01*
X105957803Y-88911841D01*
X105832373Y-88847931D01*
X105637684Y-88784672D01*
X105463145Y-88757028D01*
X105435502Y-88752650D01*
X104830798Y-88752650D01*
X104806479Y-88756501D01*
X104628615Y-88784672D01*
X104433926Y-88847931D01*
X104251536Y-88940865D01*
X104085936Y-89061178D01*
X103941178Y-89205936D01*
X103820865Y-89371536D01*
X103727931Y-89553926D01*
X103664672Y-89748615D01*
X103632650Y-89950798D01*
X103632650Y-90155501D01*
X103664672Y-90357684D01*
X103727931Y-90552373D01*
X103820865Y-90734763D01*
X103941178Y-90900363D01*
X104085936Y-91045121D01*
X104207118Y-91133163D01*
X104251540Y-91165437D01*
X104293756Y-91186947D01*
X104344779Y-91212945D01*
X104395575Y-91260920D01*
X104412370Y-91328741D01*
X104389832Y-91394876D01*
X104344779Y-91433915D01*
X104251800Y-91481290D01*
X104086255Y-91601567D01*
X104086254Y-91601567D01*
X103941567Y-91746254D01*
X103941567Y-91746255D01*
X103821290Y-91911800D01*
X103728394Y-92094120D01*
X103665159Y-92288736D01*
X103656541Y-92343150D01*
X104757872Y-92343150D01*
X104713817Y-92419456D01*
X104683150Y-92533906D01*
X104683150Y-92652394D01*
X104713817Y-92766844D01*
X104757872Y-92843150D01*
X103656541Y-92843150D01*
X103665159Y-92897563D01*
X103728394Y-93092179D01*
X103821290Y-93274499D01*
X103941567Y-93440044D01*
X103941567Y-93440045D01*
X104086254Y-93584732D01*
X104251802Y-93705011D01*
X104344778Y-93752384D01*
X104395575Y-93800358D01*
X104412370Y-93868179D01*
X104389833Y-93934314D01*
X104344780Y-93973353D01*
X104251538Y-94020863D01*
X104085936Y-94141178D01*
X103941178Y-94285936D01*
X103820865Y-94451536D01*
X103727931Y-94633926D01*
X103664672Y-94828615D01*
X103632650Y-95030798D01*
X103632650Y-95235501D01*
X103664672Y-95437684D01*
X103727931Y-95632373D01*
X103820865Y-95814763D01*
X103941178Y-95980363D01*
X104085936Y-96125121D01*
X104210251Y-96215439D01*
X104251540Y-96245437D01*
X104342990Y-96292033D01*
X104344230Y-96292665D01*
X104395026Y-96340640D01*
X104411821Y-96408461D01*
X104389284Y-96474596D01*
X104344230Y-96513635D01*
X104251536Y-96560865D01*
X104085936Y-96681178D01*
X103941178Y-96825936D01*
X103820865Y-96991535D01*
X103814033Y-97004945D01*
X103766059Y-97055741D01*
X103703548Y-97072650D01*
X101683247Y-97072650D01*
X101616208Y-97052965D01*
X101595566Y-97036331D01*
X99453247Y-94894012D01*
X99419762Y-94832689D01*
X99417570Y-94793727D01*
X99418650Y-94783159D01*
X99418649Y-94183142D01*
X99408149Y-94080353D01*
X99352964Y-93913816D01*
X99260862Y-93764494D01*
X99136806Y-93640438D01*
X99031493Y-93575481D01*
X98987486Y-93548337D01*
X98987481Y-93548335D01*
X98986012Y-93547848D01*
X98820947Y-93493151D01*
X98820945Y-93493150D01*
X98718160Y-93482650D01*
X97668148Y-93482650D01*
X97668130Y-93482651D01*
X97565353Y-93493150D01*
X97565350Y-93493151D01*
X97398818Y-93548335D01*
X97398813Y-93548337D01*
X97249492Y-93640439D01*
X97125439Y-93764492D01*
X97033337Y-93913813D01*
X97033335Y-93913818D01*
X97005499Y-93997820D01*
X96978151Y-94080353D01*
X96978151Y-94080354D01*
X96978150Y-94080354D01*
X96967650Y-94183133D01*
X96967650Y-94424851D01*
X96947965Y-94491890D01*
X96931331Y-94512532D01*
X95972667Y-95471195D01*
X95911344Y-95504680D01*
X95841652Y-95499696D01*
X95785719Y-95457824D01*
X95779447Y-95448610D01*
X95735467Y-95377306D01*
X95611495Y-95253334D01*
X95462274Y-95161293D01*
X95462269Y-95161291D01*
X95295847Y-95106144D01*
X95295840Y-95106143D01*
X95193136Y-95095650D01*
X94943150Y-95095650D01*
X94943150Y-95984150D01*
X94923465Y-96051189D01*
X94870661Y-96096944D01*
X94819150Y-96108150D01*
X94693150Y-96108150D01*
X94693150Y-96234150D01*
X94673465Y-96301189D01*
X94620661Y-96346944D01*
X94569150Y-96358150D01*
X93493151Y-96358150D01*
X93493151Y-96420636D01*
X93503644Y-96523347D01*
X93558791Y-96689769D01*
X93558793Y-96689774D01*
X93650834Y-96838995D01*
X93744454Y-96932615D01*
X93777939Y-96993938D01*
X93772955Y-97063630D01*
X93744455Y-97107977D01*
X93650437Y-97201995D01*
X93558337Y-97351313D01*
X93558335Y-97351318D01*
X93542755Y-97398336D01*
X93503151Y-97517853D01*
X93503151Y-97517854D01*
X93503150Y-97517854D01*
X93492650Y-97620633D01*
X92764649Y-97620633D01*
X92760862Y-97614494D01*
X92636806Y-97490438D01*
X92633492Y-97488393D01*
X92631696Y-97486398D01*
X92631139Y-97485957D01*
X92631214Y-97485861D01*
X92586768Y-97436447D01*
X92575547Y-97367484D01*
X92603390Y-97303402D01*
X92633498Y-97277315D01*
X92636492Y-97275468D01*
X92760465Y-97151495D01*
X92852506Y-97002274D01*
X92852508Y-97002269D01*
X92907655Y-96835847D01*
X92907656Y-96835840D01*
X92918149Y-96733136D01*
X92918150Y-96733123D01*
X92918150Y-96683150D01*
X90468151Y-96683150D01*
X90468151Y-96692367D01*
X90461885Y-96713703D01*
X90460264Y-96735886D01*
X90452232Y-96746579D01*
X90448466Y-96759406D01*
X90431660Y-96773968D01*
X90418303Y-96791752D01*
X90402034Y-96799639D01*
X90395662Y-96805161D01*
X90387299Y-96808618D01*
X90381846Y-96810641D01*
X90338066Y-96822373D01*
X90316147Y-96835027D01*
X90306349Y-96838664D01*
X90281499Y-96840401D01*
X90257295Y-96846272D01*
X90245801Y-96842897D01*
X90236650Y-96843537D01*
X90223574Y-96836370D01*
X90201200Y-96829800D01*
X90190935Y-96823873D01*
X90038207Y-96782949D01*
X90017150Y-96782949D01*
X89950111Y-96763264D01*
X89904356Y-96710460D01*
X89899878Y-96689878D01*
X89893150Y-96683150D01*
X88817150Y-96683150D01*
X88750111Y-96663465D01*
X88704356Y-96610661D01*
X88693150Y-96559150D01*
X88693150Y-96433150D01*
X88567150Y-96433150D01*
X88500111Y-96413465D01*
X88454356Y-96360661D01*
X88443150Y-96309150D01*
X88443150Y-96183150D01*
X88943150Y-96183150D01*
X89893149Y-96183150D01*
X89893149Y-96133163D01*
X90468150Y-96133163D01*
X90468150Y-96183150D01*
X91443150Y-96183150D01*
X91943150Y-96183150D01*
X92918149Y-96183150D01*
X92918149Y-96133178D01*
X92918148Y-96133163D01*
X92907655Y-96030452D01*
X92852508Y-95864030D01*
X92852506Y-95864026D01*
X92848551Y-95857614D01*
X92848550Y-95857612D01*
X92848549Y-95857611D01*
X92810339Y-95795663D01*
X93493150Y-95795663D01*
X93493150Y-95858150D01*
X94443150Y-95858150D01*
X94443150Y-95095650D01*
X94193179Y-95095650D01*
X94193162Y-95095651D01*
X94090452Y-95106144D01*
X93924030Y-95161291D01*
X93924025Y-95161293D01*
X93774804Y-95253334D01*
X93650834Y-95377304D01*
X93558793Y-95526525D01*
X93558791Y-95526530D01*
X93503644Y-95692952D01*
X93503643Y-95692959D01*
X93493150Y-95795663D01*
X92810339Y-95795663D01*
X92760465Y-95714804D01*
X92636495Y-95590834D01*
X92487274Y-95498793D01*
X92487269Y-95498791D01*
X92320847Y-95443644D01*
X92320840Y-95443643D01*
X92218136Y-95433150D01*
X91943150Y-95433150D01*
X91943150Y-96183150D01*
X91443150Y-96183150D01*
X91443150Y-95433150D01*
X91168179Y-95433150D01*
X91168162Y-95433151D01*
X91065452Y-95443644D01*
X90899030Y-95498791D01*
X90899025Y-95498793D01*
X90749804Y-95590834D01*
X90625834Y-95714804D01*
X90533793Y-95864025D01*
X90533791Y-95864030D01*
X90478644Y-96030452D01*
X90478643Y-96030459D01*
X90468150Y-96133163D01*
X89893149Y-96133163D01*
X89893149Y-96120678D01*
X89893148Y-96120663D01*
X89882655Y-96017952D01*
X89827508Y-95851530D01*
X89827506Y-95851525D01*
X89735465Y-95702304D01*
X89611495Y-95578334D01*
X89462274Y-95486293D01*
X89462269Y-95486291D01*
X89295847Y-95431144D01*
X89295840Y-95431143D01*
X89193136Y-95420650D01*
X88943150Y-95420650D01*
X88943150Y-96183150D01*
X88443150Y-96183150D01*
X88443150Y-95448010D01*
X88359892Y-95408867D01*
X88353632Y-95403320D01*
X88345611Y-95400965D01*
X88327874Y-95380496D01*
X88307598Y-95362529D01*
X88305331Y-95354479D01*
X88299856Y-95348161D01*
X88288650Y-95296650D01*
X88288650Y-91733136D01*
X89968151Y-91733136D01*
X89978644Y-91835847D01*
X90033791Y-92002269D01*
X90033793Y-92002274D01*
X90125834Y-92151495D01*
X90249804Y-92275465D01*
X90399025Y-92367506D01*
X90399030Y-92367508D01*
X90565452Y-92422655D01*
X90565459Y-92422656D01*
X90668169Y-92433149D01*
X90943149Y-92433149D01*
X91443150Y-92433149D01*
X91718122Y-92433149D01*
X91718136Y-92433148D01*
X91820847Y-92422655D01*
X91987269Y-92367508D01*
X91987274Y-92367506D01*
X92136495Y-92275465D01*
X92177611Y-92234350D01*
X92260465Y-92151495D01*
X92352506Y-92002274D01*
X92352508Y-92002269D01*
X92407655Y-91835847D01*
X92407656Y-91835840D01*
X92418149Y-91733136D01*
X92418150Y-91733123D01*
X92418150Y-91683150D01*
X91443150Y-91683150D01*
X91443150Y-92433149D01*
X90943149Y-92433149D01*
X90943150Y-92433148D01*
X90943150Y-91683150D01*
X89968151Y-91683150D01*
X89968151Y-91733136D01*
X88288650Y-91733136D01*
X88288650Y-89233133D01*
X89967650Y-89233133D01*
X89967650Y-89833151D01*
X89967651Y-89833169D01*
X89978150Y-89935946D01*
X89978151Y-89935949D01*
X90033335Y-90102481D01*
X90033337Y-90102486D01*
X90035171Y-90105459D01*
X90125438Y-90251806D01*
X90249494Y-90375862D01*
X90252778Y-90377887D01*
X90252803Y-90377903D01*
X90254595Y-90379896D01*
X90255161Y-90380343D01*
X90255084Y-90380439D01*
X90299529Y-90429849D01*
X90310753Y-90498811D01*
X90282911Y-90562894D01*
X90252815Y-90588976D01*
X90249810Y-90590829D01*
X90249805Y-90590833D01*
X90125834Y-90714804D01*
X90033793Y-90864025D01*
X90033791Y-90864030D01*
X89978644Y-91030452D01*
X89978643Y-91030459D01*
X89968150Y-91133163D01*
X89968150Y-91183150D01*
X92418149Y-91183150D01*
X92418149Y-91133178D01*
X92418148Y-91133163D01*
X92407655Y-91030452D01*
X92352508Y-90864030D01*
X92352506Y-90864025D01*
X92260465Y-90714804D01*
X92250992Y-90705331D01*
X92217507Y-90644008D01*
X92222491Y-90574316D01*
X92264363Y-90518383D01*
X92329827Y-90493966D01*
X92338673Y-90493650D01*
X93718651Y-90493650D01*
X93785690Y-90513335D01*
X93831445Y-90566139D01*
X93842651Y-90617650D01*
X93842651Y-90791026D01*
X93849058Y-90850633D01*
X93899352Y-90985478D01*
X93899356Y-90985485D01*
X93985602Y-91100694D01*
X93985605Y-91100697D01*
X94100814Y-91186943D01*
X94100821Y-91186947D01*
X94145768Y-91203711D01*
X94235667Y-91237241D01*
X94295277Y-91243650D01*
X94305835Y-91243649D01*
X94372873Y-91263329D01*
X94393522Y-91279968D01*
X95063741Y-91950187D01*
X95000157Y-91967225D01*
X94886143Y-92033051D01*
X94793051Y-92126143D01*
X94727225Y-92240157D01*
X94710187Y-92303741D01*
X94077878Y-91671432D01*
X94077877Y-91671432D01*
X94038530Y-91725589D01*
X93942054Y-91914932D01*
X93876392Y-92117019D01*
X93876392Y-92117022D01*
X93843150Y-92326903D01*
X93843150Y-92539396D01*
X93876392Y-92749277D01*
X93876392Y-92749280D01*
X93942054Y-92951367D01*
X94038525Y-93140700D01*
X94077878Y-93194866D01*
X94710187Y-92562558D01*
X94727225Y-92626143D01*
X94793051Y-92740157D01*
X94886143Y-92833249D01*
X95000157Y-92899075D01*
X95063740Y-92916112D01*
X94431432Y-93548419D01*
X94431432Y-93548420D01*
X94485599Y-93587774D01*
X94674932Y-93684245D01*
X94877020Y-93749907D01*
X95086904Y-93783150D01*
X95299396Y-93783150D01*
X95509277Y-93749907D01*
X95509280Y-93749907D01*
X95711367Y-93684245D01*
X95900704Y-93587772D01*
X95954866Y-93548420D01*
X95954867Y-93548420D01*
X95322558Y-92916112D01*
X95386143Y-92899075D01*
X95500157Y-92833249D01*
X95593249Y-92740157D01*
X95659075Y-92626143D01*
X95676112Y-92562559D01*
X96308420Y-93194867D01*
X96308420Y-93194866D01*
X96347772Y-93140704D01*
X96444245Y-92951367D01*
X96509907Y-92749280D01*
X96509907Y-92749277D01*
X96543150Y-92539396D01*
X96543150Y-92326903D01*
X96509907Y-92117022D01*
X96509907Y-92117019D01*
X96444245Y-91914932D01*
X96347774Y-91725599D01*
X96308420Y-91671432D01*
X96308419Y-91671432D01*
X95676112Y-92303740D01*
X95659075Y-92240157D01*
X95593249Y-92126143D01*
X95500157Y-92033051D01*
X95386143Y-91967225D01*
X95322559Y-91950187D01*
X95992777Y-91279968D01*
X96054100Y-91246483D01*
X96080457Y-91243649D01*
X96091022Y-91243649D01*
X96150633Y-91237241D01*
X96285481Y-91186946D01*
X96400696Y-91100696D01*
X96486946Y-90985481D01*
X96537241Y-90850633D01*
X96543650Y-90791023D01*
X96543650Y-90733136D01*
X97968151Y-90733136D01*
X97978644Y-90835847D01*
X98033791Y-91002269D01*
X98033793Y-91002274D01*
X98125834Y-91151495D01*
X98249804Y-91275465D01*
X98399025Y-91367506D01*
X98399030Y-91367508D01*
X98565452Y-91422655D01*
X98565459Y-91422656D01*
X98668169Y-91433149D01*
X98943149Y-91433149D01*
X99443150Y-91433149D01*
X99718122Y-91433149D01*
X99718136Y-91433148D01*
X99820847Y-91422655D01*
X99987269Y-91367508D01*
X99987274Y-91367506D01*
X100136495Y-91275465D01*
X100260465Y-91151495D01*
X100352506Y-91002274D01*
X100352508Y-91002269D01*
X100407655Y-90835847D01*
X100407656Y-90835840D01*
X100418149Y-90733136D01*
X100418150Y-90733123D01*
X100418150Y-90683150D01*
X99443150Y-90683150D01*
X99443150Y-91433149D01*
X98943149Y-91433149D01*
X98943150Y-91433148D01*
X98943150Y-90683150D01*
X97968151Y-90683150D01*
X97968151Y-90733136D01*
X96543650Y-90733136D01*
X96543649Y-90543361D01*
X96563334Y-90476323D01*
X96605649Y-90435974D01*
X96630087Y-90421866D01*
X96713566Y-90373670D01*
X96825370Y-90261866D01*
X96825370Y-90261864D01*
X96835574Y-90251661D01*
X96835577Y-90251656D01*
X97903911Y-89183323D01*
X97965232Y-89149840D01*
X98034924Y-89154824D01*
X98090857Y-89196696D01*
X98097124Y-89205902D01*
X98125438Y-89251806D01*
X98249494Y-89375862D01*
X98252778Y-89377887D01*
X98252803Y-89377903D01*
X98254595Y-89379896D01*
X98255161Y-89380343D01*
X98255084Y-89380439D01*
X98299529Y-89429849D01*
X98310753Y-89498811D01*
X98282911Y-89562894D01*
X98252815Y-89588976D01*
X98249810Y-89590829D01*
X98249805Y-89590833D01*
X98125834Y-89714804D01*
X98033793Y-89864025D01*
X98033791Y-89864030D01*
X97978644Y-90030452D01*
X97978643Y-90030459D01*
X97968150Y-90133163D01*
X97968150Y-90183150D01*
X100418149Y-90183150D01*
X100418149Y-90133178D01*
X100418148Y-90133163D01*
X100407655Y-90030452D01*
X100392571Y-89984930D01*
X100352508Y-89864030D01*
X100352506Y-89864025D01*
X100260465Y-89714804D01*
X100136494Y-89590833D01*
X100136491Y-89590831D01*
X100133489Y-89588979D01*
X100131863Y-89587171D01*
X100130827Y-89586352D01*
X100130967Y-89586174D01*
X100086767Y-89537030D01*
X100075547Y-89468067D01*
X100103393Y-89403986D01*
X100133494Y-89377904D01*
X100136806Y-89375862D01*
X100260862Y-89251806D01*
X100352964Y-89102484D01*
X100408149Y-88935947D01*
X100418650Y-88833159D01*
X100418649Y-88233142D01*
X100415199Y-88199372D01*
X100408149Y-88130353D01*
X100408148Y-88130350D01*
X100394563Y-88089354D01*
X100352964Y-87963816D01*
X100260862Y-87814494D01*
X100136806Y-87690438D01*
X99987484Y-87598336D01*
X99820947Y-87543151D01*
X99820945Y-87543150D01*
X99718160Y-87532650D01*
X98668148Y-87532650D01*
X98668130Y-87532651D01*
X98565353Y-87543150D01*
X98565350Y-87543151D01*
X98398818Y-87598335D01*
X98398813Y-87598337D01*
X98249492Y-87690439D01*
X98125439Y-87814492D01*
X98088891Y-87873747D01*
X98036943Y-87920471D01*
X97983352Y-87932650D01*
X97625790Y-87932650D01*
X97584869Y-87943614D01*
X97584869Y-87943615D01*
X97553636Y-87951984D01*
X97473064Y-87973573D01*
X97473059Y-87973576D01*
X97336140Y-88052625D01*
X97336132Y-88052631D01*
X97224328Y-88164436D01*
X96631373Y-88757390D01*
X96570050Y-88790875D01*
X96500358Y-88785891D01*
X96444427Y-88744022D01*
X96400696Y-88685604D01*
X96400694Y-88685602D01*
X96400693Y-88685601D01*
X96285485Y-88599356D01*
X96285478Y-88599352D01*
X96150632Y-88549058D01*
X96150633Y-88549058D01*
X96091033Y-88542651D01*
X96091031Y-88542650D01*
X96091023Y-88542650D01*
X96091014Y-88542650D01*
X94295279Y-88542650D01*
X94295273Y-88542651D01*
X94235666Y-88549058D01*
X94100821Y-88599352D01*
X94100814Y-88599356D01*
X93985605Y-88685602D01*
X93985602Y-88685605D01*
X93899356Y-88800814D01*
X93899352Y-88800821D01*
X93849058Y-88935667D01*
X93842651Y-88995266D01*
X93842650Y-88995285D01*
X93842650Y-89168650D01*
X93822965Y-89235689D01*
X93770161Y-89281444D01*
X93718650Y-89292650D01*
X93011866Y-89292650D01*
X92944827Y-89272965D01*
X92899072Y-89220161D01*
X92889128Y-89151003D01*
X92900628Y-89115930D01*
X92900213Y-89115758D01*
X92902479Y-89110286D01*
X92902510Y-89110193D01*
X92902539Y-89110135D01*
X92902544Y-89110129D01*
X92962887Y-88964447D01*
X92993650Y-88809792D01*
X92993650Y-88652108D01*
X92993650Y-88652105D01*
X92993649Y-88652103D01*
X92983157Y-88599356D01*
X92962887Y-88497453D01*
X92951901Y-88470930D01*
X92902547Y-88351777D01*
X92902540Y-88351764D01*
X92814548Y-88220075D01*
X92793670Y-88153397D01*
X92793650Y-88151184D01*
X92793650Y-85525950D01*
X92813335Y-85458911D01*
X92866139Y-85413156D01*
X92878632Y-85408249D01*
X92962484Y-85380464D01*
X93111806Y-85288362D01*
X93235862Y-85164306D01*
X93327964Y-85014984D01*
X93383149Y-84848447D01*
X93393650Y-84745659D01*
X93393649Y-84120642D01*
X93383149Y-84017853D01*
X93327964Y-83851316D01*
X93235862Y-83701994D01*
X93142199Y-83608331D01*
X93108714Y-83547008D01*
X93113698Y-83477316D01*
X93142199Y-83432969D01*
X93170947Y-83404221D01*
X93235862Y-83339306D01*
X93327964Y-83189984D01*
X93351603Y-83118645D01*
X93391376Y-83061201D01*
X93455892Y-83034378D01*
X93469309Y-83033650D01*
X95473061Y-83033650D01*
X95540100Y-83053335D01*
X95585855Y-83106139D01*
X95596419Y-83145048D01*
X95603151Y-83210947D01*
X95603151Y-83210949D01*
X95645685Y-83339306D01*
X95658336Y-83377484D01*
X95750438Y-83526806D01*
X95874494Y-83650862D01*
X96023816Y-83742964D01*
X96190353Y-83798149D01*
X96293141Y-83808650D01*
X97093158Y-83808649D01*
X97093166Y-83808648D01*
X97093169Y-83808648D01*
X97149452Y-83802898D01*
X97195947Y-83798149D01*
X97362484Y-83742964D01*
X97511806Y-83650862D01*
X97635862Y-83526806D01*
X97675731Y-83462166D01*
X97727675Y-83415444D01*
X97796638Y-83404221D01*
X97860720Y-83432064D01*
X97868949Y-83439584D01*
X97976547Y-83547182D01*
X98116625Y-83648954D01*
X98270894Y-83727558D01*
X98435565Y-83781064D01*
X98435564Y-83781064D01*
X98443149Y-83782265D01*
X98443150Y-83782264D01*
X98443150Y-82713480D01*
X98462895Y-82733225D01*
X98548405Y-82782594D01*
X98643780Y-82808150D01*
X98742520Y-82808150D01*
X98837895Y-82782594D01*
X98923405Y-82733225D01*
X98943150Y-82713480D01*
X98943150Y-83782265D01*
X98950734Y-83781064D01*
X99115405Y-83727558D01*
X99269674Y-83648954D01*
X99409752Y-83547182D01*
X99532182Y-83424752D01*
X99633954Y-83284674D01*
X99712558Y-83130407D01*
X99766064Y-82965734D01*
X99793150Y-82794721D01*
X99793150Y-82683150D01*
X98973480Y-82683150D01*
X98993225Y-82663405D01*
X99042594Y-82577895D01*
X99068150Y-82482520D01*
X99068150Y-82383780D01*
X99042594Y-82288405D01*
X98993225Y-82202895D01*
X98973480Y-82183150D01*
X99793150Y-82183150D01*
X99793150Y-82071578D01*
X99766064Y-81900565D01*
X99712558Y-81735892D01*
X99633954Y-81581625D01*
X99532182Y-81441547D01*
X99409752Y-81319117D01*
X99269674Y-81217345D01*
X99115407Y-81138741D01*
X98950739Y-81085237D01*
X98950731Y-81085235D01*
X98943150Y-81084034D01*
X98943150Y-82152820D01*
X98923405Y-82133075D01*
X98837895Y-82083706D01*
X98742520Y-82058150D01*
X98643780Y-82058150D01*
X98548405Y-82083706D01*
X98462895Y-82133075D01*
X98443150Y-82152820D01*
X98443150Y-81084034D01*
X98443149Y-81084034D01*
X98435568Y-81085235D01*
X98435560Y-81085237D01*
X98270892Y-81138741D01*
X98116625Y-81217345D01*
X97976551Y-81319114D01*
X97868949Y-81426716D01*
X97807626Y-81460200D01*
X97737934Y-81455216D01*
X97682001Y-81413344D01*
X97675735Y-81404138D01*
X97635862Y-81339494D01*
X97511806Y-81215438D01*
X97362484Y-81123336D01*
X97195947Y-81068151D01*
X97195945Y-81068150D01*
X97093160Y-81057650D01*
X96293148Y-81057650D01*
X96293130Y-81057651D01*
X96190353Y-81068150D01*
X96190350Y-81068151D01*
X96023818Y-81123335D01*
X96023813Y-81123337D01*
X95874492Y-81215439D01*
X95750439Y-81339492D01*
X95658337Y-81488813D01*
X95658335Y-81488818D01*
X95603151Y-81655354D01*
X95603150Y-81655355D01*
X95596418Y-81721253D01*
X95570021Y-81785945D01*
X95512840Y-81826096D01*
X95473060Y-81832650D01*
X93242880Y-81832650D01*
X93175841Y-81812965D01*
X93155199Y-81796331D01*
X93111807Y-81752939D01*
X93111806Y-81752938D01*
X92962484Y-81660836D01*
X92795947Y-81605651D01*
X92795945Y-81605650D01*
X92693160Y-81595150D01*
X91693148Y-81595150D01*
X91693130Y-81595151D01*
X91590353Y-81605650D01*
X91590350Y-81605651D01*
X91423818Y-81660835D01*
X91423813Y-81660837D01*
X91274492Y-81752939D01*
X91150439Y-81876992D01*
X91058337Y-82026313D01*
X91058335Y-82026318D01*
X91039915Y-82081906D01*
X91003151Y-82192853D01*
X91003151Y-82192854D01*
X91003150Y-82192854D01*
X90992650Y-82295633D01*
X90992650Y-82920651D01*
X90992651Y-82920669D01*
X91003150Y-83023446D01*
X91003151Y-83023449D01*
X91058335Y-83189981D01*
X91058337Y-83189986D01*
X91150439Y-83339307D01*
X91244101Y-83432969D01*
X91277586Y-83494292D01*
X91272602Y-83563984D01*
X91244101Y-83608331D01*
X91150439Y-83701992D01*
X91058337Y-83851313D01*
X91058336Y-83851316D01*
X91003151Y-84017853D01*
X91003151Y-84017854D01*
X91003150Y-84017854D01*
X90992650Y-84120633D01*
X90992650Y-84745651D01*
X90992651Y-84745669D01*
X91003150Y-84848446D01*
X91003151Y-84848449D01*
X91058335Y-85014981D01*
X91058336Y-85014984D01*
X91150438Y-85164306D01*
X91274494Y-85288362D01*
X91423816Y-85380464D01*
X91507655Y-85408245D01*
X91565098Y-85448016D01*
X91591922Y-85512532D01*
X91592650Y-85525950D01*
X91592650Y-88151184D01*
X91572965Y-88218223D01*
X91571752Y-88220075D01*
X91483759Y-88351764D01*
X91483754Y-88351774D01*
X91440540Y-88456103D01*
X91396699Y-88510506D01*
X91330405Y-88532571D01*
X91325979Y-88532650D01*
X90668148Y-88532650D01*
X90668130Y-88532651D01*
X90565353Y-88543150D01*
X90565350Y-88543151D01*
X90398818Y-88598335D01*
X90398813Y-88598337D01*
X90249492Y-88690439D01*
X90125439Y-88814492D01*
X90033337Y-88963813D01*
X90033335Y-88963818D01*
X90022914Y-88995266D01*
X89978151Y-89130353D01*
X89978151Y-89130354D01*
X89978150Y-89130354D01*
X89967650Y-89233133D01*
X88288650Y-89233133D01*
X88288650Y-75365746D01*
X88308335Y-75298707D01*
X88324965Y-75278069D01*
X89219021Y-74384012D01*
X89270326Y-74353150D01*
X89281973Y-74349576D01*
X89295947Y-74348149D01*
X89412547Y-74309511D01*
X89413872Y-74309105D01*
X89416650Y-74309071D01*
X89450246Y-74303650D01*
X91407431Y-74303650D01*
X91474470Y-74323335D01*
X91517915Y-74371355D01*
X91538097Y-74410964D01*
X91538098Y-74410965D01*
X91663040Y-74582936D01*
X91813463Y-74733359D01*
X91846948Y-74794682D01*
X91841964Y-74864374D01*
X91800092Y-74920307D01*
X91762675Y-74939425D01*
X91736154Y-74947689D01*
X91736151Y-74947690D01*
X91596916Y-75031860D01*
X91596912Y-75031863D01*
X91481863Y-75146912D01*
X91481860Y-75146916D01*
X91397690Y-75286151D01*
X91397688Y-75286157D01*
X91349285Y-75441487D01*
X91349284Y-75441494D01*
X91343150Y-75508998D01*
X91343150Y-75993150D01*
X92260138Y-75993150D01*
X92227225Y-76050157D01*
X92193150Y-76177324D01*
X92193150Y-76308976D01*
X92227225Y-76436143D01*
X92260138Y-76493150D01*
X91343151Y-76493150D01*
X91343151Y-76977312D01*
X91349282Y-77044801D01*
X91349284Y-77044808D01*
X91397687Y-77200139D01*
X91397690Y-77200148D01*
X91481860Y-77339383D01*
X91481863Y-77339387D01*
X91596912Y-77454436D01*
X91596916Y-77454439D01*
X91736151Y-77538609D01*
X91736157Y-77538611D01*
X91891487Y-77587014D01*
X91891494Y-77587015D01*
X91958998Y-77593149D01*
X92443149Y-77593149D01*
X92443150Y-77593148D01*
X92443150Y-76676162D01*
X92500157Y-76709075D01*
X92627324Y-76743150D01*
X92758976Y-76743150D01*
X92886143Y-76709075D01*
X92943150Y-76676162D01*
X92943150Y-77593149D01*
X93427311Y-77593149D01*
X93494801Y-77587017D01*
X93494808Y-77587015D01*
X93650139Y-77538612D01*
X93650148Y-77538609D01*
X93789383Y-77454439D01*
X93789387Y-77454436D01*
X93904436Y-77339387D01*
X93904439Y-77339383D01*
X93988609Y-77200148D01*
X93988611Y-77200142D01*
X94037014Y-77044812D01*
X94037015Y-77044805D01*
X94043150Y-76977301D01*
X94043150Y-76493150D01*
X93126162Y-76493150D01*
X93159075Y-76436143D01*
X93193150Y-76308976D01*
X93193150Y-76177324D01*
X93159075Y-76050157D01*
X93126162Y-75993150D01*
X94043149Y-75993150D01*
X94043149Y-75508987D01*
X94037017Y-75441498D01*
X94037015Y-75441491D01*
X93988612Y-75286160D01*
X93988609Y-75286151D01*
X93904439Y-75146916D01*
X93904436Y-75146912D01*
X93789387Y-75031863D01*
X93789383Y-75031860D01*
X93650148Y-74947690D01*
X93650143Y-74947688D01*
X93623625Y-74939425D01*
X93565478Y-74900686D01*
X93537505Y-74836660D01*
X93548587Y-74767675D01*
X93572836Y-74733358D01*
X93572934Y-74733259D01*
X93572942Y-74733254D01*
X93723254Y-74582942D01*
X93848201Y-74410966D01*
X93944707Y-74221562D01*
X94010396Y-74019393D01*
X94043650Y-73809437D01*
X94043650Y-73596863D01*
X94010396Y-73386907D01*
X93944707Y-73184738D01*
X93848201Y-72995334D01*
X93848199Y-72995331D01*
X93848198Y-72995329D01*
X93723259Y-72823363D01*
X93572936Y-72673040D01*
X93400970Y-72548101D01*
X93400265Y-72547741D01*
X93392204Y-72543635D01*
X93341409Y-72495662D01*
X93324613Y-72427842D01*
X93347149Y-72361706D01*
X93392204Y-72322665D01*
X93400966Y-72318201D01*
X93422939Y-72302236D01*
X93572936Y-72193259D01*
X93572938Y-72193256D01*
X93572942Y-72193254D01*
X93723254Y-72042942D01*
X93723256Y-72042938D01*
X93723259Y-72042936D01*
X93848198Y-71870970D01*
X93848197Y-71870970D01*
X93848201Y-71870966D01*
X93944707Y-71681562D01*
X94010396Y-71479393D01*
X94043650Y-71269437D01*
X94043650Y-71056863D01*
X94010396Y-70846907D01*
X93944707Y-70644738D01*
X93848201Y-70455334D01*
X93848199Y-70455331D01*
X93848198Y-70455329D01*
X93723259Y-70283363D01*
X93572936Y-70133040D01*
X93400970Y-70008101D01*
X93400265Y-70007741D01*
X93392204Y-70003635D01*
X93341409Y-69955662D01*
X93324613Y-69887842D01*
X93347149Y-69821706D01*
X93392204Y-69782665D01*
X93400966Y-69778201D01*
X93422939Y-69762236D01*
X93572936Y-69653259D01*
X93572938Y-69653256D01*
X93572942Y-69653254D01*
X93723254Y-69502942D01*
X93723256Y-69502938D01*
X93723259Y-69502936D01*
X93848198Y-69330970D01*
X93848197Y-69330970D01*
X93848201Y-69330966D01*
X93944707Y-69141562D01*
X94010396Y-68939393D01*
X94043650Y-68729437D01*
X94043650Y-68516863D01*
X94010396Y-68306907D01*
X93944707Y-68104738D01*
X93848201Y-67915334D01*
X93848199Y-67915331D01*
X93848198Y-67915329D01*
X93723259Y-67743363D01*
X93572936Y-67593040D01*
X93400970Y-67468101D01*
X93211564Y-67371594D01*
X93211563Y-67371593D01*
X93211562Y-67371593D01*
X93009393Y-67305904D01*
X93009391Y-67305903D01*
X93009390Y-67305903D01*
X92848107Y-67280358D01*
X92799437Y-67272650D01*
X92586863Y-67272650D01*
X92538192Y-67280358D01*
X92376910Y-67305903D01*
X92174735Y-67371594D01*
X91985329Y-67468101D01*
X91813363Y-67593040D01*
X91663040Y-67743363D01*
X91538101Y-67915329D01*
X91441594Y-68104735D01*
X91375903Y-68306910D01*
X91342650Y-68516863D01*
X91342650Y-68729436D01*
X91375903Y-68939389D01*
X91441594Y-69141564D01*
X91538101Y-69330970D01*
X91663040Y-69502936D01*
X91813363Y-69653259D01*
X91985332Y-69778200D01*
X91994096Y-69782666D01*
X92044892Y-69830641D01*
X92061686Y-69898462D01*
X92039148Y-69964597D01*
X91994096Y-70003634D01*
X91985332Y-70008099D01*
X91813363Y-70133040D01*
X91663040Y-70283363D01*
X91538098Y-70455334D01*
X91538097Y-70455335D01*
X91517915Y-70494945D01*
X91469941Y-70545741D01*
X91407431Y-70562650D01*
X89450246Y-70562650D01*
X89411242Y-70556356D01*
X89379208Y-70545741D01*
X89295947Y-70518151D01*
X89295945Y-70518150D01*
X89193160Y-70507650D01*
X88193148Y-70507650D01*
X88193130Y-70507651D01*
X88090353Y-70518150D01*
X88090350Y-70518151D01*
X87923818Y-70573335D01*
X87923813Y-70573337D01*
X87774492Y-70665439D01*
X87650439Y-70789492D01*
X87558337Y-70938813D01*
X87558336Y-70938816D01*
X87503151Y-71105353D01*
X87503151Y-71105354D01*
X87503150Y-71105354D01*
X87492650Y-71208133D01*
X87492650Y-71833151D01*
X87492651Y-71833169D01*
X87503150Y-71935946D01*
X87503151Y-71935949D01*
X87558335Y-72102481D01*
X87558337Y-72102486D01*
X87650439Y-72251807D01*
X87744101Y-72345469D01*
X87777586Y-72406792D01*
X87772602Y-72476484D01*
X87744101Y-72520831D01*
X87650439Y-72614492D01*
X87558337Y-72763813D01*
X87558336Y-72763816D01*
X87503151Y-72930353D01*
X87503151Y-72930354D01*
X87503150Y-72930354D01*
X87492650Y-73033133D01*
X87492650Y-73658151D01*
X87492651Y-73658169D01*
X87503150Y-73760946D01*
X87503151Y-73760949D01*
X87558335Y-73927481D01*
X87558337Y-73927486D01*
X87650439Y-74076807D01*
X87651417Y-74077785D01*
X87651874Y-74078621D01*
X87654916Y-74082469D01*
X87654258Y-74082988D01*
X87684902Y-74139108D01*
X87679918Y-74208800D01*
X87651417Y-74253147D01*
X87207634Y-74696929D01*
X87207626Y-74696940D01*
X87203749Y-74703656D01*
X87128574Y-74833861D01*
X87128573Y-74833865D01*
X87087649Y-74986593D01*
X87087649Y-74986595D01*
X87087649Y-75154696D01*
X87087650Y-75154709D01*
X87087650Y-96894580D01*
X87087649Y-96894598D01*
X87087649Y-97060304D01*
X87087648Y-97060304D01*
X87128573Y-97213035D01*
X87153176Y-97255647D01*
X87153177Y-97255651D01*
X87207625Y-97349959D01*
X87207629Y-97349964D01*
X87207630Y-97349966D01*
X87319434Y-97461770D01*
X87319435Y-97461771D01*
X87428462Y-97570798D01*
X87498191Y-97640526D01*
X87531676Y-97701849D01*
X87528216Y-97767210D01*
X87503152Y-97842848D01*
X87503150Y-97842859D01*
X87492650Y-97945633D01*
X87492650Y-98558051D01*
X87484004Y-98587494D01*
X87477482Y-98617477D01*
X87473727Y-98622492D01*
X87472965Y-98625090D01*
X87456332Y-98645732D01*
X87326136Y-98775928D01*
X87326135Y-98775928D01*
X87326134Y-98775929D01*
X87214329Y-98887734D01*
X87192458Y-98925618D01*
X87180604Y-98946150D01*
X87135273Y-99024665D01*
X87094349Y-99177393D01*
X87094349Y-99177395D01*
X87094349Y-99345496D01*
X87094350Y-99345509D01*
X87094350Y-100408650D01*
X87074665Y-100475689D01*
X87021861Y-100521444D01*
X86970350Y-100532650D01*
X85645279Y-100532650D01*
X85645273Y-100532651D01*
X85585666Y-100539058D01*
X85450821Y-100589352D01*
X85450814Y-100589356D01*
X85335605Y-100675602D01*
X85335602Y-100675605D01*
X85249356Y-100790814D01*
X85249352Y-100790821D01*
X85199058Y-100925667D01*
X85192651Y-100985266D01*
X85192650Y-100985285D01*
X84693650Y-100985285D01*
X84693650Y-66057650D01*
X84713335Y-65990611D01*
X84766139Y-65944856D01*
X84817650Y-65933650D01*
X145568650Y-65933650D01*
X145635689Y-65953335D01*
G37*
%TD.AperFunction*%
%TA.AperFunction,Conductor*%
G36*
X132054284Y-102936264D02*
G01*
X132110217Y-102978136D01*
X132134634Y-103043600D01*
X132134950Y-103052446D01*
X132134950Y-105113780D01*
X132134949Y-105113798D01*
X132134949Y-105279504D01*
X132134948Y-105279504D01*
X132175873Y-105432236D01*
X132175874Y-105432237D01*
X132190819Y-105458123D01*
X132203133Y-105479451D01*
X132254930Y-105569166D01*
X132254932Y-105569168D01*
X132373799Y-105688035D01*
X132373805Y-105688040D01*
X132987628Y-106301863D01*
X132987630Y-106301866D01*
X133013005Y-106327241D01*
X133029332Y-106343568D01*
X133043498Y-106369511D01*
X133062816Y-106404889D01*
X133065650Y-106431247D01*
X133065650Y-106541822D01*
X133078125Y-106604540D01*
X133078126Y-106604542D01*
X133084619Y-106614259D01*
X133105497Y-106680937D01*
X133087012Y-106748317D01*
X133084622Y-106752037D01*
X133078125Y-106761760D01*
X133078123Y-106761765D01*
X133065650Y-106824472D01*
X133065650Y-107041822D01*
X133070148Y-107064434D01*
X133078125Y-107104539D01*
X133125644Y-107175656D01*
X133196761Y-107223175D01*
X133196764Y-107223175D01*
X133196765Y-107223176D01*
X133228118Y-107229412D01*
X133259475Y-107235650D01*
X133282087Y-107235649D01*
X133349124Y-107255331D01*
X133394881Y-107308134D01*
X133404826Y-107377292D01*
X133403705Y-107383840D01*
X133390650Y-107449470D01*
X133390650Y-107866821D01*
X133398867Y-107908133D01*
X133403125Y-107929539D01*
X133450644Y-108000656D01*
X133521761Y-108048175D01*
X133521764Y-108048175D01*
X133521765Y-108048176D01*
X133542853Y-108052370D01*
X133584475Y-108060650D01*
X133801824Y-108060649D01*
X133864539Y-108048175D01*
X133874256Y-108041681D01*
X133940933Y-108020802D01*
X134008313Y-108039284D01*
X134012029Y-108041672D01*
X134021761Y-108048175D01*
X134021764Y-108048175D01*
X134021765Y-108048176D01*
X134042853Y-108052370D01*
X134084475Y-108060650D01*
X134301824Y-108060649D01*
X134364539Y-108048175D01*
X134374256Y-108041681D01*
X134440933Y-108020802D01*
X134508313Y-108039284D01*
X134512029Y-108041672D01*
X134521761Y-108048175D01*
X134521764Y-108048175D01*
X134521765Y-108048176D01*
X134542853Y-108052370D01*
X134584475Y-108060650D01*
X134695051Y-108060649D01*
X134762090Y-108080333D01*
X134782732Y-108096968D01*
X134824434Y-108138670D01*
X134824436Y-108138671D01*
X134824440Y-108138674D01*
X134901476Y-108183150D01*
X134961366Y-108217727D01*
X135114093Y-108258650D01*
X135114095Y-108258650D01*
X135136714Y-108258650D01*
X135203753Y-108278335D01*
X135212200Y-108284274D01*
X135309364Y-108358830D01*
X135309369Y-108358833D01*
X135452278Y-108418027D01*
X135452290Y-108418031D01*
X135518148Y-108426700D01*
X135518150Y-108426699D01*
X135518150Y-108233364D01*
X135526825Y-108203820D01*
X135533430Y-108173732D01*
X135536820Y-108169779D01*
X135537835Y-108166325D01*
X135554634Y-108145518D01*
X135561014Y-108139161D01*
X135561866Y-108138670D01*
X135656634Y-108043902D01*
X135687410Y-108027171D01*
X135717792Y-108010582D01*
X135717912Y-108010590D01*
X135718020Y-108010532D01*
X135752852Y-108013089D01*
X135787484Y-108015566D01*
X135787581Y-108015639D01*
X135787703Y-108015648D01*
X135815587Y-108036604D01*
X135843417Y-108057438D01*
X135843459Y-108057551D01*
X135843557Y-108057625D01*
X135855655Y-108090249D01*
X135867834Y-108122902D01*
X135867841Y-108123109D01*
X135867851Y-108123135D01*
X135867843Y-108123168D01*
X135868150Y-108131748D01*
X135868150Y-108426698D01*
X135934019Y-108418028D01*
X136076932Y-108358832D01*
X136076936Y-108358830D01*
X136199659Y-108264660D01*
X136199660Y-108264659D01*
X136293830Y-108141936D01*
X136293833Y-108141930D01*
X136353027Y-107999021D01*
X136353029Y-107999016D01*
X136368150Y-107884161D01*
X136368150Y-107833150D01*
X135917650Y-107833150D01*
X135908964Y-107830599D01*
X135900003Y-107831888D01*
X135875962Y-107820909D01*
X135850611Y-107813465D01*
X135844683Y-107806624D01*
X135836447Y-107802863D01*
X135822157Y-107780628D01*
X135804856Y-107760661D01*
X135802568Y-107750146D01*
X135798673Y-107744085D01*
X135793650Y-107709150D01*
X135793650Y-107657650D01*
X135813335Y-107590611D01*
X135866139Y-107544856D01*
X135917650Y-107533650D01*
X136473053Y-107533650D01*
X136540092Y-107553335D01*
X136560734Y-107569969D01*
X138631989Y-109641224D01*
X138631999Y-109641235D01*
X138636329Y-109645565D01*
X138636330Y-109645566D01*
X138748134Y-109757370D01*
X138748136Y-109757371D01*
X138748140Y-109757374D01*
X138885059Y-109836423D01*
X138885066Y-109836427D01*
X138996869Y-109866384D01*
X139037792Y-109877350D01*
X139037793Y-109877350D01*
X139925333Y-109877350D01*
X139942402Y-109882362D01*
X139960193Y-109882351D01*
X139975230Y-109892001D01*
X139992372Y-109897035D01*
X140004020Y-109910477D01*
X140018995Y-109920088D01*
X140026428Y-109936338D01*
X140038127Y-109949839D01*
X140040666Y-109967464D01*
X140048060Y-109983626D01*
X140047273Y-110013311D01*
X140048082Y-110018920D01*
X140047605Y-110022249D01*
X140022650Y-110147708D01*
X140022650Y-110196595D01*
X140021399Y-110205335D01*
X140010419Y-110229416D01*
X140002965Y-110254804D01*
X139996154Y-110260705D01*
X139992414Y-110268909D01*
X139970156Y-110283232D01*
X139950161Y-110300559D01*
X139941240Y-110301841D01*
X139933660Y-110306720D01*
X139907196Y-110306736D01*
X139881003Y-110310503D01*
X139867366Y-110306761D01*
X139863790Y-110306764D01*
X139861113Y-110305046D01*
X139851198Y-110302326D01*
X139791984Y-110277799D01*
X139791974Y-110277796D01*
X139640419Y-110247650D01*
X139640417Y-110247650D01*
X139485883Y-110247650D01*
X139485881Y-110247650D01*
X139334325Y-110277796D01*
X139334315Y-110277799D01*
X139191551Y-110336933D01*
X139191548Y-110336935D01*
X139063064Y-110422785D01*
X139063056Y-110422791D01*
X139015831Y-110470017D01*
X138954508Y-110503502D01*
X138884816Y-110498518D01*
X138840469Y-110470017D01*
X138793243Y-110422791D01*
X138793235Y-110422785D01*
X138664751Y-110336935D01*
X138664748Y-110336933D01*
X138521984Y-110277799D01*
X138521974Y-110277796D01*
X138370419Y-110247650D01*
X138370417Y-110247650D01*
X138215883Y-110247650D01*
X138215881Y-110247650D01*
X138064325Y-110277796D01*
X138064315Y-110277799D01*
X137921551Y-110336933D01*
X137921548Y-110336935D01*
X137793064Y-110422785D01*
X137793056Y-110422791D01*
X137683791Y-110532056D01*
X137683785Y-110532064D01*
X137597935Y-110660548D01*
X137597933Y-110660551D01*
X137538799Y-110803315D01*
X137538796Y-110803325D01*
X137508650Y-110954880D01*
X137508650Y-111487148D01*
X137488965Y-111554187D01*
X137436161Y-111599942D01*
X137367003Y-111609886D01*
X137303447Y-111580861D01*
X137281548Y-111556039D01*
X137227439Y-111475061D01*
X137227436Y-111475057D01*
X137115942Y-111363563D01*
X137115938Y-111363560D01*
X136984835Y-111275959D01*
X136984822Y-111275952D01*
X136839151Y-111215614D01*
X136839139Y-111215611D01*
X136684495Y-111184850D01*
X136684492Y-111184850D01*
X136526808Y-111184850D01*
X136526805Y-111184850D01*
X136372160Y-111215611D01*
X136372148Y-111215614D01*
X136226477Y-111275952D01*
X136226464Y-111275959D01*
X136095361Y-111363560D01*
X136095357Y-111363563D01*
X135983863Y-111475057D01*
X135983860Y-111475061D01*
X135896259Y-111606164D01*
X135896252Y-111606177D01*
X135835914Y-111751848D01*
X135835911Y-111751860D01*
X135805150Y-111906503D01*
X135805150Y-112064196D01*
X135835911Y-112218839D01*
X135835914Y-112218851D01*
X135896252Y-112364522D01*
X135896259Y-112364535D01*
X135984252Y-112496224D01*
X136005130Y-112562901D01*
X136005150Y-112565115D01*
X136005150Y-113240641D01*
X136004749Y-113242003D01*
X136005120Y-113243375D01*
X135994933Y-113275434D01*
X135985465Y-113307680D01*
X135984253Y-113309047D01*
X135983962Y-113309964D01*
X135980473Y-113313313D01*
X135960266Y-113336122D01*
X135953601Y-113341644D01*
X135874494Y-113390438D01*
X135776729Y-113488202D01*
X135772266Y-113491901D01*
X135745284Y-113503510D01*
X135719508Y-113517586D01*
X135713561Y-113517160D01*
X135708086Y-113519517D01*
X135679114Y-113514697D01*
X135649816Y-113512602D01*
X135643981Y-113508852D01*
X135639164Y-113508051D01*
X135630444Y-113500152D01*
X135605469Y-113484101D01*
X135511807Y-113390439D01*
X135511806Y-113390438D01*
X135381150Y-113309849D01*
X135362486Y-113298337D01*
X135362481Y-113298335D01*
X135293370Y-113275434D01*
X135195947Y-113243151D01*
X135195945Y-113243150D01*
X135093160Y-113232650D01*
X134468148Y-113232650D01*
X134468130Y-113232651D01*
X134365353Y-113243150D01*
X134365350Y-113243151D01*
X134198818Y-113298335D01*
X134198809Y-113298339D01*
X134070246Y-113377638D01*
X134002854Y-113396078D01*
X133936191Y-113375155D01*
X133891421Y-113321513D01*
X133881150Y-113272099D01*
X133881150Y-112387433D01*
X133887444Y-112348429D01*
X133893030Y-112331572D01*
X133908149Y-112285947D01*
X133918650Y-112183159D01*
X133918649Y-111583142D01*
X133915880Y-111556039D01*
X133908149Y-111480353D01*
X133908148Y-111480350D01*
X133906394Y-111475057D01*
X133852964Y-111313816D01*
X133760862Y-111164494D01*
X133636806Y-111040438D01*
X133633492Y-111038393D01*
X133631696Y-111036398D01*
X133631139Y-111035957D01*
X133631214Y-111035861D01*
X133586768Y-110986447D01*
X133575547Y-110917484D01*
X133603390Y-110853402D01*
X133633498Y-110827315D01*
X133636492Y-110825468D01*
X133760465Y-110701495D01*
X133852506Y-110552274D01*
X133852508Y-110552269D01*
X133907655Y-110385847D01*
X133907656Y-110385840D01*
X133918149Y-110283136D01*
X133918150Y-110283123D01*
X133918150Y-110233150D01*
X132817150Y-110233150D01*
X132750111Y-110213465D01*
X132704356Y-110160661D01*
X132693150Y-110109150D01*
X132693150Y-109983150D01*
X132567150Y-109983150D01*
X132500111Y-109963465D01*
X132454356Y-109910661D01*
X132443150Y-109859150D01*
X132443150Y-109733150D01*
X132943150Y-109733150D01*
X133918149Y-109733150D01*
X133918149Y-109683178D01*
X133918148Y-109683163D01*
X133907655Y-109580452D01*
X133852508Y-109414030D01*
X133852506Y-109414025D01*
X133760465Y-109264804D01*
X133636495Y-109140834D01*
X133487274Y-109048793D01*
X133487269Y-109048791D01*
X133320847Y-108993644D01*
X133320840Y-108993643D01*
X133218136Y-108983150D01*
X132943150Y-108983150D01*
X132943150Y-109733150D01*
X132443150Y-109733150D01*
X132443150Y-108983150D01*
X132168179Y-108983150D01*
X132168162Y-108983151D01*
X132065452Y-108993644D01*
X131899030Y-109048791D01*
X131899025Y-109048793D01*
X131749804Y-109140834D01*
X131625834Y-109264804D01*
X131533793Y-109414025D01*
X131533791Y-109414030D01*
X131482405Y-109569105D01*
X131442632Y-109626550D01*
X131378117Y-109653373D01*
X131309341Y-109641058D01*
X131277018Y-109617782D01*
X129969969Y-108310733D01*
X129936484Y-108249410D01*
X129933650Y-108223052D01*
X129933650Y-104767195D01*
X129933650Y-104767193D01*
X129892727Y-104614466D01*
X129870767Y-104576429D01*
X129813674Y-104477540D01*
X129813671Y-104477536D01*
X129813670Y-104477534D01*
X129701866Y-104365730D01*
X129701865Y-104365729D01*
X129697535Y-104361399D01*
X129697524Y-104361389D01*
X129148491Y-103812356D01*
X129115006Y-103751033D01*
X129119990Y-103681341D01*
X129148491Y-103636994D01*
X129152137Y-103633348D01*
X129185116Y-103600369D01*
X129185118Y-103600365D01*
X129185121Y-103600363D01*
X129305434Y-103434764D01*
X129305435Y-103434763D01*
X129305437Y-103434760D01*
X129312267Y-103421354D01*
X129360241Y-103370559D01*
X129422752Y-103353650D01*
X131198981Y-103353650D01*
X131198997Y-103353651D01*
X131206593Y-103353651D01*
X131364704Y-103353651D01*
X131364707Y-103353651D01*
X131517435Y-103312727D01*
X131567554Y-103283789D01*
X131654366Y-103233670D01*
X131766170Y-103121866D01*
X131766171Y-103121863D01*
X131923271Y-102964762D01*
X131984592Y-102931280D01*
X132054284Y-102936264D01*
G37*
%TD.AperFunction*%
%TA.AperFunction,Conductor*%
G36*
X135386189Y-101902835D02*
G01*
X135431944Y-101955639D01*
X135443150Y-102007150D01*
X135443150Y-102883149D01*
X135718122Y-102883149D01*
X135718136Y-102883148D01*
X135820847Y-102872655D01*
X135987269Y-102817508D01*
X135987274Y-102817506D01*
X136136495Y-102725465D01*
X136260465Y-102601495D01*
X136352506Y-102452274D01*
X136352508Y-102452269D01*
X136403895Y-102297194D01*
X136405249Y-102295238D01*
X136405419Y-102292864D01*
X136425030Y-102266666D01*
X136443667Y-102239749D01*
X136445865Y-102238834D01*
X136447291Y-102236931D01*
X136477947Y-102225496D01*
X136508183Y-102212926D01*
X136510525Y-102213345D01*
X136512755Y-102212514D01*
X136544737Y-102219471D01*
X136576959Y-102225241D01*
X136579426Y-102227017D01*
X136581028Y-102227366D01*
X136609282Y-102248517D01*
X136712489Y-102351724D01*
X136712499Y-102351735D01*
X136716829Y-102356065D01*
X136716830Y-102356066D01*
X136828634Y-102467870D01*
X136915445Y-102517989D01*
X136915447Y-102517991D01*
X136953501Y-102539961D01*
X136965565Y-102546927D01*
X137118293Y-102587851D01*
X137118296Y-102587851D01*
X137284003Y-102587851D01*
X137284019Y-102587850D01*
X139362205Y-102587850D01*
X139362207Y-102587850D01*
X139514934Y-102546927D01*
X139651866Y-102467870D01*
X139763670Y-102356066D01*
X139842727Y-102219134D01*
X139877269Y-102090218D01*
X139913631Y-102030563D01*
X139976478Y-102000033D01*
X140045854Y-102008327D01*
X140065933Y-102019214D01*
X140176859Y-102093333D01*
X140176865Y-102093336D01*
X140176866Y-102093337D01*
X140325277Y-102154811D01*
X140424485Y-102174544D01*
X140479541Y-102185496D01*
X140541452Y-102217880D01*
X140576026Y-102278596D01*
X140579350Y-102307113D01*
X140579350Y-103962152D01*
X140559665Y-104029191D01*
X140543031Y-104049833D01*
X140082631Y-104510232D01*
X140082625Y-104510240D01*
X140049337Y-104567898D01*
X140049334Y-104567904D01*
X140044413Y-104576429D01*
X140003573Y-104647165D01*
X139967369Y-104782277D01*
X139965079Y-104788267D01*
X139947640Y-104811167D01*
X139932665Y-104835736D01*
X139926741Y-104838613D01*
X139922750Y-104843855D01*
X139895701Y-104853691D01*
X139869818Y-104866265D01*
X139863277Y-104865482D01*
X139857088Y-104867734D01*
X139829020Y-104861386D01*
X139800443Y-104857970D01*
X139790806Y-104852745D01*
X139788939Y-104852323D01*
X139787694Y-104851057D01*
X139780365Y-104847084D01*
X139669440Y-104772966D01*
X139669431Y-104772961D01*
X139521023Y-104711489D01*
X139521015Y-104711487D01*
X139363474Y-104680150D01*
X139363470Y-104680150D01*
X139202830Y-104680150D01*
X139202825Y-104680150D01*
X139045284Y-104711487D01*
X139045276Y-104711489D01*
X138896868Y-104772961D01*
X138896859Y-104772966D01*
X138763299Y-104862209D01*
X138763295Y-104862212D01*
X138649712Y-104975795D01*
X138649709Y-104975799D01*
X138560466Y-105109359D01*
X138560461Y-105109368D01*
X138498989Y-105257776D01*
X138498987Y-105257784D01*
X138467650Y-105415325D01*
X138467650Y-106810974D01*
X138498987Y-106968515D01*
X138498989Y-106968523D01*
X138562794Y-107122562D01*
X138560779Y-107123396D01*
X138573014Y-107182191D01*
X138563977Y-107219679D01*
X138549786Y-107253941D01*
X138513413Y-107341753D01*
X138513412Y-107341756D01*
X138513412Y-107341757D01*
X138513411Y-107341760D01*
X138482650Y-107496403D01*
X138482053Y-107502468D01*
X138480231Y-107502288D01*
X138462965Y-107561092D01*
X138410161Y-107606847D01*
X138341003Y-107616791D01*
X138277447Y-107587766D01*
X138270969Y-107581734D01*
X137260740Y-106571505D01*
X137260738Y-106571502D01*
X137141867Y-106452631D01*
X137141859Y-106452625D01*
X137032269Y-106389354D01*
X137032268Y-106389353D01*
X137008203Y-106375460D01*
X137004935Y-106373573D01*
X136852207Y-106332649D01*
X136805254Y-106332649D01*
X136738215Y-106312964D01*
X136692460Y-106260160D01*
X136682315Y-106224833D01*
X136678030Y-106192290D01*
X136678027Y-106192278D01*
X136618833Y-106049369D01*
X136618830Y-106049364D01*
X136544274Y-105952200D01*
X136519080Y-105887031D01*
X136518650Y-105876714D01*
X136518650Y-105854095D01*
X136518650Y-105854093D01*
X136477727Y-105701366D01*
X136470033Y-105688040D01*
X136398674Y-105564440D01*
X136398668Y-105564432D01*
X136286867Y-105452631D01*
X136286859Y-105452625D01*
X136149940Y-105373576D01*
X136149935Y-105373573D01*
X136123796Y-105366569D01*
X136087553Y-105356858D01*
X136027895Y-105320494D01*
X135997366Y-105257647D01*
X135995649Y-105237092D01*
X135995649Y-104999476D01*
X135983175Y-104936761D01*
X135935656Y-104865644D01*
X135864539Y-104818125D01*
X135854385Y-104811340D01*
X135856518Y-104808146D01*
X135819109Y-104777994D01*
X135806409Y-104754733D01*
X135793830Y-104724364D01*
X135793830Y-104724363D01*
X135699660Y-104601640D01*
X135699659Y-104601639D01*
X135576936Y-104507469D01*
X135576930Y-104507466D01*
X135434018Y-104448271D01*
X135365013Y-104439185D01*
X135309289Y-104465036D01*
X135240073Y-104455503D01*
X135186998Y-104410063D01*
X135183525Y-104404404D01*
X135178705Y-104396056D01*
X135173670Y-104387334D01*
X134638523Y-103852187D01*
X134605038Y-103790864D01*
X134604587Y-103788697D01*
X134591589Y-103723351D01*
X134573687Y-103633353D01*
X134560022Y-103600363D01*
X134513347Y-103487677D01*
X134513340Y-103487664D01*
X134425739Y-103356561D01*
X134425736Y-103356557D01*
X134314242Y-103245063D01*
X134314238Y-103245060D01*
X134183135Y-103157459D01*
X134183122Y-103157452D01*
X134037451Y-103097114D01*
X134037439Y-103097111D01*
X133882795Y-103066350D01*
X133882792Y-103066350D01*
X133725108Y-103066350D01*
X133680229Y-103075277D01*
X133610637Y-103069049D01*
X133555460Y-103026185D01*
X133532216Y-102960295D01*
X133548284Y-102892298D01*
X133568357Y-102865977D01*
X133576763Y-102857571D01*
X133576766Y-102857570D01*
X133688570Y-102745766D01*
X133767627Y-102608834D01*
X133803223Y-102475985D01*
X133839587Y-102416327D01*
X133902434Y-102385798D01*
X133971809Y-102394093D01*
X134025687Y-102438578D01*
X134029974Y-102446141D01*
X134030001Y-102446125D01*
X134125834Y-102601495D01*
X134249804Y-102725465D01*
X134399025Y-102817506D01*
X134399030Y-102817508D01*
X134565452Y-102872655D01*
X134565459Y-102872656D01*
X134668169Y-102883149D01*
X134943149Y-102883149D01*
X134943150Y-102883148D01*
X134943150Y-102007150D01*
X134962835Y-101940111D01*
X135015639Y-101894356D01*
X135067150Y-101883150D01*
X135319150Y-101883150D01*
X135386189Y-101902835D01*
G37*
%TD.AperFunction*%
%TA.AperFunction,Conductor*%
G36*
X131252166Y-89475835D02*
G01*
X131297921Y-89528639D01*
X131307865Y-89597797D01*
X131278840Y-89661353D01*
X131272808Y-89667831D01*
X131150834Y-89789804D01*
X131058793Y-89939025D01*
X131058791Y-89939030D01*
X131003644Y-90105452D01*
X131003643Y-90105459D01*
X130993150Y-90208163D01*
X130993150Y-90270650D01*
X133393149Y-90270650D01*
X133393149Y-90208178D01*
X133393148Y-90208163D01*
X133382655Y-90105452D01*
X133327508Y-89939030D01*
X133327506Y-89939025D01*
X133235465Y-89789804D01*
X133113492Y-89667831D01*
X133080007Y-89606508D01*
X133084991Y-89536816D01*
X133126863Y-89480883D01*
X133192327Y-89456466D01*
X133201173Y-89456150D01*
X135913852Y-89456150D01*
X135980891Y-89475835D01*
X135981977Y-89476540D01*
X135992567Y-89483503D01*
X136022734Y-89513670D01*
X136151618Y-89588080D01*
X136154618Y-89590053D01*
X136174984Y-89614059D01*
X136196708Y-89636842D01*
X136199317Y-89642741D01*
X136199819Y-89643332D01*
X136199922Y-89644107D01*
X136202675Y-89650330D01*
X136249352Y-89775478D01*
X136249356Y-89775485D01*
X136335602Y-89890694D01*
X136335605Y-89890697D01*
X136450814Y-89976943D01*
X136450821Y-89976947D01*
X136585667Y-90027241D01*
X136585666Y-90027241D01*
X136592594Y-90027985D01*
X136645277Y-90033650D01*
X138441022Y-90033649D01*
X138500633Y-90027241D01*
X138635481Y-89976946D01*
X138750696Y-89890696D01*
X138836946Y-89775481D01*
X138859759Y-89714317D01*
X138901630Y-89658383D01*
X138967094Y-89633966D01*
X138975941Y-89633650D01*
X142410359Y-89633650D01*
X142477398Y-89653335D01*
X142523153Y-89706139D01*
X142526541Y-89714317D01*
X142549352Y-89775478D01*
X142549356Y-89775485D01*
X142635602Y-89890694D01*
X142635605Y-89890697D01*
X142750814Y-89976943D01*
X142750821Y-89976947D01*
X142885667Y-90027241D01*
X142885666Y-90027241D01*
X142892594Y-90027985D01*
X142945277Y-90033650D01*
X144270350Y-90033649D01*
X144337389Y-90053334D01*
X144383144Y-90106137D01*
X144394350Y-90157649D01*
X144394350Y-91708650D01*
X144374665Y-91775689D01*
X144321861Y-91821444D01*
X144270350Y-91832650D01*
X142945279Y-91832650D01*
X142945273Y-91832651D01*
X142885666Y-91839058D01*
X142750821Y-91889352D01*
X142750814Y-91889356D01*
X142635605Y-91975602D01*
X142635602Y-91975605D01*
X142549356Y-92090814D01*
X142549352Y-92090821D01*
X142526541Y-92151983D01*
X142484670Y-92207917D01*
X142419206Y-92232334D01*
X142410359Y-92232650D01*
X138975941Y-92232650D01*
X138908902Y-92212965D01*
X138863147Y-92160161D01*
X138859759Y-92151983D01*
X138836947Y-92090821D01*
X138836943Y-92090814D01*
X138750697Y-91975605D01*
X138750694Y-91975602D01*
X138635485Y-91889356D01*
X138635478Y-91889352D01*
X138500632Y-91839058D01*
X138500633Y-91839058D01*
X138441033Y-91832651D01*
X138441031Y-91832650D01*
X138441023Y-91832650D01*
X138441014Y-91832650D01*
X136645279Y-91832650D01*
X136645273Y-91832651D01*
X136585666Y-91839058D01*
X136529635Y-91859956D01*
X136459944Y-91864939D01*
X136438855Y-91858335D01*
X136406452Y-91844914D01*
X136406444Y-91844911D01*
X136251795Y-91814150D01*
X136251792Y-91814150D01*
X136094108Y-91814150D01*
X136094105Y-91814150D01*
X135939460Y-91844911D01*
X135939448Y-91844914D01*
X135793777Y-91905252D01*
X135793764Y-91905259D01*
X135662075Y-91993252D01*
X135595397Y-92014130D01*
X135593184Y-92014150D01*
X133500458Y-92014150D01*
X133433419Y-91994465D01*
X133387664Y-91941661D01*
X133382752Y-91929154D01*
X133359822Y-91859956D01*
X133327964Y-91763816D01*
X133235862Y-91614494D01*
X133141845Y-91520477D01*
X133108360Y-91459154D01*
X133113344Y-91389462D01*
X133141845Y-91345114D01*
X133235467Y-91251492D01*
X133327506Y-91102274D01*
X133327508Y-91102269D01*
X133382655Y-90935847D01*
X133382656Y-90935840D01*
X133393149Y-90833136D01*
X133393150Y-90833123D01*
X133393150Y-90770650D01*
X130993151Y-90770650D01*
X130993151Y-90833136D01*
X131003644Y-90935847D01*
X131058791Y-91102269D01*
X131058793Y-91102274D01*
X131150834Y-91251495D01*
X131244454Y-91345115D01*
X131277939Y-91406438D01*
X131272955Y-91476130D01*
X131244455Y-91520477D01*
X131150437Y-91614495D01*
X131058337Y-91763813D01*
X131058335Y-91763818D01*
X131041657Y-91814150D01*
X131003151Y-91930353D01*
X131003151Y-91930354D01*
X131003150Y-91930354D01*
X130992650Y-92033133D01*
X130992650Y-92658151D01*
X130992651Y-92658169D01*
X131003150Y-92760946D01*
X131003151Y-92760949D01*
X131030390Y-92843150D01*
X131058336Y-92927484D01*
X131150438Y-93076806D01*
X131274494Y-93200862D01*
X131423816Y-93292964D01*
X131590353Y-93348149D01*
X131693141Y-93358650D01*
X132693158Y-93358649D01*
X132693166Y-93358648D01*
X132693169Y-93358648D01*
X132749452Y-93352898D01*
X132795947Y-93348149D01*
X132962484Y-93292964D01*
X132992421Y-93274499D01*
X133058712Y-93233611D01*
X133123808Y-93215150D01*
X135593184Y-93215150D01*
X135660223Y-93234835D01*
X135662075Y-93236048D01*
X135793764Y-93324040D01*
X135793777Y-93324047D01*
X135939448Y-93384385D01*
X135939453Y-93384387D01*
X136094103Y-93415149D01*
X136094106Y-93415150D01*
X136094108Y-93415150D01*
X136103459Y-93415150D01*
X136170498Y-93434835D01*
X136216253Y-93487639D01*
X136219641Y-93495817D01*
X136249352Y-93575478D01*
X136249356Y-93575485D01*
X136335602Y-93690694D01*
X136335605Y-93690697D01*
X136450814Y-93776943D01*
X136450821Y-93776947D01*
X136585667Y-93827241D01*
X136585666Y-93827241D01*
X136592594Y-93827985D01*
X136645277Y-93833650D01*
X138441022Y-93833649D01*
X138500633Y-93827241D01*
X138635481Y-93776946D01*
X138750696Y-93690696D01*
X138836946Y-93575481D01*
X138847039Y-93548420D01*
X138859759Y-93514317D01*
X138901630Y-93458383D01*
X138967094Y-93433966D01*
X138975941Y-93433650D01*
X142410359Y-93433650D01*
X142477398Y-93453335D01*
X142523153Y-93506139D01*
X142526541Y-93514317D01*
X142549352Y-93575478D01*
X142549356Y-93575485D01*
X142635602Y-93690694D01*
X142635605Y-93690697D01*
X142750814Y-93776943D01*
X142750821Y-93776947D01*
X142885667Y-93827241D01*
X142885666Y-93827241D01*
X142892594Y-93827985D01*
X142945277Y-93833650D01*
X143659052Y-93833649D01*
X143726090Y-93853333D01*
X143771845Y-93906137D01*
X143781789Y-93975296D01*
X143752764Y-94038852D01*
X143746732Y-94045330D01*
X138914436Y-98877628D01*
X138802631Y-98989432D01*
X138802629Y-98989434D01*
X138777318Y-99033275D01*
X138766620Y-99051806D01*
X138723573Y-99126365D01*
X138682649Y-99279093D01*
X138682649Y-99279095D01*
X138682649Y-99447196D01*
X138682650Y-99447209D01*
X138682650Y-99531496D01*
X138662965Y-99598535D01*
X138653137Y-99610730D01*
X138653575Y-99611089D01*
X138649709Y-99615799D01*
X138560466Y-99749359D01*
X138560461Y-99749368D01*
X138498989Y-99897776D01*
X138498987Y-99897784D01*
X138467650Y-100055325D01*
X138467650Y-101262850D01*
X138447965Y-101329889D01*
X138395161Y-101375644D01*
X138343650Y-101386850D01*
X137497447Y-101386850D01*
X137430408Y-101367165D01*
X137409766Y-101350531D01*
X136453247Y-100394012D01*
X136419762Y-100332689D01*
X136417570Y-100293727D01*
X136418650Y-100283159D01*
X136418649Y-99683142D01*
X136411769Y-99615795D01*
X136408149Y-99580353D01*
X136408148Y-99580350D01*
X136400260Y-99556546D01*
X136352964Y-99413816D01*
X136260862Y-99264494D01*
X136136806Y-99140438D01*
X136014117Y-99064763D01*
X135987486Y-99048337D01*
X135987479Y-99048334D01*
X135980543Y-99046036D01*
X135923099Y-99006262D01*
X135896278Y-98941745D01*
X135908595Y-98872970D01*
X135956139Y-98821771D01*
X136023816Y-98804404D01*
X136032139Y-98804971D01*
X136068141Y-98808650D01*
X136918158Y-98808649D01*
X136918166Y-98808648D01*
X136918169Y-98808648D01*
X136974452Y-98802898D01*
X137020947Y-98798149D01*
X137187484Y-98742964D01*
X137336806Y-98650862D01*
X137460862Y-98526806D01*
X137552964Y-98377484D01*
X137608149Y-98210947D01*
X137618650Y-98108159D01*
X137618649Y-96758142D01*
X137610988Y-96683150D01*
X137608149Y-96655353D01*
X137608148Y-96655350D01*
X137552964Y-96488816D01*
X137460862Y-96339494D01*
X137336806Y-96215438D01*
X137187484Y-96123336D01*
X137020947Y-96068151D01*
X137020945Y-96068150D01*
X136918160Y-96057650D01*
X136068149Y-96057650D01*
X136068123Y-96057652D01*
X136034884Y-96061047D01*
X136032963Y-96060689D01*
X136031132Y-96061373D01*
X135998762Y-96054331D01*
X135966192Y-96048276D01*
X135964163Y-96046804D01*
X135962859Y-96046521D01*
X135934605Y-96025370D01*
X135780940Y-95871705D01*
X135780938Y-95871702D01*
X135662067Y-95752831D01*
X135662066Y-95752830D01*
X135575254Y-95702710D01*
X135575254Y-95702709D01*
X135575250Y-95702708D01*
X135525135Y-95673773D01*
X135372407Y-95632849D01*
X135214293Y-95632849D01*
X135206697Y-95632849D01*
X135206681Y-95632850D01*
X129568886Y-95632850D01*
X129501847Y-95613165D01*
X129456092Y-95560361D01*
X129446148Y-95491203D01*
X129450955Y-95470533D01*
X129461625Y-95437692D01*
X129461625Y-95437688D01*
X129461627Y-95437684D01*
X129493650Y-95235502D01*
X129493650Y-95030798D01*
X129461627Y-94828616D01*
X129398370Y-94633931D01*
X129398368Y-94633928D01*
X129398368Y-94633926D01*
X129325996Y-94491890D01*
X129305437Y-94451540D01*
X129297706Y-94440899D01*
X129185121Y-94285936D01*
X129040363Y-94141178D01*
X128874764Y-94020865D01*
X128868156Y-94017498D01*
X128782067Y-93973633D01*
X128731273Y-93925661D01*
X128714478Y-93857840D01*
X128737015Y-93791705D01*
X128782067Y-93752666D01*
X128874760Y-93705437D01*
X128964223Y-93640439D01*
X129040363Y-93585121D01*
X129040365Y-93585118D01*
X129040369Y-93585116D01*
X129185116Y-93440369D01*
X129185118Y-93440365D01*
X129185121Y-93440363D01*
X129244488Y-93358650D01*
X129305437Y-93274760D01*
X129398370Y-93092369D01*
X129461627Y-92897684D01*
X129493650Y-92695502D01*
X129493650Y-92490798D01*
X129461627Y-92288615D01*
X129432277Y-92198287D01*
X129398370Y-92093931D01*
X129398368Y-92093928D01*
X129398368Y-92093926D01*
X129346872Y-91992861D01*
X129305437Y-91911540D01*
X129271580Y-91864939D01*
X129185121Y-91745936D01*
X129040363Y-91601178D01*
X128874764Y-91480865D01*
X128865471Y-91476130D01*
X128782067Y-91433633D01*
X128731273Y-91385661D01*
X128714478Y-91317840D01*
X128737015Y-91251705D01*
X128782067Y-91212666D01*
X128874760Y-91165437D01*
X128919182Y-91133163D01*
X129040363Y-91045121D01*
X129040365Y-91045118D01*
X129040369Y-91045116D01*
X129185116Y-90900369D01*
X129185118Y-90900365D01*
X129185121Y-90900363D01*
X129237882Y-90827740D01*
X129305437Y-90734760D01*
X129398370Y-90552369D01*
X129461627Y-90357684D01*
X129493650Y-90155502D01*
X129493650Y-89950798D01*
X129461627Y-89748616D01*
X129419338Y-89618466D01*
X129417344Y-89548628D01*
X129453424Y-89488795D01*
X129516124Y-89457966D01*
X129537270Y-89456150D01*
X131185127Y-89456150D01*
X131252166Y-89475835D01*
G37*
%TD.AperFunction*%
%TD*%
M02*
