%TF.GenerationSoftware,KiCad,Pcbnew,10.0.3*%
%TF.CreationDate,2026-08-16T19:10:51+05:30*%
%TF.ProjectId,laser,6c617365-722e-46b6-9963-61645f706362,rev?*%
%TF.SameCoordinates,Original*%
%TF.FileFunction,Legend,Top*%
%TF.FilePolarity,Positive*%
%FSLAX46Y46*%
G04 Gerber Fmt 4.6, Leading zero omitted, Abs format (unit mm)*
G04 Created by KiCad (PCBNEW 10.0.3) date 2026-08-16 19:10:51*
%MOMM*%
%LPD*%
G01*
G04 APERTURE LIST*
%ADD10C,0.150000*%
%ADD11C,0.120000*%
%ADD12C,0.300000*%
%ADD13C,0.060000*%
%ADD14C,0.250000*%
G04 APERTURE END LIST*
D10*
X137232730Y-101099816D02*
X137280350Y-101147435D01*
X137280350Y-101147435D02*
X137327969Y-101290292D01*
X137327969Y-101290292D02*
X137327969Y-101385530D01*
X137327969Y-101385530D02*
X137280350Y-101528387D01*
X137280350Y-101528387D02*
X137185111Y-101623625D01*
X137185111Y-101623625D02*
X137089873Y-101671244D01*
X137089873Y-101671244D02*
X136899397Y-101718863D01*
X136899397Y-101718863D02*
X136756540Y-101718863D01*
X136756540Y-101718863D02*
X136566064Y-101671244D01*
X136566064Y-101671244D02*
X136470826Y-101623625D01*
X136470826Y-101623625D02*
X136375588Y-101528387D01*
X136375588Y-101528387D02*
X136327969Y-101385530D01*
X136327969Y-101385530D02*
X136327969Y-101290292D01*
X136327969Y-101290292D02*
X136375588Y-101147435D01*
X136375588Y-101147435D02*
X136423207Y-101099816D01*
X137327969Y-100147435D02*
X137327969Y-100718863D01*
X137327969Y-100433149D02*
X136327969Y-100433149D01*
X136327969Y-100433149D02*
X136470826Y-100528387D01*
X136470826Y-100528387D02*
X136566064Y-100623625D01*
X136566064Y-100623625D02*
X136613683Y-100718863D01*
X140431245Y-96205969D02*
X140431245Y-97015492D01*
X140431245Y-97015492D02*
X140478864Y-97110730D01*
X140478864Y-97110730D02*
X140526483Y-97158350D01*
X140526483Y-97158350D02*
X140621721Y-97205969D01*
X140621721Y-97205969D02*
X140812197Y-97205969D01*
X140812197Y-97205969D02*
X140907435Y-97158350D01*
X140907435Y-97158350D02*
X140955054Y-97110730D01*
X140955054Y-97110730D02*
X141002673Y-97015492D01*
X141002673Y-97015492D02*
X141002673Y-96205969D01*
X141383626Y-96205969D02*
X142002673Y-96205969D01*
X142002673Y-96205969D02*
X141669340Y-96586921D01*
X141669340Y-96586921D02*
X141812197Y-96586921D01*
X141812197Y-96586921D02*
X141907435Y-96634540D01*
X141907435Y-96634540D02*
X141955054Y-96682159D01*
X141955054Y-96682159D02*
X142002673Y-96777397D01*
X142002673Y-96777397D02*
X142002673Y-97015492D01*
X142002673Y-97015492D02*
X141955054Y-97110730D01*
X141955054Y-97110730D02*
X141907435Y-97158350D01*
X141907435Y-97158350D02*
X141812197Y-97205969D01*
X141812197Y-97205969D02*
X141526483Y-97205969D01*
X141526483Y-97205969D02*
X141431245Y-97158350D01*
X141431245Y-97158350D02*
X141383626Y-97110730D01*
X88359817Y-100090350D02*
X88502674Y-100137969D01*
X88502674Y-100137969D02*
X88740769Y-100137969D01*
X88740769Y-100137969D02*
X88836007Y-100090350D01*
X88836007Y-100090350D02*
X88883626Y-100042730D01*
X88883626Y-100042730D02*
X88931245Y-99947492D01*
X88931245Y-99947492D02*
X88931245Y-99852254D01*
X88931245Y-99852254D02*
X88883626Y-99757016D01*
X88883626Y-99757016D02*
X88836007Y-99709397D01*
X88836007Y-99709397D02*
X88740769Y-99661778D01*
X88740769Y-99661778D02*
X88550293Y-99614159D01*
X88550293Y-99614159D02*
X88455055Y-99566540D01*
X88455055Y-99566540D02*
X88407436Y-99518921D01*
X88407436Y-99518921D02*
X88359817Y-99423683D01*
X88359817Y-99423683D02*
X88359817Y-99328445D01*
X88359817Y-99328445D02*
X88407436Y-99233207D01*
X88407436Y-99233207D02*
X88455055Y-99185588D01*
X88455055Y-99185588D02*
X88550293Y-99137969D01*
X88550293Y-99137969D02*
X88788388Y-99137969D01*
X88788388Y-99137969D02*
X88931245Y-99185588D01*
X89264579Y-99137969D02*
X89502674Y-100137969D01*
X89502674Y-100137969D02*
X89693150Y-99423683D01*
X89693150Y-99423683D02*
X89883626Y-100137969D01*
X89883626Y-100137969D02*
X90121722Y-99137969D01*
X90455055Y-99233207D02*
X90502674Y-99185588D01*
X90502674Y-99185588D02*
X90597912Y-99137969D01*
X90597912Y-99137969D02*
X90836007Y-99137969D01*
X90836007Y-99137969D02*
X90931245Y-99185588D01*
X90931245Y-99185588D02*
X90978864Y-99233207D01*
X90978864Y-99233207D02*
X91026483Y-99328445D01*
X91026483Y-99328445D02*
X91026483Y-99423683D01*
X91026483Y-99423683D02*
X90978864Y-99566540D01*
X90978864Y-99566540D02*
X90407436Y-100137969D01*
X90407436Y-100137969D02*
X91026483Y-100137969D01*
X96872730Y-95599816D02*
X96920350Y-95647435D01*
X96920350Y-95647435D02*
X96967969Y-95790292D01*
X96967969Y-95790292D02*
X96967969Y-95885530D01*
X96967969Y-95885530D02*
X96920350Y-96028387D01*
X96920350Y-96028387D02*
X96825111Y-96123625D01*
X96825111Y-96123625D02*
X96729873Y-96171244D01*
X96729873Y-96171244D02*
X96539397Y-96218863D01*
X96539397Y-96218863D02*
X96396540Y-96218863D01*
X96396540Y-96218863D02*
X96206064Y-96171244D01*
X96206064Y-96171244D02*
X96110826Y-96123625D01*
X96110826Y-96123625D02*
X96015588Y-96028387D01*
X96015588Y-96028387D02*
X95967969Y-95885530D01*
X95967969Y-95885530D02*
X95967969Y-95790292D01*
X95967969Y-95790292D02*
X96015588Y-95647435D01*
X96015588Y-95647435D02*
X96063207Y-95599816D01*
X96967969Y-95123625D02*
X96967969Y-94933149D01*
X96967969Y-94933149D02*
X96920350Y-94837911D01*
X96920350Y-94837911D02*
X96872730Y-94790292D01*
X96872730Y-94790292D02*
X96729873Y-94695054D01*
X96729873Y-94695054D02*
X96539397Y-94647435D01*
X96539397Y-94647435D02*
X96158445Y-94647435D01*
X96158445Y-94647435D02*
X96063207Y-94695054D01*
X96063207Y-94695054D02*
X96015588Y-94742673D01*
X96015588Y-94742673D02*
X95967969Y-94837911D01*
X95967969Y-94837911D02*
X95967969Y-95028387D01*
X95967969Y-95028387D02*
X96015588Y-95123625D01*
X96015588Y-95123625D02*
X96063207Y-95171244D01*
X96063207Y-95171244D02*
X96158445Y-95218863D01*
X96158445Y-95218863D02*
X96396540Y-95218863D01*
X96396540Y-95218863D02*
X96491778Y-95171244D01*
X96491778Y-95171244D02*
X96539397Y-95123625D01*
X96539397Y-95123625D02*
X96587016Y-95028387D01*
X96587016Y-95028387D02*
X96587016Y-94837911D01*
X96587016Y-94837911D02*
X96539397Y-94742673D01*
X96539397Y-94742673D02*
X96491778Y-94695054D01*
X96491778Y-94695054D02*
X96396540Y-94647435D01*
X90797969Y-72599816D02*
X90321778Y-72933149D01*
X90797969Y-73171244D02*
X89797969Y-73171244D01*
X89797969Y-73171244D02*
X89797969Y-72790292D01*
X89797969Y-72790292D02*
X89845588Y-72695054D01*
X89845588Y-72695054D02*
X89893207Y-72647435D01*
X89893207Y-72647435D02*
X89988445Y-72599816D01*
X89988445Y-72599816D02*
X90131302Y-72599816D01*
X90131302Y-72599816D02*
X90226540Y-72647435D01*
X90226540Y-72647435D02*
X90274159Y-72695054D01*
X90274159Y-72695054D02*
X90321778Y-72790292D01*
X90321778Y-72790292D02*
X90321778Y-73171244D01*
X89797969Y-71695054D02*
X89797969Y-72171244D01*
X89797969Y-72171244D02*
X90274159Y-72218863D01*
X90274159Y-72218863D02*
X90226540Y-72171244D01*
X90226540Y-72171244D02*
X90178921Y-72076006D01*
X90178921Y-72076006D02*
X90178921Y-71837911D01*
X90178921Y-71837911D02*
X90226540Y-71742673D01*
X90226540Y-71742673D02*
X90274159Y-71695054D01*
X90274159Y-71695054D02*
X90369397Y-71647435D01*
X90369397Y-71647435D02*
X90607492Y-71647435D01*
X90607492Y-71647435D02*
X90702730Y-71695054D01*
X90702730Y-71695054D02*
X90750350Y-71742673D01*
X90750350Y-71742673D02*
X90797969Y-71837911D01*
X90797969Y-71837911D02*
X90797969Y-72076006D01*
X90797969Y-72076006D02*
X90750350Y-72171244D01*
X90750350Y-72171244D02*
X90702730Y-72218863D01*
X94297969Y-83687316D02*
X93821778Y-84020649D01*
X94297969Y-84258744D02*
X93297969Y-84258744D01*
X93297969Y-84258744D02*
X93297969Y-83877792D01*
X93297969Y-83877792D02*
X93345588Y-83782554D01*
X93345588Y-83782554D02*
X93393207Y-83734935D01*
X93393207Y-83734935D02*
X93488445Y-83687316D01*
X93488445Y-83687316D02*
X93631302Y-83687316D01*
X93631302Y-83687316D02*
X93726540Y-83734935D01*
X93726540Y-83734935D02*
X93774159Y-83782554D01*
X93774159Y-83782554D02*
X93821778Y-83877792D01*
X93821778Y-83877792D02*
X93821778Y-84258744D01*
X94297969Y-83211125D02*
X94297969Y-83020649D01*
X94297969Y-83020649D02*
X94250350Y-82925411D01*
X94250350Y-82925411D02*
X94202730Y-82877792D01*
X94202730Y-82877792D02*
X94059873Y-82782554D01*
X94059873Y-82782554D02*
X93869397Y-82734935D01*
X93869397Y-82734935D02*
X93488445Y-82734935D01*
X93488445Y-82734935D02*
X93393207Y-82782554D01*
X93393207Y-82782554D02*
X93345588Y-82830173D01*
X93345588Y-82830173D02*
X93297969Y-82925411D01*
X93297969Y-82925411D02*
X93297969Y-83115887D01*
X93297969Y-83115887D02*
X93345588Y-83211125D01*
X93345588Y-83211125D02*
X93393207Y-83258744D01*
X93393207Y-83258744D02*
X93488445Y-83306363D01*
X93488445Y-83306363D02*
X93726540Y-83306363D01*
X93726540Y-83306363D02*
X93821778Y-83258744D01*
X93821778Y-83258744D02*
X93869397Y-83211125D01*
X93869397Y-83211125D02*
X93917016Y-83115887D01*
X93917016Y-83115887D02*
X93917016Y-82925411D01*
X93917016Y-82925411D02*
X93869397Y-82830173D01*
X93869397Y-82830173D02*
X93821778Y-82782554D01*
X93821778Y-82782554D02*
X93726540Y-82734935D01*
X93732730Y-97549816D02*
X93780350Y-97597435D01*
X93780350Y-97597435D02*
X93827969Y-97740292D01*
X93827969Y-97740292D02*
X93827969Y-97835530D01*
X93827969Y-97835530D02*
X93780350Y-97978387D01*
X93780350Y-97978387D02*
X93685111Y-98073625D01*
X93685111Y-98073625D02*
X93589873Y-98121244D01*
X93589873Y-98121244D02*
X93399397Y-98168863D01*
X93399397Y-98168863D02*
X93256540Y-98168863D01*
X93256540Y-98168863D02*
X93066064Y-98121244D01*
X93066064Y-98121244D02*
X92970826Y-98073625D01*
X92970826Y-98073625D02*
X92875588Y-97978387D01*
X92875588Y-97978387D02*
X92827969Y-97835530D01*
X92827969Y-97835530D02*
X92827969Y-97740292D01*
X92827969Y-97740292D02*
X92875588Y-97597435D01*
X92875588Y-97597435D02*
X92923207Y-97549816D01*
X93256540Y-96978387D02*
X93208921Y-97073625D01*
X93208921Y-97073625D02*
X93161302Y-97121244D01*
X93161302Y-97121244D02*
X93066064Y-97168863D01*
X93066064Y-97168863D02*
X93018445Y-97168863D01*
X93018445Y-97168863D02*
X92923207Y-97121244D01*
X92923207Y-97121244D02*
X92875588Y-97073625D01*
X92875588Y-97073625D02*
X92827969Y-96978387D01*
X92827969Y-96978387D02*
X92827969Y-96787911D01*
X92827969Y-96787911D02*
X92875588Y-96692673D01*
X92875588Y-96692673D02*
X92923207Y-96645054D01*
X92923207Y-96645054D02*
X93018445Y-96597435D01*
X93018445Y-96597435D02*
X93066064Y-96597435D01*
X93066064Y-96597435D02*
X93161302Y-96645054D01*
X93161302Y-96645054D02*
X93208921Y-96692673D01*
X93208921Y-96692673D02*
X93256540Y-96787911D01*
X93256540Y-96787911D02*
X93256540Y-96978387D01*
X93256540Y-96978387D02*
X93304159Y-97073625D01*
X93304159Y-97073625D02*
X93351778Y-97121244D01*
X93351778Y-97121244D02*
X93447016Y-97168863D01*
X93447016Y-97168863D02*
X93637492Y-97168863D01*
X93637492Y-97168863D02*
X93732730Y-97121244D01*
X93732730Y-97121244D02*
X93780350Y-97073625D01*
X93780350Y-97073625D02*
X93827969Y-96978387D01*
X93827969Y-96978387D02*
X93827969Y-96787911D01*
X93827969Y-96787911D02*
X93780350Y-96692673D01*
X93780350Y-96692673D02*
X93732730Y-96645054D01*
X93732730Y-96645054D02*
X93637492Y-96597435D01*
X93637492Y-96597435D02*
X93447016Y-96597435D01*
X93447016Y-96597435D02*
X93351778Y-96645054D01*
X93351778Y-96645054D02*
X93304159Y-96692673D01*
X93304159Y-96692673D02*
X93256540Y-96787911D01*
X93497969Y-97663507D02*
X93021778Y-97996840D01*
X93497969Y-98234935D02*
X92497969Y-98234935D01*
X92497969Y-98234935D02*
X92497969Y-97853983D01*
X92497969Y-97853983D02*
X92545588Y-97758745D01*
X92545588Y-97758745D02*
X92593207Y-97711126D01*
X92593207Y-97711126D02*
X92688445Y-97663507D01*
X92688445Y-97663507D02*
X92831302Y-97663507D01*
X92831302Y-97663507D02*
X92926540Y-97711126D01*
X92926540Y-97711126D02*
X92974159Y-97758745D01*
X92974159Y-97758745D02*
X93021778Y-97853983D01*
X93021778Y-97853983D02*
X93021778Y-98234935D01*
X93497969Y-96711126D02*
X93497969Y-97282554D01*
X93497969Y-96996840D02*
X92497969Y-96996840D01*
X92497969Y-96996840D02*
X92640826Y-97092078D01*
X92640826Y-97092078D02*
X92736064Y-97187316D01*
X92736064Y-97187316D02*
X92783683Y-97282554D01*
X92497969Y-96092078D02*
X92497969Y-95996840D01*
X92497969Y-95996840D02*
X92545588Y-95901602D01*
X92545588Y-95901602D02*
X92593207Y-95853983D01*
X92593207Y-95853983D02*
X92688445Y-95806364D01*
X92688445Y-95806364D02*
X92878921Y-95758745D01*
X92878921Y-95758745D02*
X93117016Y-95758745D01*
X93117016Y-95758745D02*
X93307492Y-95806364D01*
X93307492Y-95806364D02*
X93402730Y-95853983D01*
X93402730Y-95853983D02*
X93450350Y-95901602D01*
X93450350Y-95901602D02*
X93497969Y-95996840D01*
X93497969Y-95996840D02*
X93497969Y-96092078D01*
X93497969Y-96092078D02*
X93450350Y-96187316D01*
X93450350Y-96187316D02*
X93402730Y-96234935D01*
X93402730Y-96234935D02*
X93307492Y-96282554D01*
X93307492Y-96282554D02*
X93117016Y-96330173D01*
X93117016Y-96330173D02*
X92878921Y-96330173D01*
X92878921Y-96330173D02*
X92688445Y-96282554D01*
X92688445Y-96282554D02*
X92593207Y-96234935D01*
X92593207Y-96234935D02*
X92545588Y-96187316D01*
X92545588Y-96187316D02*
X92497969Y-96092078D01*
X99232730Y-100099816D02*
X99280350Y-100147435D01*
X99280350Y-100147435D02*
X99327969Y-100290292D01*
X99327969Y-100290292D02*
X99327969Y-100385530D01*
X99327969Y-100385530D02*
X99280350Y-100528387D01*
X99280350Y-100528387D02*
X99185111Y-100623625D01*
X99185111Y-100623625D02*
X99089873Y-100671244D01*
X99089873Y-100671244D02*
X98899397Y-100718863D01*
X98899397Y-100718863D02*
X98756540Y-100718863D01*
X98756540Y-100718863D02*
X98566064Y-100671244D01*
X98566064Y-100671244D02*
X98470826Y-100623625D01*
X98470826Y-100623625D02*
X98375588Y-100528387D01*
X98375588Y-100528387D02*
X98327969Y-100385530D01*
X98327969Y-100385530D02*
X98327969Y-100290292D01*
X98327969Y-100290292D02*
X98375588Y-100147435D01*
X98375588Y-100147435D02*
X98423207Y-100099816D01*
X98327969Y-99766482D02*
X98327969Y-99099816D01*
X98327969Y-99099816D02*
X99327969Y-99528387D01*
X139359817Y-95090350D02*
X139502674Y-95137969D01*
X139502674Y-95137969D02*
X139740769Y-95137969D01*
X139740769Y-95137969D02*
X139836007Y-95090350D01*
X139836007Y-95090350D02*
X139883626Y-95042730D01*
X139883626Y-95042730D02*
X139931245Y-94947492D01*
X139931245Y-94947492D02*
X139931245Y-94852254D01*
X139931245Y-94852254D02*
X139883626Y-94757016D01*
X139883626Y-94757016D02*
X139836007Y-94709397D01*
X139836007Y-94709397D02*
X139740769Y-94661778D01*
X139740769Y-94661778D02*
X139550293Y-94614159D01*
X139550293Y-94614159D02*
X139455055Y-94566540D01*
X139455055Y-94566540D02*
X139407436Y-94518921D01*
X139407436Y-94518921D02*
X139359817Y-94423683D01*
X139359817Y-94423683D02*
X139359817Y-94328445D01*
X139359817Y-94328445D02*
X139407436Y-94233207D01*
X139407436Y-94233207D02*
X139455055Y-94185588D01*
X139455055Y-94185588D02*
X139550293Y-94137969D01*
X139550293Y-94137969D02*
X139788388Y-94137969D01*
X139788388Y-94137969D02*
X139931245Y-94185588D01*
X140264579Y-94137969D02*
X140502674Y-95137969D01*
X140502674Y-95137969D02*
X140693150Y-94423683D01*
X140693150Y-94423683D02*
X140883626Y-95137969D01*
X140883626Y-95137969D02*
X141121722Y-94137969D01*
X142026483Y-95137969D02*
X141455055Y-95137969D01*
X141740769Y-95137969D02*
X141740769Y-94137969D01*
X141740769Y-94137969D02*
X141645531Y-94280826D01*
X141645531Y-94280826D02*
X141550293Y-94376064D01*
X141550293Y-94376064D02*
X141455055Y-94423683D01*
X93812197Y-109164159D02*
X93955054Y-109211778D01*
X93955054Y-109211778D02*
X94002673Y-109259397D01*
X94002673Y-109259397D02*
X94050292Y-109354635D01*
X94050292Y-109354635D02*
X94050292Y-109497492D01*
X94050292Y-109497492D02*
X94002673Y-109592730D01*
X94002673Y-109592730D02*
X93955054Y-109640350D01*
X93955054Y-109640350D02*
X93859816Y-109687969D01*
X93859816Y-109687969D02*
X93478864Y-109687969D01*
X93478864Y-109687969D02*
X93478864Y-108687969D01*
X93478864Y-108687969D02*
X93812197Y-108687969D01*
X93812197Y-108687969D02*
X93907435Y-108735588D01*
X93907435Y-108735588D02*
X93955054Y-108783207D01*
X93955054Y-108783207D02*
X94002673Y-108878445D01*
X94002673Y-108878445D02*
X94002673Y-108973683D01*
X94002673Y-108973683D02*
X93955054Y-109068921D01*
X93955054Y-109068921D02*
X93907435Y-109116540D01*
X93907435Y-109116540D02*
X93812197Y-109164159D01*
X93812197Y-109164159D02*
X93478864Y-109164159D01*
X94383626Y-108687969D02*
X95050292Y-108687969D01*
X95050292Y-108687969D02*
X94383626Y-109687969D01*
X94383626Y-109687969D02*
X95050292Y-109687969D01*
X95955054Y-109687969D02*
X95383626Y-109687969D01*
X95669340Y-109687969D02*
X95669340Y-108687969D01*
X95669340Y-108687969D02*
X95574102Y-108830826D01*
X95574102Y-108830826D02*
X95478864Y-108926064D01*
X95478864Y-108926064D02*
X95383626Y-108973683D01*
X90502198Y-113967016D02*
X91264103Y-113967016D01*
X90883150Y-114347969D02*
X90883150Y-113586064D01*
X135526483Y-113237969D02*
X135193150Y-112761778D01*
X134955055Y-113237969D02*
X134955055Y-112237969D01*
X134955055Y-112237969D02*
X135336007Y-112237969D01*
X135336007Y-112237969D02*
X135431245Y-112285588D01*
X135431245Y-112285588D02*
X135478864Y-112333207D01*
X135478864Y-112333207D02*
X135526483Y-112428445D01*
X135526483Y-112428445D02*
X135526483Y-112571302D01*
X135526483Y-112571302D02*
X135478864Y-112666540D01*
X135478864Y-112666540D02*
X135431245Y-112714159D01*
X135431245Y-112714159D02*
X135336007Y-112761778D01*
X135336007Y-112761778D02*
X134955055Y-112761778D01*
X135859817Y-112237969D02*
X136478864Y-112237969D01*
X136478864Y-112237969D02*
X136145531Y-112618921D01*
X136145531Y-112618921D02*
X136288388Y-112618921D01*
X136288388Y-112618921D02*
X136383626Y-112666540D01*
X136383626Y-112666540D02*
X136431245Y-112714159D01*
X136431245Y-112714159D02*
X136478864Y-112809397D01*
X136478864Y-112809397D02*
X136478864Y-113047492D01*
X136478864Y-113047492D02*
X136431245Y-113142730D01*
X136431245Y-113142730D02*
X136383626Y-113190350D01*
X136383626Y-113190350D02*
X136288388Y-113237969D01*
X136288388Y-113237969D02*
X136002674Y-113237969D01*
X136002674Y-113237969D02*
X135907436Y-113190350D01*
X135907436Y-113190350D02*
X135859817Y-113142730D01*
X134355055Y-96057969D02*
X134355055Y-95057969D01*
X134355055Y-95057969D02*
X134593150Y-95057969D01*
X134593150Y-95057969D02*
X134736007Y-95105588D01*
X134736007Y-95105588D02*
X134831245Y-95200826D01*
X134831245Y-95200826D02*
X134878864Y-95296064D01*
X134878864Y-95296064D02*
X134926483Y-95486540D01*
X134926483Y-95486540D02*
X134926483Y-95629397D01*
X134926483Y-95629397D02*
X134878864Y-95819873D01*
X134878864Y-95819873D02*
X134831245Y-95915111D01*
X134831245Y-95915111D02*
X134736007Y-96010350D01*
X134736007Y-96010350D02*
X134593150Y-96057969D01*
X134593150Y-96057969D02*
X134355055Y-96057969D01*
X135878864Y-96057969D02*
X135307436Y-96057969D01*
X135593150Y-96057969D02*
X135593150Y-95057969D01*
X135593150Y-95057969D02*
X135497912Y-95200826D01*
X135497912Y-95200826D02*
X135402674Y-95296064D01*
X135402674Y-95296064D02*
X135307436Y-95343683D01*
X130997969Y-91599816D02*
X130521778Y-91933149D01*
X130997969Y-92171244D02*
X129997969Y-92171244D01*
X129997969Y-92171244D02*
X129997969Y-91790292D01*
X129997969Y-91790292D02*
X130045588Y-91695054D01*
X130045588Y-91695054D02*
X130093207Y-91647435D01*
X130093207Y-91647435D02*
X130188445Y-91599816D01*
X130188445Y-91599816D02*
X130331302Y-91599816D01*
X130331302Y-91599816D02*
X130426540Y-91647435D01*
X130426540Y-91647435D02*
X130474159Y-91695054D01*
X130474159Y-91695054D02*
X130521778Y-91790292D01*
X130521778Y-91790292D02*
X130521778Y-92171244D01*
X129997969Y-91266482D02*
X129997969Y-90599816D01*
X129997969Y-90599816D02*
X130997969Y-91028387D01*
X87497969Y-97512316D02*
X87021778Y-97845649D01*
X87497969Y-98083744D02*
X86497969Y-98083744D01*
X86497969Y-98083744D02*
X86497969Y-97702792D01*
X86497969Y-97702792D02*
X86545588Y-97607554D01*
X86545588Y-97607554D02*
X86593207Y-97559935D01*
X86593207Y-97559935D02*
X86688445Y-97512316D01*
X86688445Y-97512316D02*
X86831302Y-97512316D01*
X86831302Y-97512316D02*
X86926540Y-97559935D01*
X86926540Y-97559935D02*
X86974159Y-97607554D01*
X86974159Y-97607554D02*
X87021778Y-97702792D01*
X87021778Y-97702792D02*
X87021778Y-98083744D01*
X86926540Y-96940887D02*
X86878921Y-97036125D01*
X86878921Y-97036125D02*
X86831302Y-97083744D01*
X86831302Y-97083744D02*
X86736064Y-97131363D01*
X86736064Y-97131363D02*
X86688445Y-97131363D01*
X86688445Y-97131363D02*
X86593207Y-97083744D01*
X86593207Y-97083744D02*
X86545588Y-97036125D01*
X86545588Y-97036125D02*
X86497969Y-96940887D01*
X86497969Y-96940887D02*
X86497969Y-96750411D01*
X86497969Y-96750411D02*
X86545588Y-96655173D01*
X86545588Y-96655173D02*
X86593207Y-96607554D01*
X86593207Y-96607554D02*
X86688445Y-96559935D01*
X86688445Y-96559935D02*
X86736064Y-96559935D01*
X86736064Y-96559935D02*
X86831302Y-96607554D01*
X86831302Y-96607554D02*
X86878921Y-96655173D01*
X86878921Y-96655173D02*
X86926540Y-96750411D01*
X86926540Y-96750411D02*
X86926540Y-96940887D01*
X86926540Y-96940887D02*
X86974159Y-97036125D01*
X86974159Y-97036125D02*
X87021778Y-97083744D01*
X87021778Y-97083744D02*
X87117016Y-97131363D01*
X87117016Y-97131363D02*
X87307492Y-97131363D01*
X87307492Y-97131363D02*
X87402730Y-97083744D01*
X87402730Y-97083744D02*
X87450350Y-97036125D01*
X87450350Y-97036125D02*
X87497969Y-96940887D01*
X87497969Y-96940887D02*
X87497969Y-96750411D01*
X87497969Y-96750411D02*
X87450350Y-96655173D01*
X87450350Y-96655173D02*
X87402730Y-96607554D01*
X87402730Y-96607554D02*
X87307492Y-96559935D01*
X87307492Y-96559935D02*
X87117016Y-96559935D01*
X87117016Y-96559935D02*
X87021778Y-96607554D01*
X87021778Y-96607554D02*
X86974159Y-96655173D01*
X86974159Y-96655173D02*
X86926540Y-96750411D01*
X96526483Y-106972730D02*
X96478864Y-107020350D01*
X96478864Y-107020350D02*
X96336007Y-107067969D01*
X96336007Y-107067969D02*
X96240769Y-107067969D01*
X96240769Y-107067969D02*
X96097912Y-107020350D01*
X96097912Y-107020350D02*
X96002674Y-106925111D01*
X96002674Y-106925111D02*
X95955055Y-106829873D01*
X95955055Y-106829873D02*
X95907436Y-106639397D01*
X95907436Y-106639397D02*
X95907436Y-106496540D01*
X95907436Y-106496540D02*
X95955055Y-106306064D01*
X95955055Y-106306064D02*
X96002674Y-106210826D01*
X96002674Y-106210826D02*
X96097912Y-106115588D01*
X96097912Y-106115588D02*
X96240769Y-106067969D01*
X96240769Y-106067969D02*
X96336007Y-106067969D01*
X96336007Y-106067969D02*
X96478864Y-106115588D01*
X96478864Y-106115588D02*
X96526483Y-106163207D01*
X97383626Y-106067969D02*
X97193150Y-106067969D01*
X97193150Y-106067969D02*
X97097912Y-106115588D01*
X97097912Y-106115588D02*
X97050293Y-106163207D01*
X97050293Y-106163207D02*
X96955055Y-106306064D01*
X96955055Y-106306064D02*
X96907436Y-106496540D01*
X96907436Y-106496540D02*
X96907436Y-106877492D01*
X96907436Y-106877492D02*
X96955055Y-106972730D01*
X96955055Y-106972730D02*
X97002674Y-107020350D01*
X97002674Y-107020350D02*
X97097912Y-107067969D01*
X97097912Y-107067969D02*
X97288388Y-107067969D01*
X97288388Y-107067969D02*
X97383626Y-107020350D01*
X97383626Y-107020350D02*
X97431245Y-106972730D01*
X97431245Y-106972730D02*
X97478864Y-106877492D01*
X97478864Y-106877492D02*
X97478864Y-106639397D01*
X97478864Y-106639397D02*
X97431245Y-106544159D01*
X97431245Y-106544159D02*
X97383626Y-106496540D01*
X97383626Y-106496540D02*
X97288388Y-106448921D01*
X97288388Y-106448921D02*
X97097912Y-106448921D01*
X97097912Y-106448921D02*
X97002674Y-106496540D01*
X97002674Y-106496540D02*
X96955055Y-106544159D01*
X96955055Y-106544159D02*
X96907436Y-106639397D01*
X139526483Y-79222969D02*
X139193150Y-78746778D01*
X138955055Y-79222969D02*
X138955055Y-78222969D01*
X138955055Y-78222969D02*
X139336007Y-78222969D01*
X139336007Y-78222969D02*
X139431245Y-78270588D01*
X139431245Y-78270588D02*
X139478864Y-78318207D01*
X139478864Y-78318207D02*
X139526483Y-78413445D01*
X139526483Y-78413445D02*
X139526483Y-78556302D01*
X139526483Y-78556302D02*
X139478864Y-78651540D01*
X139478864Y-78651540D02*
X139431245Y-78699159D01*
X139431245Y-78699159D02*
X139336007Y-78746778D01*
X139336007Y-78746778D02*
X138955055Y-78746778D01*
X139907436Y-78318207D02*
X139955055Y-78270588D01*
X139955055Y-78270588D02*
X140050293Y-78222969D01*
X140050293Y-78222969D02*
X140288388Y-78222969D01*
X140288388Y-78222969D02*
X140383626Y-78270588D01*
X140383626Y-78270588D02*
X140431245Y-78318207D01*
X140431245Y-78318207D02*
X140478864Y-78413445D01*
X140478864Y-78413445D02*
X140478864Y-78508683D01*
X140478864Y-78508683D02*
X140431245Y-78651540D01*
X140431245Y-78651540D02*
X139859817Y-79222969D01*
X139859817Y-79222969D02*
X140478864Y-79222969D01*
X115231245Y-97287969D02*
X115231245Y-98097492D01*
X115231245Y-98097492D02*
X115278864Y-98192730D01*
X115278864Y-98192730D02*
X115326483Y-98240350D01*
X115326483Y-98240350D02*
X115421721Y-98287969D01*
X115421721Y-98287969D02*
X115612197Y-98287969D01*
X115612197Y-98287969D02*
X115707435Y-98240350D01*
X115707435Y-98240350D02*
X115755054Y-98192730D01*
X115755054Y-98192730D02*
X115802673Y-98097492D01*
X115802673Y-98097492D02*
X115802673Y-97287969D01*
X116802673Y-98287969D02*
X116231245Y-98287969D01*
X116516959Y-98287969D02*
X116516959Y-97287969D01*
X116516959Y-97287969D02*
X116421721Y-97430826D01*
X116421721Y-97430826D02*
X116326483Y-97526064D01*
X116326483Y-97526064D02*
X116231245Y-97573683D01*
X89647969Y-73005054D02*
X90457492Y-73005054D01*
X90457492Y-73005054D02*
X90552730Y-72957435D01*
X90552730Y-72957435D02*
X90600350Y-72909816D01*
X90600350Y-72909816D02*
X90647969Y-72814578D01*
X90647969Y-72814578D02*
X90647969Y-72624102D01*
X90647969Y-72624102D02*
X90600350Y-72528864D01*
X90600350Y-72528864D02*
X90552730Y-72481245D01*
X90552730Y-72481245D02*
X90457492Y-72433626D01*
X90457492Y-72433626D02*
X89647969Y-72433626D01*
X89743207Y-72005054D02*
X89695588Y-71957435D01*
X89695588Y-71957435D02*
X89647969Y-71862197D01*
X89647969Y-71862197D02*
X89647969Y-71624102D01*
X89647969Y-71624102D02*
X89695588Y-71528864D01*
X89695588Y-71528864D02*
X89743207Y-71481245D01*
X89743207Y-71481245D02*
X89838445Y-71433626D01*
X89838445Y-71433626D02*
X89933683Y-71433626D01*
X89933683Y-71433626D02*
X90076540Y-71481245D01*
X90076540Y-71481245D02*
X90647969Y-72052673D01*
X90647969Y-72052673D02*
X90647969Y-71433626D01*
X97872730Y-89649816D02*
X97920350Y-89697435D01*
X97920350Y-89697435D02*
X97967969Y-89840292D01*
X97967969Y-89840292D02*
X97967969Y-89935530D01*
X97967969Y-89935530D02*
X97920350Y-90078387D01*
X97920350Y-90078387D02*
X97825111Y-90173625D01*
X97825111Y-90173625D02*
X97729873Y-90221244D01*
X97729873Y-90221244D02*
X97539397Y-90268863D01*
X97539397Y-90268863D02*
X97396540Y-90268863D01*
X97396540Y-90268863D02*
X97206064Y-90221244D01*
X97206064Y-90221244D02*
X97110826Y-90173625D01*
X97110826Y-90173625D02*
X97015588Y-90078387D01*
X97015588Y-90078387D02*
X96967969Y-89935530D01*
X96967969Y-89935530D02*
X96967969Y-89840292D01*
X96967969Y-89840292D02*
X97015588Y-89697435D01*
X97015588Y-89697435D02*
X97063207Y-89649816D01*
X96967969Y-89316482D02*
X96967969Y-88697435D01*
X96967969Y-88697435D02*
X97348921Y-89030768D01*
X97348921Y-89030768D02*
X97348921Y-88887911D01*
X97348921Y-88887911D02*
X97396540Y-88792673D01*
X97396540Y-88792673D02*
X97444159Y-88745054D01*
X97444159Y-88745054D02*
X97539397Y-88697435D01*
X97539397Y-88697435D02*
X97777492Y-88697435D01*
X97777492Y-88697435D02*
X97872730Y-88745054D01*
X97872730Y-88745054D02*
X97920350Y-88792673D01*
X97920350Y-88792673D02*
X97967969Y-88887911D01*
X97967969Y-88887911D02*
X97967969Y-89173625D01*
X97967969Y-89173625D02*
X97920350Y-89268863D01*
X97920350Y-89268863D02*
X97872730Y-89316482D01*
X93232730Y-90649816D02*
X93280350Y-90697435D01*
X93280350Y-90697435D02*
X93327969Y-90840292D01*
X93327969Y-90840292D02*
X93327969Y-90935530D01*
X93327969Y-90935530D02*
X93280350Y-91078387D01*
X93280350Y-91078387D02*
X93185111Y-91173625D01*
X93185111Y-91173625D02*
X93089873Y-91221244D01*
X93089873Y-91221244D02*
X92899397Y-91268863D01*
X92899397Y-91268863D02*
X92756540Y-91268863D01*
X92756540Y-91268863D02*
X92566064Y-91221244D01*
X92566064Y-91221244D02*
X92470826Y-91173625D01*
X92470826Y-91173625D02*
X92375588Y-91078387D01*
X92375588Y-91078387D02*
X92327969Y-90935530D01*
X92327969Y-90935530D02*
X92327969Y-90840292D01*
X92327969Y-90840292D02*
X92375588Y-90697435D01*
X92375588Y-90697435D02*
X92423207Y-90649816D01*
X92661302Y-89792673D02*
X93327969Y-89792673D01*
X92280350Y-90030768D02*
X92994635Y-90268863D01*
X92994635Y-90268863D02*
X92994635Y-89649816D01*
X131697969Y-107195054D02*
X132507492Y-107195054D01*
X132507492Y-107195054D02*
X132602730Y-107147435D01*
X132602730Y-107147435D02*
X132650350Y-107099816D01*
X132650350Y-107099816D02*
X132697969Y-107004578D01*
X132697969Y-107004578D02*
X132697969Y-106814102D01*
X132697969Y-106814102D02*
X132650350Y-106718864D01*
X132650350Y-106718864D02*
X132602730Y-106671245D01*
X132602730Y-106671245D02*
X132507492Y-106623626D01*
X132507492Y-106623626D02*
X131697969Y-106623626D01*
X131697969Y-105671245D02*
X131697969Y-106147435D01*
X131697969Y-106147435D02*
X132174159Y-106195054D01*
X132174159Y-106195054D02*
X132126540Y-106147435D01*
X132126540Y-106147435D02*
X132078921Y-106052197D01*
X132078921Y-106052197D02*
X132078921Y-105814102D01*
X132078921Y-105814102D02*
X132126540Y-105718864D01*
X132126540Y-105718864D02*
X132174159Y-105671245D01*
X132174159Y-105671245D02*
X132269397Y-105623626D01*
X132269397Y-105623626D02*
X132507492Y-105623626D01*
X132507492Y-105623626D02*
X132602730Y-105671245D01*
X132602730Y-105671245D02*
X132650350Y-105718864D01*
X132650350Y-105718864D02*
X132697969Y-105814102D01*
X132697969Y-105814102D02*
X132697969Y-106052197D01*
X132697969Y-106052197D02*
X132650350Y-106147435D01*
X132650350Y-106147435D02*
X132602730Y-106195054D01*
X114613983Y-117737969D02*
X114280650Y-117261778D01*
X114042555Y-117737969D02*
X114042555Y-116737969D01*
X114042555Y-116737969D02*
X114423507Y-116737969D01*
X114423507Y-116737969D02*
X114518745Y-116785588D01*
X114518745Y-116785588D02*
X114566364Y-116833207D01*
X114566364Y-116833207D02*
X114613983Y-116928445D01*
X114613983Y-116928445D02*
X114613983Y-117071302D01*
X114613983Y-117071302D02*
X114566364Y-117166540D01*
X114566364Y-117166540D02*
X114518745Y-117214159D01*
X114518745Y-117214159D02*
X114423507Y-117261778D01*
X114423507Y-117261778D02*
X114042555Y-117261778D01*
X115471126Y-116737969D02*
X115280650Y-116737969D01*
X115280650Y-116737969D02*
X115185412Y-116785588D01*
X115185412Y-116785588D02*
X115137793Y-116833207D01*
X115137793Y-116833207D02*
X115042555Y-116976064D01*
X115042555Y-116976064D02*
X114994936Y-117166540D01*
X114994936Y-117166540D02*
X114994936Y-117547492D01*
X114994936Y-117547492D02*
X115042555Y-117642730D01*
X115042555Y-117642730D02*
X115090174Y-117690350D01*
X115090174Y-117690350D02*
X115185412Y-117737969D01*
X115185412Y-117737969D02*
X115375888Y-117737969D01*
X115375888Y-117737969D02*
X115471126Y-117690350D01*
X115471126Y-117690350D02*
X115518745Y-117642730D01*
X115518745Y-117642730D02*
X115566364Y-117547492D01*
X115566364Y-117547492D02*
X115566364Y-117309397D01*
X115566364Y-117309397D02*
X115518745Y-117214159D01*
X115518745Y-117214159D02*
X115471126Y-117166540D01*
X115471126Y-117166540D02*
X115375888Y-117118921D01*
X115375888Y-117118921D02*
X115185412Y-117118921D01*
X115185412Y-117118921D02*
X115090174Y-117166540D01*
X115090174Y-117166540D02*
X115042555Y-117214159D01*
X115042555Y-117214159D02*
X114994936Y-117309397D01*
X94859816Y-86967969D02*
X94859816Y-87682254D01*
X94859816Y-87682254D02*
X94812197Y-87825111D01*
X94812197Y-87825111D02*
X94716959Y-87920350D01*
X94716959Y-87920350D02*
X94574102Y-87967969D01*
X94574102Y-87967969D02*
X94478864Y-87967969D01*
X95859816Y-87967969D02*
X95288388Y-87967969D01*
X95574102Y-87967969D02*
X95574102Y-86967969D01*
X95574102Y-86967969D02*
X95478864Y-87110826D01*
X95478864Y-87110826D02*
X95383626Y-87206064D01*
X95383626Y-87206064D02*
X95288388Y-87253683D01*
X134026483Y-116237969D02*
X133693150Y-115761778D01*
X133455055Y-116237969D02*
X133455055Y-115237969D01*
X133455055Y-115237969D02*
X133836007Y-115237969D01*
X133836007Y-115237969D02*
X133931245Y-115285588D01*
X133931245Y-115285588D02*
X133978864Y-115333207D01*
X133978864Y-115333207D02*
X134026483Y-115428445D01*
X134026483Y-115428445D02*
X134026483Y-115571302D01*
X134026483Y-115571302D02*
X133978864Y-115666540D01*
X133978864Y-115666540D02*
X133931245Y-115714159D01*
X133931245Y-115714159D02*
X133836007Y-115761778D01*
X133836007Y-115761778D02*
X133455055Y-115761778D01*
X134978864Y-116237969D02*
X134407436Y-116237969D01*
X134693150Y-116237969D02*
X134693150Y-115237969D01*
X134693150Y-115237969D02*
X134597912Y-115380826D01*
X134597912Y-115380826D02*
X134502674Y-115476064D01*
X134502674Y-115476064D02*
X134407436Y-115523683D01*
X129469459Y-118471778D02*
X129469459Y-118947969D01*
X129136126Y-117947969D02*
X129469459Y-118471778D01*
X129469459Y-118471778D02*
X129802792Y-117947969D01*
X130659935Y-118947969D02*
X130088507Y-118947969D01*
X130374221Y-118947969D02*
X130374221Y-117947969D01*
X130374221Y-117947969D02*
X130278983Y-118090826D01*
X130278983Y-118090826D02*
X130183745Y-118186064D01*
X130183745Y-118186064D02*
X130088507Y-118233683D01*
X97359816Y-78987969D02*
X97359816Y-79702254D01*
X97359816Y-79702254D02*
X97312197Y-79845111D01*
X97312197Y-79845111D02*
X97216959Y-79940350D01*
X97216959Y-79940350D02*
X97074102Y-79987969D01*
X97074102Y-79987969D02*
X96978864Y-79987969D01*
X97788388Y-79083207D02*
X97836007Y-79035588D01*
X97836007Y-79035588D02*
X97931245Y-78987969D01*
X97931245Y-78987969D02*
X98169340Y-78987969D01*
X98169340Y-78987969D02*
X98264578Y-79035588D01*
X98264578Y-79035588D02*
X98312197Y-79083207D01*
X98312197Y-79083207D02*
X98359816Y-79178445D01*
X98359816Y-79178445D02*
X98359816Y-79273683D01*
X98359816Y-79273683D02*
X98312197Y-79416540D01*
X98312197Y-79416540D02*
X97740769Y-79987969D01*
X97740769Y-79987969D02*
X98359816Y-79987969D01*
X139431245Y-107182969D02*
X139431245Y-107992492D01*
X139431245Y-107992492D02*
X139478864Y-108087730D01*
X139478864Y-108087730D02*
X139526483Y-108135350D01*
X139526483Y-108135350D02*
X139621721Y-108182969D01*
X139621721Y-108182969D02*
X139812197Y-108182969D01*
X139812197Y-108182969D02*
X139907435Y-108135350D01*
X139907435Y-108135350D02*
X139955054Y-108087730D01*
X139955054Y-108087730D02*
X140002673Y-107992492D01*
X140002673Y-107992492D02*
X140002673Y-107182969D01*
X140907435Y-107516302D02*
X140907435Y-108182969D01*
X140669340Y-107135350D02*
X140431245Y-107849635D01*
X140431245Y-107849635D02*
X141050292Y-107849635D01*
X130997969Y-101099816D02*
X130521778Y-101433149D01*
X130997969Y-101671244D02*
X129997969Y-101671244D01*
X129997969Y-101671244D02*
X129997969Y-101290292D01*
X129997969Y-101290292D02*
X130045588Y-101195054D01*
X130045588Y-101195054D02*
X130093207Y-101147435D01*
X130093207Y-101147435D02*
X130188445Y-101099816D01*
X130188445Y-101099816D02*
X130331302Y-101099816D01*
X130331302Y-101099816D02*
X130426540Y-101147435D01*
X130426540Y-101147435D02*
X130474159Y-101195054D01*
X130474159Y-101195054D02*
X130521778Y-101290292D01*
X130521778Y-101290292D02*
X130521778Y-101671244D01*
X130331302Y-100242673D02*
X130997969Y-100242673D01*
X129950350Y-100480768D02*
X130664635Y-100718863D01*
X130664635Y-100718863D02*
X130664635Y-100099816D01*
X108827911Y-119923207D02*
X108732673Y-119875588D01*
X108732673Y-119875588D02*
X108637435Y-119780350D01*
X108637435Y-119780350D02*
X108494578Y-119637492D01*
X108494578Y-119637492D02*
X108399340Y-119589873D01*
X108399340Y-119589873D02*
X108304102Y-119589873D01*
X108351721Y-119827969D02*
X108256483Y-119780350D01*
X108256483Y-119780350D02*
X108161245Y-119685111D01*
X108161245Y-119685111D02*
X108113626Y-119494635D01*
X108113626Y-119494635D02*
X108113626Y-119161302D01*
X108113626Y-119161302D02*
X108161245Y-118970826D01*
X108161245Y-118970826D02*
X108256483Y-118875588D01*
X108256483Y-118875588D02*
X108351721Y-118827969D01*
X108351721Y-118827969D02*
X108542197Y-118827969D01*
X108542197Y-118827969D02*
X108637435Y-118875588D01*
X108637435Y-118875588D02*
X108732673Y-118970826D01*
X108732673Y-118970826D02*
X108780292Y-119161302D01*
X108780292Y-119161302D02*
X108780292Y-119494635D01*
X108780292Y-119494635D02*
X108732673Y-119685111D01*
X108732673Y-119685111D02*
X108637435Y-119780350D01*
X108637435Y-119780350D02*
X108542197Y-119827969D01*
X108542197Y-119827969D02*
X108351721Y-119827969D01*
X109732673Y-119827969D02*
X109161245Y-119827969D01*
X109446959Y-119827969D02*
X109446959Y-118827969D01*
X109446959Y-118827969D02*
X109351721Y-118970826D01*
X109351721Y-118970826D02*
X109256483Y-119066064D01*
X109256483Y-119066064D02*
X109161245Y-119113683D01*
X131372730Y-111099816D02*
X131420350Y-111147435D01*
X131420350Y-111147435D02*
X131467969Y-111290292D01*
X131467969Y-111290292D02*
X131467969Y-111385530D01*
X131467969Y-111385530D02*
X131420350Y-111528387D01*
X131420350Y-111528387D02*
X131325111Y-111623625D01*
X131325111Y-111623625D02*
X131229873Y-111671244D01*
X131229873Y-111671244D02*
X131039397Y-111718863D01*
X131039397Y-111718863D02*
X130896540Y-111718863D01*
X130896540Y-111718863D02*
X130706064Y-111671244D01*
X130706064Y-111671244D02*
X130610826Y-111623625D01*
X130610826Y-111623625D02*
X130515588Y-111528387D01*
X130515588Y-111528387D02*
X130467969Y-111385530D01*
X130467969Y-111385530D02*
X130467969Y-111290292D01*
X130467969Y-111290292D02*
X130515588Y-111147435D01*
X130515588Y-111147435D02*
X130563207Y-111099816D01*
X130467969Y-110195054D02*
X130467969Y-110671244D01*
X130467969Y-110671244D02*
X130944159Y-110718863D01*
X130944159Y-110718863D02*
X130896540Y-110671244D01*
X130896540Y-110671244D02*
X130848921Y-110576006D01*
X130848921Y-110576006D02*
X130848921Y-110337911D01*
X130848921Y-110337911D02*
X130896540Y-110242673D01*
X130896540Y-110242673D02*
X130944159Y-110195054D01*
X130944159Y-110195054D02*
X131039397Y-110147435D01*
X131039397Y-110147435D02*
X131277492Y-110147435D01*
X131277492Y-110147435D02*
X131372730Y-110195054D01*
X131372730Y-110195054D02*
X131420350Y-110242673D01*
X131420350Y-110242673D02*
X131467969Y-110337911D01*
X131467969Y-110337911D02*
X131467969Y-110576006D01*
X131467969Y-110576006D02*
X131420350Y-110671244D01*
X131420350Y-110671244D02*
X131372730Y-110718863D01*
X94526483Y-107112730D02*
X94478864Y-107160350D01*
X94478864Y-107160350D02*
X94336007Y-107207969D01*
X94336007Y-107207969D02*
X94240769Y-107207969D01*
X94240769Y-107207969D02*
X94097912Y-107160350D01*
X94097912Y-107160350D02*
X94002674Y-107065111D01*
X94002674Y-107065111D02*
X93955055Y-106969873D01*
X93955055Y-106969873D02*
X93907436Y-106779397D01*
X93907436Y-106779397D02*
X93907436Y-106636540D01*
X93907436Y-106636540D02*
X93955055Y-106446064D01*
X93955055Y-106446064D02*
X94002674Y-106350826D01*
X94002674Y-106350826D02*
X94097912Y-106255588D01*
X94097912Y-106255588D02*
X94240769Y-106207969D01*
X94240769Y-106207969D02*
X94336007Y-106207969D01*
X94336007Y-106207969D02*
X94478864Y-106255588D01*
X94478864Y-106255588D02*
X94526483Y-106303207D01*
X94907436Y-106303207D02*
X94955055Y-106255588D01*
X94955055Y-106255588D02*
X95050293Y-106207969D01*
X95050293Y-106207969D02*
X95288388Y-106207969D01*
X95288388Y-106207969D02*
X95383626Y-106255588D01*
X95383626Y-106255588D02*
X95431245Y-106303207D01*
X95431245Y-106303207D02*
X95478864Y-106398445D01*
X95478864Y-106398445D02*
X95478864Y-106493683D01*
X95478864Y-106493683D02*
X95431245Y-106636540D01*
X95431245Y-106636540D02*
X94859817Y-107207969D01*
X94859817Y-107207969D02*
X95478864Y-107207969D01*
%TO.C,C1*%
D11*
X134458150Y-100671898D02*
X134458150Y-101194402D01*
X135928150Y-100671898D02*
X135928150Y-101194402D01*
%TO.C,U3*%
D10*
X138613150Y-101913150D02*
X143773150Y-101913150D01*
X138613150Y-104953150D02*
X138613150Y-101913150D01*
X143773150Y-101913150D02*
X143773150Y-104953150D01*
X143773150Y-104953150D02*
X138613150Y-104953150D01*
D12*
X138673150Y-106113150D02*
G75*
G02*
X138373150Y-106113150I-150000J0D01*
G01*
X138373150Y-106113150D02*
G75*
G02*
X138673150Y-106113150I150000J0D01*
G01*
D13*
X138773150Y-106433150D02*
G75*
G02*
X138713150Y-106433150I-30000J0D01*
G01*
X138713150Y-106433150D02*
G75*
G02*
X138773150Y-106433150I30000J0D01*
G01*
D12*
X139443150Y-104203150D02*
G75*
G02*
X139123150Y-104203150I-160000J0D01*
G01*
X139123150Y-104203150D02*
G75*
G02*
X139443150Y-104203150I160000J0D01*
G01*
%TO.C,SW2*%
D11*
X86943150Y-102433150D02*
X86943150Y-104433150D01*
X87993150Y-101133150D02*
X88443150Y-100683150D01*
X87993150Y-105733150D02*
X88443150Y-106183150D01*
X88443150Y-100683150D02*
X90943150Y-100683150D01*
X88443150Y-106183150D02*
X90943150Y-106183150D01*
X91393150Y-101133150D02*
X90943150Y-100683150D01*
X91393150Y-105733150D02*
X90943150Y-106183150D01*
X92443150Y-102433150D02*
X92443150Y-104433150D01*
%TO.C,C9*%
X97458150Y-95694402D02*
X97458150Y-95171898D01*
X98928150Y-95694402D02*
X98928150Y-95171898D01*
%TO.C,R5*%
X87958150Y-72206086D02*
X87958150Y-72660214D01*
X89428150Y-72206086D02*
X89428150Y-72660214D01*
%TO.C,R9*%
X91458150Y-83293586D02*
X91458150Y-83747714D01*
X92928150Y-83293586D02*
X92928150Y-83747714D01*
%TO.C,C8*%
X90958150Y-97121898D02*
X90958150Y-97644402D01*
X92428150Y-97121898D02*
X92428150Y-97644402D01*
%TO.C,R10*%
X93958150Y-97247714D02*
X93958150Y-96793586D01*
X95428150Y-97247714D02*
X95428150Y-96793586D01*
%TO.C,C7*%
X96458150Y-99671898D02*
X96458150Y-100194402D01*
X97928150Y-99671898D02*
X97928150Y-100194402D01*
%TO.C,SW1*%
X137943150Y-91933150D02*
X137943150Y-89933150D01*
X138993150Y-88633150D02*
X139443150Y-88183150D01*
X138993150Y-93233150D02*
X139443150Y-93683150D01*
X141943150Y-88183150D02*
X139443150Y-88183150D01*
X141943150Y-93683150D02*
X139443150Y-93683150D01*
X142393150Y-88633150D02*
X141943150Y-88183150D01*
X142393150Y-93233150D02*
X141943150Y-93683150D01*
X143443150Y-91933150D02*
X143443150Y-89933150D01*
%TO.C,BZ1*%
X100793150Y-116433150D02*
G75*
G02*
X88593150Y-116433150I-6100000J0D01*
G01*
X88593150Y-116433150D02*
G75*
G02*
X100793150Y-116433150I6100000J0D01*
G01*
%TO.C,R3*%
X135466086Y-113698150D02*
X135920214Y-113698150D01*
X135466086Y-115168150D02*
X135920214Y-115168150D01*
%TO.C,D1*%
X132808150Y-96298150D02*
X132808150Y-98568150D01*
X132808150Y-98568150D02*
X136693150Y-98568150D01*
X136693150Y-96298150D02*
X132808150Y-96298150D01*
%TO.C,R7*%
X131458150Y-91660214D02*
X131458150Y-91206086D01*
X132928150Y-91660214D02*
X132928150Y-91206086D01*
%TO.C,R8*%
X87958150Y-97572714D02*
X87958150Y-97118586D01*
X89428150Y-97572714D02*
X89428150Y-97118586D01*
%TO.C,C6*%
X96954402Y-104198150D02*
X96431898Y-104198150D01*
X96954402Y-105668150D02*
X96431898Y-105668150D01*
%TO.C,R2*%
X134818150Y-79908150D02*
X144568150Y-79908150D01*
X134818150Y-84958150D02*
X134818150Y-79908150D01*
X144568150Y-79908150D02*
X144568150Y-84958150D01*
X144568150Y-84958150D02*
X134818150Y-84958150D01*
%TO.C,U1*%
X103693150Y-82286119D02*
X103693150Y-111586119D01*
X107793150Y-115733150D02*
X125243150Y-115733150D01*
X126243150Y-81136120D02*
X104843150Y-81136120D01*
X127393150Y-88083150D02*
X127393150Y-82286119D01*
X127393150Y-88083150D02*
X129393150Y-88683150D01*
X129393150Y-111480181D02*
X129393150Y-88683150D01*
X103693150Y-82286119D02*
G75*
G02*
X104843150Y-81136120I1150000J-1D01*
G01*
X107843150Y-115733150D02*
G75*
G02*
X103696150Y-111586119I0J4147000D01*
G01*
X126243150Y-81133150D02*
G75*
G02*
X127396120Y-82286120I0J-1152970D01*
G01*
X129393150Y-111483150D02*
G75*
G02*
X125243150Y-115737397I-4150000J-102970D01*
G01*
X130533150Y-108468150D02*
X130533150Y-107198150D01*
X129898150Y-107833150D01*
X130533150Y-108468150D01*
G36*
X130533150Y-108468150D02*
G01*
X129898150Y-107833150D01*
X130533150Y-107198150D01*
X130533150Y-108468150D01*
G37*
%TO.C,U2*%
X92693150Y-77623150D02*
X94073150Y-77623150D01*
X94073150Y-76243150D02*
X94073150Y-77623150D01*
X91193150Y-66433150D02*
X129193150Y-66433150D01*
X129193150Y-78433150D01*
X91193150Y-78433150D01*
X91193150Y-66433150D01*
%TO.C,C3*%
X98458150Y-89744402D02*
X98458150Y-89221898D01*
X99928150Y-89744402D02*
X99928150Y-89221898D01*
%TO.C,C4*%
X90458150Y-90221898D02*
X90458150Y-90744402D01*
X91928150Y-90221898D02*
X91928150Y-90744402D01*
%TO.C,U5*%
X133083150Y-104823150D02*
X133258150Y-104823150D01*
X133083150Y-105498150D02*
X133083150Y-104823150D01*
X133083150Y-108043150D02*
X133083150Y-107368150D01*
X133258150Y-108043150D02*
X133083150Y-108043150D01*
X136128150Y-104823150D02*
X136303150Y-104823150D01*
X136303150Y-104823150D02*
X136303150Y-105498150D01*
X136303150Y-107368150D02*
X136303150Y-108043150D01*
X136303150Y-108043150D02*
X136128150Y-108043150D01*
X133693150Y-108193150D02*
X133933150Y-108523150D01*
X133453150Y-108523150D01*
X133693150Y-108193150D01*
G36*
X133933150Y-108523150D02*
G01*
X133453150Y-108523150D01*
X133693150Y-108193150D01*
X133933150Y-108523150D01*
G37*
%TO.C,R6*%
X114553586Y-118198150D02*
X115007714Y-118198150D01*
X114553586Y-119668150D02*
X115007714Y-119668150D01*
%TO.C,J1*%
X93813150Y-88513150D02*
X95193150Y-88513150D01*
X93813150Y-89893150D02*
X93813150Y-88513150D01*
X93813150Y-91163150D02*
X93813150Y-93813150D01*
X93813150Y-91163150D02*
X96573150Y-91163150D01*
X93813150Y-93813150D02*
X96573150Y-93813150D01*
X96573150Y-91163150D02*
X96573150Y-93813150D01*
%TO.C,R1*%
X133966086Y-116698150D02*
X134420214Y-116698150D01*
X133966086Y-118168150D02*
X134420214Y-118168150D01*
%TO.C,Y1*%
X130208150Y-120833150D02*
X131578150Y-120163150D01*
X130208150Y-122033150D02*
X131578150Y-122703150D01*
X131578150Y-120163150D02*
X132388150Y-120163150D01*
X131578150Y-122703150D02*
X132388150Y-122703150D01*
X119188150Y-119673150D02*
X130208150Y-119673150D01*
X130208150Y-123193150D01*
X119188150Y-123193150D01*
X119188150Y-119673150D01*
%TO.C,J2*%
X94333150Y-80323150D02*
X94333150Y-81573150D01*
X94633150Y-81933150D02*
X95243150Y-81933150D01*
X94633150Y-83233150D02*
X95243150Y-83233150D01*
X95243150Y-81233150D02*
X95243150Y-84733150D01*
X95243150Y-84733150D02*
X100143150Y-84733150D01*
X95583150Y-80323150D02*
X94333150Y-80323150D01*
X96093150Y-80423150D02*
X96093150Y-80623150D01*
X96393150Y-80423150D02*
X96093150Y-80423150D01*
X96393150Y-80523150D02*
X96093150Y-80523150D01*
X96393150Y-80623150D02*
X96393150Y-80423150D01*
X97193150Y-80623150D02*
X97193150Y-81233150D01*
X97193150Y-81233150D02*
X95243150Y-81233150D01*
X97593150Y-84233150D02*
X97793150Y-84233150D01*
X97593150Y-84733150D02*
X97593150Y-84233150D01*
X97693150Y-84733150D02*
X97693150Y-84233150D01*
X97793150Y-84233150D02*
X97793150Y-84733150D01*
X98193150Y-81233150D02*
X98193150Y-80623150D01*
X100143150Y-81233150D02*
X98193150Y-81233150D01*
X100143150Y-84733150D02*
X100143150Y-81233150D01*
X100753150Y-81933150D02*
X100143150Y-81933150D01*
X100753150Y-83233150D02*
X100143150Y-83233150D01*
X94633150Y-80623150D02*
X100753150Y-80623150D01*
X100753150Y-85343150D01*
X94633150Y-85343150D01*
X94633150Y-80623150D01*
%TO.C,U4*%
D14*
X137693150Y-112933150D02*
X137693150Y-113703150D01*
X137693150Y-112933150D02*
X142693150Y-112933150D01*
X137693150Y-115933150D02*
X137693150Y-115163150D01*
X137693150Y-115933150D02*
X142693150Y-115933150D01*
X142693150Y-112933150D02*
X142693150Y-115933150D01*
X137693150Y-113703150D02*
G75*
G02*
X137698083Y-115162863I-40000J-730000D01*
G01*
D13*
X137813150Y-117433150D02*
G75*
G02*
X137753150Y-117433150I-30000J0D01*
G01*
X137753150Y-117433150D02*
G75*
G02*
X137813150Y-117433150I30000J0D01*
G01*
D12*
X138563150Y-115453150D02*
G75*
G02*
X138263150Y-115453150I-150000J0D01*
G01*
X138263150Y-115453150D02*
G75*
G02*
X138563150Y-115453150I150000J0D01*
G01*
%TO.C,R4*%
D11*
X131458150Y-101160214D02*
X131458150Y-100706086D01*
X132928150Y-101160214D02*
X132928150Y-100706086D01*
%TO.C,Q1*%
X107123150Y-124783150D02*
X110723150Y-124783150D01*
X107084672Y-124771628D02*
G75*
G02*
X108923150Y-120333149I1838478J1838478D01*
G01*
X108923150Y-120333150D02*
G75*
G02*
X110761628Y-124771628I0J-2600000D01*
G01*
%TO.C,C5*%
X131958150Y-111194402D02*
X131958150Y-110671898D01*
X133428150Y-111194402D02*
X133428150Y-110671898D01*
%TO.C,C2*%
X94431898Y-107698150D02*
X94954402Y-107698150D01*
X94431898Y-109168150D02*
X94954402Y-109168150D01*
%TD*%
M02*
